<svg width="41" height="41" viewBox="0 0 41 41" fill="none" xmlns="http://www.w3.org/2000/svg">
<rect x="0.423828" y="0.0898438" width="40.4839" height="40.4839" rx="5.06048" fill="#DAE9E2"/>
<circle cx="20.6655" cy="21.1753" r="15.6032" stroke="#394553" stroke-width="0.843414"/>
<path d="M20.9866 15.0977L15.5213 27.9513C15.4032 28.2718 15.2176 28.5249 14.9646 28.7104C14.7285 28.8791 14.467 28.9634 14.1802 28.9634C13.7248 28.9634 13.3874 28.8369 13.1681 28.5839C12.9489 28.3309 12.8392 28.0188 12.8392 27.6477C12.8392 27.4959 12.8645 27.3356 12.9151 27.167L19.2154 12.0361C19.3504 11.6987 19.5528 11.4373 19.8227 11.2517C20.1094 11.0662 20.4131 10.9903 20.7336 11.024C21.0372 11.024 21.3155 11.1168 21.5686 11.3023C21.8384 11.471 22.0324 11.7156 22.1505 12.0361L28.3749 26.8633C28.4592 27.0826 28.5014 27.285 28.5014 27.4706C28.5014 27.926 28.3496 28.2887 28.046 28.5586C27.7592 28.8285 27.4387 28.9634 27.0845 28.9634C26.7808 28.9634 26.5025 28.8707 26.2495 28.6851C26.0133 28.4995 25.8278 28.2465 25.6928 27.926L20.2528 15.2495L20.9866 15.0977ZM16.3056 24.8644L17.6973 21.9547H24.5289L25.0097 24.8644H16.3056Z" fill="#394553"/>
</svg>
