<svg width="41" height="41" viewBox="0 0 41 41" fill="none" xmlns="http://www.w3.org/2000/svg">
<rect x="0.423828" y="0.00390625" width="40.4839" height="40.4839" rx="5.06048" fill="#DAE9E2"/>
<path d="M20.9866 14.169L15.5213 27.0226C15.4032 27.3431 15.2176 27.5961 14.9646 27.7817C14.7285 27.9504 14.467 28.0347 14.1802 28.0347C13.7248 28.0347 13.3874 27.9082 13.1681 27.6552C12.9489 27.4022 12.8392 27.0901 12.8392 26.719C12.8392 26.5672 12.8645 26.4069 12.9151 26.2382L19.2154 11.1074C19.3504 10.77 19.5528 10.5086 19.8227 10.323C20.1094 10.1375 20.4131 10.0616 20.7336 10.0953C21.0372 10.0953 21.3155 10.1881 21.5686 10.3736C21.8384 10.5423 22.0324 10.7869 22.1505 11.1074L28.3749 25.9346C28.4592 26.1539 28.5014 26.3563 28.5014 26.5419C28.5014 26.9973 28.3496 27.36 28.046 27.6299C27.7592 27.8998 27.4387 28.0347 27.0845 28.0347C26.7808 28.0347 26.5025 27.9419 26.2495 27.7564C26.0133 27.5708 25.8278 27.3178 25.6928 26.9973L20.2528 14.3208L20.9866 14.169ZM16.3056 23.9357L17.6973 21.0259H24.5289L25.0097 23.9357H16.3056Z" fill="#394553"/>
<path d="M12.5862 31.071H28.7544V32.3361H12.5862V31.071Z" fill="#394553"/>
</svg>
