<svg width="35" height="29" viewBox="0 0 35 29" fill="none" xmlns="http://www.w3.org/2000/svg">
<circle cx="11.5" cy="11.5" r="1.125" stroke="#394553" stroke-width="0.75"/>
<circle cx="17.5" cy="11.5" r="1.125" stroke="#394553" stroke-width="0.75"/>
<circle cx="23.5" cy="11.5" r="1.125" stroke="#394553" stroke-width="0.75"/>
<path fill-rule="evenodd" clip-rule="evenodd" d="M8 0C3.58172 0 0 3.58172 0 8V13.7753C0 18.1172 3.45896 21.6512 7.77163 21.7721C7.43012 23.3807 6.76647 24.9095 5.81942 26.2643L3.37631 28.9755L8.37218 27.3398C9.14462 27.0869 9.8898 26.7539 10.5955 26.3463L10.824 26.2143C12.6351 25.1682 14.1113 23.6255 15.079 21.7753H27C31.4183 21.7753 35 18.1935 35 13.7753V8C35 3.58172 31.4183 0 27 0H8Z" fill="#84B59F" fill-opacity="0.76"/>
<circle cx="11.5" cy="11.5" r="1.125" fill="#516174" stroke="#516174" stroke-width="0.75"/>
<circle cx="17.5" cy="11.5" r="1.125" fill="#516174" stroke="#516174" stroke-width="0.75"/>
<circle cx="23.5" cy="11.5" r="1.125" fill="#516174" stroke="#516174" stroke-width="0.75"/>
</svg>
