<svg width="30" height="23" viewBox="0 0 30 23" fill="none" xmlns="http://www.w3.org/2000/svg">
<path fill-rule="evenodd" clip-rule="evenodd" d="M1.0012 7.08382C0.265224 7.75307 0.265224 8.91059 1.0012 9.57983L7.78537 15.7489C8.86889 16.7341 10.607 15.9654 10.607 14.5008V12.6753C12.1778 12.6029 15.4191 12.4967 17.5572 12.7232C17.6296 12.7308 17.7017 12.7384 17.7735 12.746C20.2344 13.0052 22.3782 13.231 23.9612 15.1018C25.5338 16.9603 26.1507 19.837 26.3878 22.0395C26.48 22.8964 27.5989 23.1659 27.9314 22.3708C28.9756 19.8745 30.0623 16.0514 29.0844 12.3572C27.7074 7.1551 23.2071 5.20994 17.9232 4.48946C15.0409 4.09645 12.0649 4.17244 10.607 4.24729V2.16281C10.607 0.698295 8.86889 -0.0704768 7.78537 0.914799L1.0012 7.08382Z" fill="#A2C7B6"/>
</svg>
