<svg xmlns="http://www.w3.org/2000/svg" viewBox="0 0 3000 3000"><defs><style>.cls-1,.cls-2{fill:none;stroke:#355a63;stroke-miterlimit:10;stroke-width:10px;}.cls-2{stroke-linecap:round;}.cls-3{opacity:0.3;}.cls-4{fill:#355a63;}</style></defs><g id="Lines"><circle class="cls-1" cx="1745.71" cy="838.75" r="260.51"/><circle class="cls-1" cx="1816.35" cy="939.47" r="553.65"/><circle class="cls-1" cx="1789.62" cy="705.06" r="70.17"/><path class="cls-1" d="M1370.15,278.69c429.32-274.52,1053.4-55.19,1207.41,299.4,82,188.74,2.4,602-43.32,785.42-74.8,300.12-123,502.39-265,739.38-146.16,244-554.25,228.86-969.75,190.65-460.5-42.36-774-44.49-913.82-352.06-109.88-241.73,3.18-557.32,188.74-788.63C713.59,979.36,757,981.41,997.65,727.71,1191.15,523.72,1186.84,395.91,1370.15,278.69Z"/><path class="cls-1" d="M1336,222.08C1790.93-68.86,2473.57,163,2636.79,538.8c86.87,200,15.92,648.39-32.52,842.76-79.27,318.06-131.72,521.59-282.16,772.75-154.89,258.6-591.9,242.56-1032.23,202.06-488-44.88-814.91-60.13-963.07-386.08-116.44-256.18-13.63-597.52,183-842.65,147.49-183.85,191.7-179.15,446.74-448C1161.64,463.45,1141.69,346.3,1336,222.08Z"/><path class="cls-1" d="M2640.15,546.86c13.79,34.9,53.4,114.55,76.44,277.16,30.6,215.91,15.93,648.39-32.52,842.76-79.27,318.06-131.72,521.59-282.15,772.75C2247,2698.13,1810,2682.09,1369.68,2641.59c-488-44.88-774.15-73.49-943.53-388.94-96.28-179.3-104.86-270.71-134.66-389.58"/><ellipse class="cls-1" cx="1384.77" cy="429.43" rx="48.61" ry="30.5" transform="translate(-59.7 304.93) rotate(-12.3)"/><ellipse class="cls-1" cx="2370" cy="470.78" rx="38.13" ry="60.69" transform="translate(217.87 1569.35) rotate(-38.28)"/><ellipse class="cls-1" cx="2277.2" cy="458.34" rx="21.61" ry="25.42" transform="translate(39.71 1082.3) rotate(-26.96)"/><ellipse class="cls-1" cx="2181.56" cy="1722.39" rx="28.91" ry="60.05" transform="translate(-350.9 576.76) rotate(-13.95)"/><ellipse class="cls-1" cx="1715.46" cy="1755.55" rx="45.75" ry="93.1" transform="translate(-292.72 3166.92) rotate(-80.76)"/><circle class="cls-1" cx="1397.89" cy="2016.47" r="56.88"/><ellipse class="cls-1" cx="813" cy="1977.11" rx="75.3" ry="34.95" transform="translate(-516.61 303.17) rotate(-16.11)"/><ellipse class="cls-1" cx="842.45" cy="2068.77" rx="21.77" ry="26.69" transform="matrix(0.99, -0.13, 0.13, 0.99, -252.34, 121.73)"/><ellipse class="cls-1" cx="999.99" cy="1594.76" rx="23.09" ry="31.14" transform="translate(-356.64 289.85) rotate(-14.02)"/><path class="cls-1" d="M745.37,1414.24c-94.93-42.47-212.6,62.42-249.53,182.6C455,1729.69,510,1896.46,613.62,1902.29c67.78,3.81,100.4-36.86,112.69-86,14.53-58.12-5.19-74.31,11-144.47,19.36-83.81,73.38-99.16,69.91-161.83C805.08,1471.2,793.67,1435.85,745.37,1414.24Z"/><path class="cls-1" d="M514.45,1828.33c53,94.72,103.58,131.71,157.49,123.87,56.2-8.17,81.58-33,94.19-82.11,11.44-44.48-13.34-95.32,1-150.95,21.46-83.3,73.15-96.46,69.9-161.84-1.49-30-27.18-82.16-49.93-111.59"/><path class="cls-1" d="M1705.92,2035c27.79,91.53,171.6,109.93,277.31,63.06,116.86-51.82,199.47-190.61,141-266.06-38.25-49.36-86.17-47.46-127.7-26.34-49.11,25-48.46,48.43-106.93,79.52-69.87,37.13-113.11,8.89-154.53,49.11C1709.43,1959.21,1691.77,1988.46,1705.92,2035Z"/><path class="cls-1" d="M1708.71,2042.86c73.24,162.45,205.52,158.85,328.07,96.36,104.61-53.35,139.8-166.18,101.76-279.76"/><path class="cls-2" d="M646.24,1503.21c-3.53-6.11-7.42-16-5.09-26.27,6.57-28.81,42.35-37.19,68.64-28,23.51,8.26,44.94,35.71,37.28,57.19-5.93,16.63-28.92,25.21-55.61,9"/><path class="cls-2" d="M715.51,1525c2.88,2.83,9.92,13.73,5.44,30.82-8.52,32.41-45.14,31-62.21,12"/><path class="cls-2" d="M700.49,1580.8c11.63,10.63,17.61,26.2,14,46.54-3,16.52-21.27,56.26-74,42.79"/><path class="cls-2" d="M684.85,1667.58c13.91,15.83,17,33.25,10.53,51.69-8.75,24.84-36.85,43.43-71.81,24.79"/><path class="cls-2" d="M646.24,1503.21c-43-7.2-62.54,26.84-61.64,54.65,1,33,33,50.41,53.8,46.81"/><path class="cls-2" d="M592.7,1583.13c-32.46,5.44-50.58,25.14-52.48,51.2-1.93,26.35,19.38,59.52,57.3,59.52"/><path class="cls-2" d="M560.45,1683.26c-23.73,11.44-32.3,32.62-30.72,56.24,2.17,32.3,37.32,64.46,74.78,52"/><path class="cls-2" d="M659.89,1752.49c23.85,25,26.34,61.08,9.65,82.65C646,1865.56,590.27,1859.53,573,1832c-8.93-14.2-5.94-31.39-3.82-39.71"/><path class="cls-2" d="M2050.11,1911.18c35.41,21.29,30.31,66.06,4.27,84.49-24.58,17.39-68.42,17.26-83.9-29.31"/><path class="cls-2" d="M2071.5,1935.17c13.25,3.31,27.78-7.28,32.42-17.66,10-22.39-4.61-63.83-51.92-69.48-31.72-3.79-59.31,9.8-60.58,41.25-.22,5.4,1.86,19.63,13.16,26"/><path class="cls-2" d="M1991.75,1894.44c-15.21-11.18-35.65-15.11-52.69-7.88-12.09,5.13-28.11,21.77-22.75,49.74"/><path class="cls-2" d="M1928.66,1958.65c-5.19-29.39-39.83-42-66.49-28.52-23.66,11.94-25.25,35.92-25.71,38.87"/><path class="cls-2" d="M1845.94,1991.39c-3.43-22.05-16.38-33.78-37.46-33.51-12.09.15-33.61,13.5-28.89,38.86"/><path class="cls-2" d="M1780.46,1979.87c-2.32-1.29-14-3-27.42,4.68-13.12,7.48-21.34,27.8-10.67,52.37,8,18.44,28.83,28.09,47.83,24.53,10.84-2,26.15-9,26.74-23.78"/><path class="cls-2" d="M1811.78,2014.88c-1.4,34.34,40.67,51.14,64.76,40.74,21.52-9.3,38.71-39.79,20.84-67.69"/><path class="cls-2" d="M1901.59,2029.08c12,21,39.26,26.68,60.09,18.33,19.24-7.71,31.32-27.69,24.72-53.55"/><path class="cls-2" d="M670.39,1341.37c7.34,47.49,55,11.35,109.3,46.18,72.64,46.56,60.58,108.74,96.59,108.46,52.24-.41,32.27-114.36-36-164C775.21,1284.65,663.18,1294.77,670.39,1341.37Z"/><path class="cls-2" d="M642.85,1291.17c13.66,15.25,28.78-10.55,71.33-15.89,46.54-5.84,63.71,14.62,73.24,1,16.31-23.38-38.29-50.69-82.93-43.53C664,1239.2,623.85,1270,642.85,1291.17Z"/><path class="cls-2" d="M809.34,1281.32c2.23,14.3,35.88,13.73,71.18,49.25,41.84,42.1,33,81.34,51.47,86.42,26,7.18,22.7-69.23-14-109.93C881,1266,804.63,1251,809.34,1281.32Z"/><path class="cls-2" d="M854,1243.54c4.53,11.83,21.16,2.55,48.18,17.8,31,17.49,30.63,38.33,45,39.32,29.22,2,17.66-50.4-22.82-72.48C894.68,1212,844.33,1218.34,854,1243.54Z"/><path class="cls-2" d="M1683.1,1913.81c25.62,20.08-27.24,50.53-17,115.8,11.36,72,74.54,90.17,61.79,116.2-16.68,34.06-103.62-22-119-94.36C1593.16,1976.91,1651.78,1889.27,1683.1,1913.81Z"/><path class="cls-2" d="M1618,1908.62c6.6,18.78-16.94,17.46-30.62,51.68-17.16,42.92,5.83,75-11.91,80.48-27.81,8.59-44.22-44.13-30.86-90C1555.92,1912,1606.3,1875.29,1618,1908.62Z"/><path class="cls-2" d="M1588.87,2081.5c-21.4,0-29.63,46.8-6.14,74.53s73.79,38.47,78.16,19.41c4.45-19.41-25.61-19.51-46.6-46.92C1597.66,2106.81,1603.06,2081.5,1588.87,2081.5Z"/><path class="cls-1" d="M1303.82,729.7c-9.41-8.24-22.11-14.51-36-14.59-38.23-.24-65.4,52.24-70,98.39-7.23,72.33,29.72,102,28.06,167.55-1.27,50.21-14,76.26-48.58,82-28.76,4.76-51.46-32.73-56.54-53.49-9.2-37.56,1.54-46.29-2.59-87.6-3.26-32.63-19.9-53.72-50.84-47.87-29.1,5.51-39.94,41.17-33.47,88.55,9.46,69.26,69.06,95.32,88.76,174.79,22.21,89.61-9.77,181.65,12.49,253.1,18.22,58.46,57.15,105.78,103.16,86.21,24.41-10.38,24.41-51,10-88.76-21-54.9-39.82-61.43-64.29-118.09-12.58-29.14-14.51-75.09,9.53-85.79,37.28-16.58,65.1,15.25,75.31,46.71,23.09,71.17,21.6,178.8,84.83,275.48,33,50.52,62.6,66.09,87.38,54.87,26.25-11.89,32.91-45.08,7.31-87.28-23.51-38.76-60-61.92-85.26-91.4-21.25-24.85-17-53.47,4.66-63.15,22.45-10,46.29,17.92,56.45,40.16,14,30.55,42.26,81,76.58,108.14,36.93,29.18,64.69,37.49,80.49,22.46,19.38-18.43,4.14-39.83-8.68-53.38"/><path class="cls-1" d="M1845.81,1493.12c-19.06,10.62-34.63,26.82-23.51,50.65,11.68,25,64.26,25.15,104.22,4.45,53.38-27.64,53.11-56.78,105.81-74.35,31.45-10.48,52.19-7.46,62,7.63,14,21.6-7.95,53.38-25.74,64.82-51.8,33.3-97,28.7-126.46,58.14-21.29,21.29-15.57,51.48,2.54,62.91,23.16,14.63,77.56,5.08,111.53-15.25,84.12-50.34,54.34-122,127.73-187.78,76.84-68.86,136.06-47.43,207.8-110.58,30.93-27.22,27.28-60.86,13.14-74.66-17.37-16.95-45-13.23-66.52,8.89-31.35,32.2-20.95,53.83-44.48,75.31-18.22,16.63-37.28,19.59-53.8,4.76-9.8-8.79-12.71-29.65,11.54-61,35.12-45.39,128.13-103.35,158.23-182.07,16.82-44,25.11-92.89-5.71-108.67-11.15-5.7-34.09.11-41.91,16.38"/></g><g id="Shadows" class="cls-3"><ellipse class="cls-4" cx="1511.96" cy="2854.65" rx="877" ry="92"/><path class="cls-4" d="M2730.16,988.79c-38.78,594.34-163.95,1238.47-525.95,1446.47-361.34,207.63-1230,0-1396.82-30C593.18,2366.74,468.21,2172.82,386.53,2073l-75-124.38L328.93,2018l47.81,133.75,94.58,174.46L556.65,2427l120.7,79.08,104.22,43.52,255.27,56.13,550,52.78,264.06,5,180.71-16.42L2195,2604.43l108.49-58.22,81.17-76.06,132.91-255.93,92.75-265.69,80.7-312.29,26.2-185.36,15.37-266.51Z"/><path class="cls-4" d="M800.21,1470.46c-3.64,1,16.54,31.51,4.19,68.19-16.43,48.84-48.34,65-63.14,118.49-27.72,100.12,4.45,155.1-33.26,202.21-54.9,68.58-152.68,26.36-166.29,13-13.77-13.57,32.9,64.56,83.39,74.86,73.53,15,117.85-20.1,139.55-65,22.87-47.29-16.41-70.43-3.11-139.55,14.61-75.86,65.75-115.77,75.56-152.89C853.49,1527.67,805.48,1469,800.21,1470.46Z"/><path class="cls-4" d="M1730,2079c7.48-3.55,87,84.32,259.55,13.78,122.79-50.18,159.66-199.11,159.66-199.11,14.57,20,37.23,171.55-135.36,256.45C1828.1,2241.52,1719.15,2084.19,1730,2079Z"/><path class="cls-4" d="M1610.12,2056.29c3,16.45,73.07,83.06,90.78,71,9.77-6.67.16-28.67,3.44-24.17,1.43,1.95,32.39,40.33,24.31,45.95C1672.43,2188.15,1609.45,2052.64,1610.12,2056.29Z"/><path class="cls-4" d="M1570.88,2125.93c4.66,7.33,52.35,40.89,63.77,38.22,6.67-1.55,5.56-7.76,3.12-12.44-3.64-6.95,27.74,14.95,24.44,23.55-3.69,9.63-32,11.67-53.11,2.23C1579.25,2164.11,1568.18,2121.7,1570.88,2125.93Z"/><path class="cls-4" d="M1539.77,1968.82c.76-.29,12.27,42.38,24.88,41.55,9.88-.64,15.51-25,16.9-27.9,1.77-3.72,9.1,57.46-9.45,59.06C1540.8,2044.22,1538.73,1969.21,1539.77,1968.82Z"/><path class="cls-4" d="M1625.57,1734.26c2.84-3.13,30.07,33.71,81,44.67,56.46,12.16,101.37-16.27,103-12,1.79,4.69-36.44,46.78-104.66,34.67C1620.31,1786.58,1622.35,1737.81,1625.57,1734.26Z"/><path class="cls-4" d="M2152.74,1726.13c2.25,4.47,22.8,36.3,41,32.13,7.72-1.77,15.83-37.66,15.91-42.85.07-4.27,6.13,62.07-12.08,67C2178.73,1787.43,2150.4,1721.47,2152.74,1726.13Z"/><path class="cls-4" d="M1341.63,2008.1c3.21-2.8,24.25,40.94,57.47,40.5,31.54-.42,51.46-41.12,55.39-37.85,4.68,3.91-15.92,59.72-54.5,62.6C1357.31,2076.53,1337.66,2011.57,1341.63,2008.1Z"/><path class="cls-4" d="M738.21,1990.37c1-3,41.23,20.92,83.56,6,38.68-13.63,54.74-51.13,57.34-49.28,2.85,2,16.43,40.84-52,65.28C761.49,2035.81,737.11,1993.68,738.21,1990.37Z"/><path class="cls-4" d="M818.32,2063.37c1.62-1.32,13.18,17.28,25.78,15,11.77-2.12,16-20.93,17.92-20.21,2.57,1-.18,36-15,38.88C831.44,2100,816.22,2065.09,818.32,2063.37Z"/><path class="cls-4" d="M976.91,1597.12c1.9-2.14,15,12.36,27.13,8.14,11.79-4.1,13.59-22.8,15.5-22.33,2.72.67,4,39.64-11.5,43.83C993.21,1630.77,974.39,1600,976.91,1597.12Z"/><path class="cls-4" d="M672,1327.75c1.3,5.89,12.7,17.74,24.26,19.85,20.56,3.75,67-2.2,97,14,65.33,35.33,59.6,103,84.78,101.44,17.29-1,21.33-26,22.93-41.17.78-7.41,12,64.5-18.24,73.45-4.82,1.43-16.3,4.53-28.63-12.61-20.06-27.89-33.81-66.86-62.84-87.78-36-26-82.56-18.78-105.33-27C669.39,1362,670.91,1323.06,672,1327.75Z"/><path class="cls-4" d="M852.77,1302.76c5,2,31.14,11.86,48.44,28.67,24.92,24.22,27.45,60.44,33.67,60.17s8.51-36.93,9.5-36.84c1.29.12,7.33,60.84-7.07,62.71-13.19,1.71-10.28-30.61-37.27-65.71C880.62,1326.5,848.85,1301.19,852.77,1302.76Z"/><path class="cls-4" d="M884.54,1249.26c4.5-1.33,20.18,3.62,27.84,6.17,19.5,6.5,30.48,29.23,37.33,27.83,9-1.83,4.44-22.67,4.95-26.2.28-1.92,11.14,38.78,1.46,42-15.41,5.17-10.74-7.65-35.91-25.66C904.76,1262.38,881.47,1250.17,884.54,1249.26Z"/><path class="cls-4" d="M638.13,1277.12c2.08,3.25,10.41,5,15.86,4.37,21.53-2.64,32.39-19.36,59.33-23.12,29.59-4.12,49.94,13.63,64.94,9.77,3.84-1,7-8.14,6-12.65-.7-3.18,8.21,9.1,5.7,15.47-.57,1.45-3.41,7.52-22.81,9.41-25.78,2.53-29.7-7.3-48.45-6.22-24.94,1.45-36.78,19.95-62,19.78-5.6,0-12-1-16-5.64C637.68,1284.77,636.6,1274.75,638.13,1277.12Z"/><path class="cls-4" d="M579.32,1835c.53-3.46,41.83,11.27,69.56-10.89,22.84-18.25,21.93-49.91,25.78-49.27,4.5.74,13.11,45.1-11.31,66.83C633.47,1868.31,578.71,1839.08,579.32,1835Z"/><path class="cls-4" d="M696.65,1702.37c-2.68-1.47-9.08,17.73-28.88,26.23-23.53,10.09-42.84-5.9-47.9,1.55-5.44,8,6.84,29.11,52.78,17.34C696.7,1741.32,700,1704.23,696.65,1702.37Z"/><path class="cls-4" d="M709.8,1624.26c-2.68-1.47-9.08,17.73-28.89,26.22-23.52,10.09-42.84-5.89-47.9,1.56-5.43,8,6.85,29.11,52.79,17.33C709.85,1663.21,713.19,1626.12,709.8,1624.26Z"/><path class="cls-4" d="M545.87,1625.68c3-.33,1.59,19.85,16.61,35.3,17.85,18.35,41.82,11,43.63,19.82,1.95,9.48-17.49,24.26-55.39-4.25C530.88,1661.62,542,1626.09,545.87,1625.68Z"/><path class="cls-4" d="M533.54,1725c1.11,4.78,14.49,36.65,30.89,43.67,21.56,9.22,41.67-3.89,45.35,13.06,2.05,9.45-20.56,24.34-58.46-4.17C531.48,1762.67,532.67,1721.28,533.54,1725Z"/><path class="cls-4" d="M591.71,1536.76c.67,3.67,2.23,36.79,20.17,46.67,8.16,4.5,13.45,5.42,24.89,8.28,3.11.78,7.11,4.33,5.88,9-1.12,4.3-8,4.14-8.61,4.41-10.89,4.5-26.87-3.54-36.16-13.19C578.87,1572.19,591.17,1533.79,591.71,1536.76Z"/><path class="cls-4" d="M748.52,1494c-3-1.94-9.76,13.22-25.14,16-16,2.89-29.25-10.09-32.17-6.17-5,6.73,1.87,9.31,6,13.5,9.38,9.51,27.22,12,39.17,3.84S751.48,1495.86,748.52,1494Z"/><path class="cls-4" d="M721.46,1553.68c-1.79-1.87-13.21,14.41-30.92,14.08-16.5-.3-27.13-14.83-31.5-11.16-2.59,2.18-.9,9,1.8,13.38,6.59,10.59,23.3,12.76,35.2,9.28C713.84,1574.07,723.24,1555.56,721.46,1553.68Z"/><path class="cls-4" d="M1734.52,2006.56c3.32-1.92,20.24,40.16,46.66,39.77,17.13-.25,28.76-18.21,33.56-14.44,3.55,2.79.47,15.22-6.89,22.89-9.79,10.2-25.71,10.46-35.78,7.78C1740.91,2054.25,1731.21,2008.46,1734.52,2006.56Z"/><path class="cls-4" d="M1811,2021.67c-1.29,1.93,28,48,63.22,33.68,34.35-14,25.29-65.34,23-65.91-2.13-.52-4.32,42-28.66,51.56C1843.68,2050.79,1812.16,2019.87,1811,2021.67Z"/><path class="cls-4" d="M1906,2007.26c3.55,5.34,14.89,33.11,50,22.45,18-5.49,26.89-32.11,27.32-40.16.27-5,9.64,18.64,4.23,33.94-6.79,19.21-26.44,25.68-30.44,26.88-15.11,4.54-34.82,2.3-45.8-9.79a30.88,30.88,0,0,1-8.06-16.42C1902.87,2021.64,1902.82,2002.51,1906,2007.26Z"/><path class="cls-4" d="M1973.54,1967.26c6.89,4.23,36.41,32.3,66.23,19.11,23.11-10.22,30.11-41.61,30.44-50.07.21-5.22,9.82,22.45,7.11,32.74-6.57,24.93-35.68,33.58-38.34,34.32-3.39,1-30.76,8.2-51-9.14C1978.53,1986.13,1968.4,1964.11,1973.54,1967.26Z"/><path class="cls-4" d="M2049.15,1911.18c-1.74-3.51-1.94-7.27.55-9.25,2.91-2.31,10.37-2.31,14.51-.17,13.47,7,12.83,15.84,22.5,14.5,16.94-2.33,12-35.83,10.38-43.38-1-4.66,17.06,21.68,12.29,37.88a34.13,34.13,0,0,1-22.16,22.64c-3.76,1.14-9.4,2.84-14.34.2-6.16-3.3-4.3-9.65-12.17-16.17C2056.07,1913.59,2051.18,1915.26,2049.15,1911.18Z"/><path class="cls-4" d="M1505.14,738.65c-4.93,36.58,59.59,259.63,261.07,265.61,146,4.34,241-107.75,245-143,1.58-14-55.48,256-265.5,238C1395.21,1069.26,1507.22,723.14,1505.14,738.65Z"/><path class="cls-4" d="M1293.15,757.94c-8.94,271.32,180.34,608.81,581.85,605.35,367.88-3.18,487.65-349.1,487.18-330.59-1,39.21-78,405.56-493,457.93-296.34,37.38-532.94-170.37-594.23-434.94C1248.49,941.55,1293.5,747.57,1293.15,757.94Z"/><path class="cls-4" d="M1128.23,1282.11c-1,20.58,51.79,163,92.42,158.71,29.78-3.11,25.34-48.45,24-61.72-.67-6.82,11.82,23.28,12.18,41.31.29,14.47.88,44.24-16.54,55.35-21,13.4-57.19-7.48-76.07-26.3-22.21-22.15-27.62-48.54-34.35-81.37C1123.38,1336.2,1128.73,1271.75,1128.23,1282.11Z"/><path class="cls-4" d="M1308,1388.86c4.09,20.2,87.31,146.16,123.8,132.67,26.74-9.89,11.65-52.84,7.24-65.43-2.27-6.46,16.56,19.86,21.26,37.27,3.78,14,11.54,42.72-1.86,57.51-16.17,17.86-49.47,10.3-76.61-8-25.4-17.09-37.27-40.72-51.44-71C1316.6,1442.46,1305.93,1378.7,1308,1388.86Z"/><path class="cls-4" d="M1426.43,1364.33c1.62,9.16,106.11,113.93,134.45,94.6,15.65-10.68-1.63-25.31,4.66-28,7.2-3.08,30.56,17.81,27.67,39-1.91,14-15,26.06-28.67,29.33-30.83,7.4-63.6-30.17-91.66-62.33C1446.53,1406.73,1425.31,1358,1426.43,1364.33Z"/><path class="cls-4" d="M2128,1553.58c-6.25,12-34.74,54.35-108.41,81.68-21,7.78-54.33,12-67.33-4-8.35-10.27-2.33-29,2.64-37,2.18-3.51-14.14,5.64-20,15.7-8.62,14.86-8.39,37.46,2.16,50.74,24.54,30.86,97.39,2,101.8.18,7.28-3,41-17.39,66.7-53.59C2120.41,1586.33,2130.92,1547.88,2128,1553.58Z"/><path class="cls-4" d="M2001.54,1483.93c.11-2.33-33.43,16.28-83.33,47.11-11.57,7.15-52,22-79,2.22-11.31-8.27-5.33-27-2.9-34.07,1.31-3.81-14.67,11.1-16.73,21.81-2.36,12.23,3,24.79,10.42,32.25,16,16.13,43.82,10.73,59.68,7.66,35.77-6.94,60-27.29,81.86-45.64C1988.14,1501.33,2001.44,1486.28,2001.54,1483.93Z"/><path class="cls-4" d="M2407.38,1286.49c2.83,15.61-5.5,37.11-19.5,50.44-29,27.58-95.1,45.44-133.67,61.67-61,25.66-68.22,37.28-76.5,46.33-26,28.41-34.45,59.9-30.17,61.83,4.79,2.16,7.33-21.29,49.34-55.16,12.75-10.29,39.45-21.33,92.33-43,37-15.18,63.4-25.06,94.51-48.12,14.68-10.88,30.23-24.56,33.16-44.88C2418.75,1302.61,2406.54,1281.91,2407.38,1286.49Z"/><path class="cls-4" d="M1337.59,430c6.69-7.39,18.41,23.2,57.18,11.67,34-10.11,28-32.25,34.53-29.54,3.88,1.61,4,11.9,1.69,19.5-7,22.84-38.41,28.79-42.34,29.48-6.82,1.2-31.1,5.46-44.47-10C1338.76,444.91,1334,434.05,1337.59,430Z"/><path class="cls-4" d="M2322.05,445.09c2.49,6.51,10.18,24.9,36.16,43.84,17.83,13,30,14,39.67,8.33,14.5-8.5,9.62-26.48,7-37.16-.67-2.72,10.2,9.89,11.72,20.8,1.35,9.6,3.56,25.36-6.35,35.08-11.21,11-30,6.46-33.74,5.56-19.46-4.7-30.14-20.66-38.13-32.61C2325.16,469.18,2320.76,441.7,2322.05,445.09Z"/><path class="cls-4" d="M2259.38,445.6c.3,4.15.57,12.44,11.16,19.33,1.65,1.07,8.75,4,14.5,1.83,9-3.44,9.34-14.16,9.84-19,.15-1.45,3.67,5.86,3.5,10.5-.29,7.84-.58,15.58-6.31,20.54-5.43,4.7-12.59,4.19-14.54,4.05-10.1-.72-18.43-8.21-21.82-16.59C2251.62,456.17,2259.18,443,2259.38,445.6Z"/><path class="cls-4" d="M1728.65,676.37c-.44,7.78,3.74,32,27.56,50.89,15.8,12.51,35.8,18.75,63.11,9.56,23.11-7.78,36.06-42.72,34.06-55.89-.64-4.22,7.2,16.75,6.35,27-.46,5.62-2.41,29.11-20.63,46.89-22.52,22-59.74,25.33-86.71,9.72a71.65,71.65,0,0,1-34.4-50.39C1715.57,698.2,1729,670.41,1728.65,676.37Z"/></g></svg>