<svg xmlns="http://www.w3.org/2000/svg" viewBox="0 0 3000 3000"><defs><style>.cls-1,.cls-2,.cls-3{fill:none;stroke:#e3954f;stroke-miterlimit:10;}.cls-1,.cls-3{stroke-width:10px;}.cls-2{stroke-width:10px;}.cls-3{stroke-linecap:round;}.cls-4{opacity:0.3;}.cls-5{fill:#e3954f;}</style></defs><g id="Lines"><path class="cls-1" d="M780.75,1061.23a289.85,289.85,0,0,1,58.44,5.44A252.1,252.1,0,0,1,895.08,1085c4.37,2,12.78.55,13.29-8.13.46-7.83-7-12.37-13.29-15.23h0a231.87,231.87,0,0,0-56-17.75c-22-4-42.86-6-58.33-5.44a335.94,335.94,0,0,0-58.34,5.44,231.87,231.87,0,0,0-56,17.75h0c-6.32,2.86-13.75,7.4-13.29,15.23.51,8.68,8.92,10.13,13.29,8.13a252.1,252.1,0,0,1,55.89-18.33A290.73,290.73,0,0,1,780.75,1061.23Z"/><path class="cls-1" d="M780.75,1121.85a289.12,289.12,0,0,1,58.44,5.44,252.1,252.1,0,0,1,55.89,18.33c4.37,2,12.78.55,13.29-8.13.46-7.83-7-12.37-13.29-15.23h0a231.87,231.87,0,0,0-56-17.75c-22-4-42.86-6-58.33-5.44a335.94,335.94,0,0,0-58.34,5.44,231.87,231.87,0,0,0-56,17.75h0c-6.32,2.86-13.75,7.4-13.29,15.23.51,8.68,8.92,10.13,13.29,8.13a252.1,252.1,0,0,1,55.89-18.33A290,290,0,0,1,780.75,1121.85Z"/><path class="cls-1" d="M780.75,1182.47a289.74,289.74,0,0,1,58.44,5.43,252.06,252.06,0,0,1,55.89,18.34c4.37,2,12.78.55,13.29-8.13.46-7.83-7-12.37-13.29-15.23h0a231.43,231.43,0,0,0-56-17.75c-22-4-42.86-6-58.33-5.44a335.94,335.94,0,0,0-58.34,5.44,231.43,231.43,0,0,0-56,17.75h0c-6.32,2.86-13.75,7.4-13.29,15.23.51,8.68,8.92,10.13,13.29,8.13a252.06,252.06,0,0,1,55.89-18.34A290.62,290.62,0,0,1,780.75,1182.47Z"/><path class="cls-1" d="M692.75,891.13v-21a6.1,6.1,0,0,1,3.6-5.57,204.22,204.22,0,0,1,167,0,6.1,6.1,0,0,1,3.6,5.57v20.37"/><line class="cls-1" x1="674.16" y1="1119.89" x2="675.53" y2="1082.11"/><line class="cls-1" x1="671.95" y1="1181.11" x2="673.3" y2="1143.67"/><path class="cls-1" d="M891.44,1205.12l49,1393.59a12.73,12.73,0,0,1-6.22,11.42,300.91,300.91,0,0,1-307.35,0,12.72,12.72,0,0,1-6.23-11.43L671.1,1204.54"/><line class="cls-1" x1="889.28" y1="1143.89" x2="890.59" y2="1181.21"/><line class="cls-1" x1="887.13" y1="1082.67" x2="888.4" y2="1118.77"/><path class="cls-1" d="M676.46,1056.45l5.6-155a8.4,8.4,0,0,1,4.87-7.31,223.78,223.78,0,0,1,189,.32,8.4,8.4,0,0,1,4.84,7.31l5.46,155.15"/><line class="cls-1" x1="837.18" y1="854.9" x2="837.18" y2="623.67"/><line class="cls-1" x1="854.19" y1="860.69" x2="854.19" y2="623.67"/><path class="cls-1" d="M837.18,623.67c0-5.88,3.27-10.56,8.9-10.56,5,0,8.11,5,8.11,10.78"/><path class="cls-2" d="M2295.3,1553.56c4.81,1.34,8.28-15,8-29.67a55.23,55.23,0,0,0-5.8-23.56,11.84,11.84,0,0,0-6.06-5.65,294,294,0,0,0-228.05,0,11.84,11.84,0,0,0-6.06,5.65,55.36,55.36,0,0,0-5.81,23.56c-.28,14.7,3.2,31,8,29.67h0a294,294,0,0,1,235.78,0Z"/><path class="cls-2" d="M2295.3,1641.43c4.81,1.34,8.28-15,8-29.67a55.27,55.27,0,0,0-5.8-23.56,11.88,11.88,0,0,0-6.06-5.65,294,294,0,0,0-228.05,0,11.92,11.92,0,0,0-6.06,5.65,55.4,55.4,0,0,0-5.81,23.56c-.28,14.7,3.2,31,8,29.67h0a294,294,0,0,1,235.78,0Z"/><path class="cls-2" d="M2076.18,1578.84q.63-16.33,1.24-32.42"/><path class="cls-2" d="M2279.85,1637.65c15,426.63,33.9,961.82,33.9,961.82v.43a7.94,7.94,0,0,1-3.09,6.27c-17.38,13.41-65.59,46.11-134.91,46.16-69.51.06-117.86-32.46-135.24-45.84a7.92,7.92,0,0,1-3.1-6.28h0s19.94-526.13,36.54-962.56"/><path class="cls-2" d="M2276.63,1546.42q.49,14.08,1,28.39"/><path class="cls-2" d="M2079.66,1487.5c5.46-143.54,10.17-266.81,13.09-342.72h0c0-3.11,45.83-17,83-17.28,39.15-.34,86.75,12,86.75,17.28h0c1.82,52.06,6.36,181,12,341.71"/><path class="cls-2" d="M2102.59,1140.08v-20h0c0-1.94,40.61-14.53,73.16-14.78,34.12-.26,76.14,12.84,76.14,14.78h0v18.79"/><line class="cls-2" x1="2193.59" y1="1106.24" x2="2193.59" y2="1063.67"/><path class="cls-2" d="M2114.16,1115.29v-51.62h0c0-3.84,19.51-11.61,39.17-11.75,20.3-.16,40.26,8,40.26,11.75"/><path class="cls-1" d="M1134.88,1085.12a230.57,230.57,0,0,1,46.49,4.32,200.39,200.39,0,0,1,44.45,14.58c3.47,1.59,10.16.44,10.57-6.46.36-6.23-5.55-9.84-10.57-12.12h0a184.62,184.62,0,0,0-44.54-14.12c-17.5-3.18-34.09-4.73-46.4-4.32a267.23,267.23,0,0,0-46.39,4.32,184.62,184.62,0,0,0-44.54,14.12h0c-5,2.28-10.93,5.89-10.57,12.12.41,6.9,7.09,8,10.57,6.46a200.39,200.39,0,0,1,44.45-14.58A231.21,231.21,0,0,1,1134.88,1085.12Z"/><line class="cls-1" x1="1048.41" y1="1127.07" x2="1049.25" y2="1101.66"/><line class="cls-1" x1="1221.28" y1="1127.07" x2="1220.44" y2="1101.66"/><line class="cls-1" x1="1039" y1="1411.67" x2="1043.28" y2="1282.17"/><line class="cls-1" x1="1037.52" y1="1456.72" x2="1038.33" y2="1432.06"/><line class="cls-1" x1="1023.49" y1="1881.25" x2="1036.51" y2="1487.22"/><line class="cls-1" x1="1020.52" y1="1971" x2="1021.87" y2="1930.16"/><line class="cls-1" x1="1009.64" y1="2300.25" x2="1019.67" y2="1996.79"/><line class="cls-1" x1="1008.03" y1="2348.92" x2="1008.82" y2="2325"/><path class="cls-1" d="M1261.64,2372l2.45,76.36a16.19,16.19,0,0,1-8.77,14.89,263.22,263.22,0,0,1-241.81,0,16.18,16.18,0,0,1-8.77-14.9l2.53-76.35"/><line class="cls-1" x1="1260.13" y1="2325" x2="1260.9" y2="2348.92"/><line class="cls-1" x1="1249.56" y1="1995.75" x2="1259.34" y2="2300.25"/><line class="cls-1" x1="1247.48" y1="1931" x2="1248.77" y2="1971"/><line class="cls-1" x1="1238" y1="1635.65" x2="1245.9" y2="1881.66"/><line class="cls-1" x1="1226.68" y1="1282.99" x2="1233.82" y2="1505.33"/><path class="cls-1" d="M1049.91,1081.82l.94-28.57a11.55,11.55,0,0,1,6.6-10.09,181.05,181.05,0,0,1,155.25,0,11.59,11.59,0,0,1,6.6,10.1l1,29.73"/><path class="cls-1" d="M1220.86,1127.84c-10.57-3.61-25-8.13-36.17-10-19-3.18-36.94-4.73-50.27-4.33a313.22,313.22,0,0,0-50.27,4.33,212.53,212.53,0,0,0-42.6,11.79,9.49,9.49,0,0,0-6,8.33l-7.31,137.75a7.45,7.45,0,0,0,4.89,7.4h0a7.45,7.45,0,0,0,5.36-.11,230.07,230.07,0,0,1,45.54-13.48,295.75,295.75,0,0,1,100.73,0,230.38,230.38,0,0,1,45.81,13.59,7.43,7.43,0,0,0,4.88.27l1.8-.52a7.46,7.46,0,0,0,5.38-7.55l-7.28-136.13a9.49,9.49,0,0,0-6.23-8.42c-2.28-.82-5.1-1.83-8.28-2.92"/><circle class="cls-1" cx="1233.43" cy="1570.33" r="64"/><rect class="cls-1" x="1182.63" y="1400.61" width="21.11" height="97.11" rx="10.56"/><line class="cls-1" x1="1182.63" y1="1412.61" x2="898.76" y2="1412.61"/><line class="cls-1" x1="1182.63" y1="1432.06" x2="898.76" y2="1432.06"/><line class="cls-1" x1="1182.63" y1="1456.72" x2="898.76" y2="1456.72"/><line class="cls-1" x1="1182.63" y1="1485.72" x2="898.76" y2="1485.72"/><path class="cls-1" d="M660.42,1499.91c-7.7,0-13.62.81-20.17-2.42-7.59-3.73-10.5-9.77-10.5-14.55v-72.67c0-4.78,2.91-10.82,10.5-14.55,6.55-3.23,18.83-2.42,26.53-2.42"/><path class="cls-1" d="M2064.58,1901.64c-7.7,0-13.61.8-20.17-2.42-7.59-3.73-10.5-9.78-10.5-14.55V1812c0-4.78,2.91-10.83,10.5-14.56,6.56-3.22,18.84-2.41,26.54-2.41"/><path class="cls-1" d="M2058.8,2044.08c-6.25,0-11.05.81-16.37-2.41a17.18,17.18,0,0,1-8.52-14.56v-72.67a17.18,17.18,0,0,1,8.52-14.55c5.32-3.22,15.29-2.42,21.54-2.42"/><path class="cls-1" d="M2043.78,2534.53c-6.25,0-11,.8-16.37-2.42a17.19,17.19,0,0,1-8.53-14.55v-72.67a17.2,17.2,0,0,1,8.53-14.56c5.32-3.22,13.09-2.41,19.34-2.41"/><line class="cls-2" x1="496.41" y1="2604.33" x2="496.41" y2="1497.72"/><line class="cls-2" x1="537.75" y1="2604.33" x2="537.75" y2="1497.72"/><line class="cls-2" x1="627.25" y1="1425.67" x2="572.63" y2="1425.67"/><line class="cls-2" x1="627.25" y1="1464.11" x2="572.63" y2="1464.11"/><path class="cls-2" d="M496.41,1497.72c0-8.22,2-31.78,21.78-53.39,15.56-17,41.56-18.66,54.44-18.66"/><path class="cls-2" d="M537.75,1497.72a33.23,33.23,0,0,1,10.44-24.94c10.11-9.39,21.56-8.67,24.44-8.67"/><path class="cls-2" d="M496.41,2604.33c0,9.17,10,15,18.67,15.78,9.94.91,22.67-5.61,22.67-15.78"/><path class="cls-2" d="M1790.27,2624.36c0,9.18,10,15,18.67,15.79,9.94.91,22.66-5.61,22.66-15.79"/><path class="cls-2" d="M1386.91,1084h12.67a6.17,6.17,0,0,0,6.17-6.17V915.5a6.83,6.83,0,0,1,6.83-6.83h83a6.83,6.83,0,0,1,6.83,6.83v210.67a6.83,6.83,0,0,1-6.83,6.83H1386.91a6.83,6.83,0,0,1-6.83-6.83v-35.34A6.83,6.83,0,0,1,1386.91,1084Z"/><path class="cls-2" d="M1386.91,1482.83h12.67a6.17,6.17,0,0,0,6.17-6.17V1314.33a6.83,6.83,0,0,1,6.83-6.84h83a6.83,6.83,0,0,1,6.83,6.84V1525a6.83,6.83,0,0,1-6.83,6.84H1386.91a6.83,6.83,0,0,1-6.83-6.84v-35.33A6.83,6.83,0,0,1,1386.91,1482.83Z"/><path class="cls-2" d="M917.08,1881.66h482.5a6.17,6.17,0,0,0,6.17-6.17V1713.16a6.83,6.83,0,0,1,6.83-6.84h83a6.83,6.83,0,0,1,6.83,6.84v210.66a6.83,6.83,0,0,1-6.83,6.84H917.08"/><path class="cls-2" d="M1832.83,2593.56c28,.62,56.78.26,86.25-1.23a1193.17,1193.17,0,0,0,119.09-12"/><path class="cls-2" d="M2081.4,1441.68H1693.88a20.18,20.18,0,0,0-19.68,15.74h0a20.2,20.2,0,0,0,5.3,18.56c24.21,24.75,43.72,53.22,54.25,82.35C1861.49,1911.94,1590,2381.61,1502.88,2511a21.83,21.83,0,0,0,12,33.17,1244.92,1244.92,0,0,0,274.21,47.64"/><line class="cls-1" x1="2033.91" y1="2011.67" x2="1866.41" y2="2011.67"/><line class="cls-1" x1="2033.91" y1="1970.33" x2="1866.41" y2="1970.33"/><line class="cls-1" x1="1831.75" y1="2624.36" x2="1831.75" y2="2042.62"/><line class="cls-1" x1="1790.27" y1="2624.36" x2="1790.27" y2="2042.62"/><path class="cls-1" d="M1790.27,2042.62c0-9.4.83-39.63,17.7-55.18,20.37-18.77,51.11-17.11,58.44-17.11"/><path class="cls-1" d="M1831.75,2042.62c0-5.62.46-17.68,8.44-24.51,8.89-7.61,20.44-6.44,26.22-6.44"/><line class="cls-1" x1="2033.91" y1="1868.96" x2="1953.08" y2="1868.96"/><line class="cls-1" x1="2033.91" y1="1827.62" x2="1953.08" y2="1827.62"/><line class="cls-1" x1="1918.41" y1="1971.33" x2="1918.41" y2="1899.91"/><line class="cls-1" x1="1918.41" y1="2429.44" x2="1918.41" y2="2013.25"/><line class="cls-1" x1="1876.93" y1="1970.67" x2="1876.93" y2="1899.91"/><line class="cls-1" x1="1876.93" y1="2429.44" x2="1876.93" y2="2013.25"/><path class="cls-1" d="M1876.93,1899.91c0-9.4.83-39.63,17.7-55.18,20.37-18.77,51.11-17.11,58.45-17.11"/><path class="cls-1" d="M1918.41,1899.91c0-5.62.47-17.68,8.44-24.51,8.89-7.61,20.45-6.44,26.23-6.44"/><line class="cls-1" x1="2018.88" y1="2460.4" x2="1953.08" y2="2460.4"/><line class="cls-1" x1="2018.88" y1="2501.73" x2="1953.08" y2="2501.73"/><path class="cls-1" d="M1876.93,2429.44c0,9.4.83,39.63,17.7,55.18,20.37,18.78,51.11,17.11,58.45,17.11"/><path class="cls-1" d="M1918.41,2429.44c0,5.62.47,17.68,8.44,24.51,8.89,7.61,20.45,6.45,26.23,6.45"/><path class="cls-1" d="M1714.26,2072.93c-8.73-1.45-18-2.79-27.86-3.94a759.47,759.47,0,0,0-161.78,0,548,548,0,0,0-73.13,13.48c-1.74.42-5.08,1.65-6.63,0-1.16-1.25-.67-5.38-.67-7.44l1.44-41.17a9.38,9.38,0,0,1,2.89-6.89c3.82-3.61,9.9-4.88,12.15-5.33,18.25-4.48,36.93-7.93,64.11-10.77a801.47,801.47,0,0,1,80.73-4.32c21.41-.41,50.28,1.14,80.73,4.32,13.35,1.4,29.69,4.27,44.17,7.15"/><path class="cls-1" d="M1686.1,2153.68l-1.71-.2a759.38,759.38,0,0,0-161.77,0,547.89,547.89,0,0,0-73.14,13.48c-1.74.41-5.08,1.64-6.63,0-1.16-1.25-.67-5.39-.67-7.45l1.45-41.16a9.33,9.33,0,0,1,2.89-6.89c3.81-3.61,9.9-4.88,12.14-5.34,18.25-4.47,36.94-7.92,64.11-10.76a801.62,801.62,0,0,1,80.73-4.32c21.42-.41,50.29,1.14,80.74,4.32,6.68.7,14.12,1.77,21.7,3"/><path class="cls-2" d="M1462.66,909.67l.09-141.34c0-22.89,61.56-34.83,122-35.33,62.71-.52,124,17.66,124,35.33l13,673.35"/><line class="cls-2" x1="1462.43" y1="1307.49" x2="1462.53" y2="1134.11"/><line class="cls-2" x1="1462.19" y1="1706.32" x2="1462.29" y2="1531.83"/><line class="cls-2" x1="1462" y1="2020.5" x2="1462.06" y2="1930.66"/><line class="cls-2" x1="1461.95" y1="2106.5" x2="1461.97" y2="2081"/><path class="cls-2" d="M1532.21,2469.5a268.17,268.17,0,0,1-41-2.83c-12.09-1.85-29.5-4.84-29.5-15.34l.17-286.33"/><path class="cls-2" d="M1537.33,739.89V657.33c0-7.66,33.92-22.15,69.75-22.5,37.25-.35,72.11,13.34,72.11,22.5h0v89.34"/><path class="cls-2" d="M1497.07,743.1V623c0-3.64,16.11-10.52,33.12-10.68,17.68-.17,34.23,6.33,34.23,10.68h0v19.16"/><path class="cls-2" d="M2303.11,2297.73c22.13,4.78,48.11,7.37,83.16,8.6,52.41,1.85,87.76-4.43,111.9-12.08a6.32,6.32,0,0,1,8.24,6v44.46a6.33,6.33,0,0,1-4.31,6c-24.18,8.21-60.49,15.32-115.83,13.37-34-1.19-59.43-3.67-81.11-8.17"/><path class="cls-2" d="M2491.08,2355.5v194.69h0c0,15.25-61,26.53-114,24.66a236.11,236.11,0,0,1-64.6-11.4"/><path class="cls-2" d="M2291.45,1967a237.69,237.69,0,0,1,85.63-19.32c53-1.87,114,12.26,114,24.66h0v324"/><line class="cls-2" x1="2365.66" y1="1948.35" x2="2365.66" y2="1812"/><line class="cls-2" x1="2428.37" y1="1948.35" x2="2428.37" y2="1812"/><line class="cls-2" x1="2285.1" y1="1786.65" x2="2343.75" y2="1786.65"/><line class="cls-2" x1="2285.1" y1="1724.33" x2="2365.66" y2="1724.33"/><path class="cls-2" d="M2343.75,1786.65c1.33,0,11.69-1.3,17.44,5.79,5.22,6.45,4.47,15.45,4.47,19.56"/><path class="cls-2" d="M2365.66,1724.33c25.61,0,40,6.87,50.53,23.56,12.31,19.55,12.18,38.76,12.18,64.11"/><path class="cls-2" d="M2459.75,2363v47.33a11.34,11.34,0,0,1-11.34,11.34h0a11.34,11.34,0,0,1-11.33-11.34v-45.92"/><path class="cls-2" d="M2327.08,2363v47.33a11.34,11.34,0,0,1-11.33,11.34h0a11.28,11.28,0,0,1-8.4-3.73"/><line class="cls-2" x1="918.39" y1="1971" x2="1462.06" y2="1971"/><line class="cls-2" x1="918.39" y1="1995.75" x2="1462.06" y2="1995.75"/><line class="cls-2" x1="925.75" y1="2300.25" x2="1462.06" y2="2300.25"/><line class="cls-2" x1="925.75" y1="2325" x2="1462.06" y2="2325"/><line class="cls-2" x1="929.75" y1="2348.92" x2="1462.06" y2="2348.92"/><line class="cls-2" x1="929.75" y1="2373.67" x2="1462.06" y2="2373.67"/><path class="cls-1" d="M946.19,1412.61v-46.28c0-5.93,23.68-9.68,39.72-11.87,22.21-3,41.42.26,54.9,2.54"/><line class="cls-1" x1="946.19" y1="1457.67" x2="946.19" y2="1432.06"/><line class="cls-1" x1="946.19" y1="1881.25" x2="946.19" y2="1486.33"/><line class="cls-1" x1="946.19" y1="1971" x2="946.19" y2="1930.16"/><line class="cls-1" x1="946.19" y1="2300.25" x2="946.19" y2="1995.75"/><line class="cls-1" x1="946.19" y1="2348.92" x2="946.19" y2="2323.83"/><path class="cls-1" d="M1005.73,2418.5c-19.65,0-59.54-6.58-59.54-13.17v-31.66"/><line class="cls-1" x1="968.45" y1="1357.2" x2="968.45" y2="1325.17"/><path class="cls-1" d="M968.45,1325.67c0-9.84,18.81-11.79,36.13-12.17,18.5-.4,30.54,2.25,37.51,4.81"/><line class="cls-1" x1="894.1" y1="1280.83" x2="980.08" y2="1280.83"/><line class="cls-1" x1="894.1" y1="1262.33" x2="980.08" y2="1262.33"/><line class="cls-1" x1="991.91" y1="1313.46" x2="991.91" y2="1292.67"/><line class="cls-1" x1="1010.25" y1="1313.46" x2="1010.25" y2="1292.67"/><path class="cls-1" d="M980.08,1262.33c7.89,0,14.87.41,21.83,6.17,8.06,6.67,8.34,15.94,8.34,24.17"/><path class="cls-1" d="M980.08,1280.83c3.83,0,6.74.32,9.44,3s2.39,5.84,2.39,9.28"/><path class="cls-2" d="M1409.47,2373.08c6.31,12,12.44,23,18.28,33.25,8.88,14.45-98.09,25.71-164.55,14.09"/><path class="cls-2" d="M1385.57,2325q5.75,12.27,11.42,23.69"/><path class="cls-2" d="M1291.73,1998.58a1073.59,1073.59,0,0,0,82,300.28"/><path class="cls-2" d="M1285.77,1931q.43,7.61,1,15.33.87,12.47,2,24.67"/><path class="cls-2" d="M1238.47,1685c66.11,0,67.27,7.12,67.1,11.43a711.67,711.67,0,0,0-21.51,183.68"/><path class="cls-1" d="M1237.35,1176.16h10.19a10.21,10.21,0,0,1,10.21,10.2v324.76"/><path class="cls-1" d="M1236.4,1158.42H1252a23.12,23.12,0,0,1,23.12,23.12v340.2"/><path class="cls-3" d="M1089,1003.13c-22-17.75-45-61.3-37.54-104.15,11.6-66.25,57.44-77.57,58.92-81.2,2.48-6-11.3-74,33.83-121.76,52.13-55.15,122.8-21.38,129.08-23.51,5.32-1.81,67.43-43.81,104.18-10.1,47.33,43.43-31,128.5-34.1,133.62-4.95,8.15,20.59,61.06-10.89,106.23-40.83,58.61-98.5,43.72-103.49,50-5.41,6.85,3.39,23-5.33,37.3-6.67,10.91-18.13,15.93-25.78,18.39"/><path class="cls-3" d="M1542.75,556.33c-16.12-16.66-34.34-63.77-12-112,35.27-76.16,94.75-69,99-77,4-7.46-16-95.66,50-143,71.18-51.05,120.54-19.63,130-22,8.88-2.22,94.66-131.33,227-92,160.15,47.6,114.72,195.19,117,210,2.22,14.45,77.77,81.56,43.11,168.67-46.28,116.28-144.45,67.56-153.11,81.33-6.21,9.87,3.77,70.23-85,99-126.24,40.92-181.94-40.73-187-40-11.87,1.73-33.3,7-60,0-24.53-6.42-42.47-20.12-54-31"/><path class="cls-3" d="M1823.75,1393.15c-70-35.33-62.14-123.67-59-157,8.33-88.63,75.37-117.68,81-136,4.21-13.72-68.88-68.07-19.34-166.33,40-79.34,118.87-56.18,126.34-62.67,7.66-6.67-11-114,102.68-151.44,112.49-37,150.26,51.72,162.32,53.44,9.33,1.33,96.66-54.67,181,9,88.81,67.05,28.33,177.67,30,189,2.23,15.2,69.41,87.14,38.57,164.67-30.24,76-121.41,70.66-126.57,78.33-2.78,4.12,0,62.33-30,94-13.42,14.17-26.4,24.52-39.67,30.41"/></g><g id="Shadows" class="cls-4"><ellipse class="cls-5" cx="1509.75" cy="2822.69" rx="877" ry="92"/><path class="cls-5" d="M627.88,2443.67c-4.13,80.65,67.24,147,155.2,145.9,86.59-1.07,153.68-67.45,150.37-145.9l7,166.82-46.36,23.41-88.38,18.43-70.65-2.87-86-18.6-28.41-20.37Z"/><path class="cls-5" d="M2044.38,2445c-3.57,80.16,57.94,146.08,133.73,145,74.61-1.06,132.42-67,129.57-145l6.07,165.8L2273.8,2634l-76.16,18.32-60.87-2.85L2062.64,2631l-24.47-20.24Z"/><path class="cls-5" d="M1529.57,2468l-45.82-2.36-24.92-14.53,6.21-95.87c-2.77,62.34,33.82,73.78,85.87,75.27"/><path class="cls-5" d="M2313.36,2563.73l68.28,11.33,76.16-10.42,33.28-13.23.6-94.26c2.85,44.33-55,81.84-129.57,82.44a213,213,0,0,1-49.63-5.31Z"/><path class="cls-5" d="M1260.41,2373.08l2.79,81.12L1224.58,2476l-70.74,22.32-56.54-3.48-68.84-22.52-22.73-24.67,2.11-74,39.52-.59c22.57,31,53.86,49.9,88.34,49.26,33.22-.62,62.84-19.41,84.4-49.26Z"/><path class="cls-5" d="M498.75,2443.67c5.12,109-.56,132.57,17.32,132.57,23.66,0,10.82-23.1,21.68-132.57v165L523.4,2619.3l-18.73-2.51-8.26-7.12Z"/><path class="cls-5" d="M1792.6,2464.6c5.12,109-.55,132.57,17.32,132.57,23.67,0,10.82-23.1,21.68-132.57v165l-14.34,10.63-18.73-2.5-8.26-7.13Z"/><path class="cls-5" d="M2370.25,1834.33c0,51,.09,77.11,24.38,77.11,32.16,0,28.62-20.1,28.62-77.11l6.05,111.78-25.54,2.24-25.45-2.44-12.65-.91Z"/><path class="cls-5" d="M2119.64,1053.56c0,25.52.12,38.56,31.06,38.56,41,0,36.44-10,36.44-38.56l7.72,55.89-32.54,1.12-32.42-1.22-16.1-.45Z"/><path class="cls-5" d="M1538.8,674.58c0,25.51,33.83,38.55,63.91,38.55,29.92,0,76.48-10,76.48-38.55v67.31l-56.36-10.3-56.14-1.22-27.89-.46Z"/><path class="cls-5" d="M971,1323.25c0,12.76,16.92,19.28,32,19.28s38.23-5,38.23-19.28v33.66l-28.17-5.15-28.07-.61-13.95-.23Z"/><path class="cls-5" d="M1535.84,734l-25,5.08-12.5,2.78,3.5-92.45c0,58.34,9.33,69.34,28.89,69a22.49,22.49,0,0,0,4.68-.57"/><path class="cls-5" d="M1173.06,1559.85c0,27.9,37.28,42.73,59.2,42.73,23.28,0,61.92-21,61.92-43,0-9.81,2.35,39.87-17.17,59.06-25.8,25.35-73,20.17-94.24-8.29C1169.33,1592.35,1173.06,1550.71,1173.06,1559.85Z"/><path class="cls-5" d="M631.52,1456.67c4,13.11,8.23,19.22,14.89,19.22,6.23,0,11-20.07,12.34-55.67l5.11,35.78-4.23,44.89H641.75l-14-14.67Z"/><path class="cls-5" d="M2035.84,1854.49c3.67,13.11,7.55,19.22,13.66,19.22,5.71,0,10.1-20.07,11.31-55.67l4.69,35.78-3.87,44.89h-16.41L2032.38,1884Z"/><path class="cls-5" d="M2035.41,1996.06c3.22,13.11,6.62,19.22,12,19.22,5,0,8.85-20.06,9.91-55.66l4.11,35.78-3.39,44.88h-14.39l-11.25-14.66Z"/><path class="cls-5" d="M2021.25,2486.66c2.5,13.11,5.14,19.22,9.31,19.22,3.89,0,6.89-20.07,7.71-55.67l3.2,35.78-2.64,44.89h-11.19l-8.76-14.67Z"/><path class="cls-5" d="M2308.28,2386.39c2.5,10.22,5.15,15,9.31,15,3.9,0,6.89-15.63,7.72-43.37l3.19,27.87-2.64,35h-11.18l-8.76-11.43Z"/><path class="cls-5" d="M2457.34,2385.73c-2.5,10.21-5.14,15-9.31,15-3.89,0-9-6.13-9.78-33.87l-1.13,18.38,2.64,35H2451l8.75-11.43Z"/><path class="cls-5" d="M1478.63,1908.65c4.64,0,8.22-.4,10.34-1.23,9.17-3.61,15.19-14.06,15.78-26.55l2.11,36.44-5.95,12.1L918,1928.92v-20.27Z"/><path class="cls-5" d="M1381.41,1508.86h89.52c4.64,0,8.22-.4,10.33-1.23,9.17-3.61,15.19-14.06,15.78-26.56l2.11,36.45.76,12.1-118-.1"/><path class="cls-5" d="M1381.41,1108.16h89.52c4.64,0,8.22-.39,10.33-1.23,9.17-3.61,15.19-14.06,15.78-26.55l2.11,36.44.76,12.1-118-.09"/><path class="cls-5" d="M1435.91,1983.21a49.37,49.37,0,0,0,9.54-.66c8.46-1.93,14-7.52,14.55-14.2l2,19.49-5.48,6.47-537.79-.26v-10.84Z"/><path class="cls-5" d="M1436.38,2361.39a46.68,46.68,0,0,0,9.36-.66c8.31-1.93,13.77-7.52,14.3-14.2L1462,2366l-5.38,6.47-528.16-.26v-10.84Z"/><path class="cls-5" d="M1436.38,2312.73a46.68,46.68,0,0,0,9.36-.66c8.31-1.93,13.77-7.52,14.3-14.2l1.91,19.49-5.38,6.47-528.16-.26v-10.84Z"/><path class="cls-5" d="M1165.41,1473.41a13.72,13.72,0,0,0,5-.66c4.4-1.93,7.29-7.52,7.57-14.2l1,19.49-2.85,6.47-279.69-.27v-10.83Z"/><path class="cls-5" d="M1165.41,1421.87a13.72,13.72,0,0,0,5-.66c4.4-1.93,7.29-7.52,7.57-14.2l1,19.49-2.85,6.47-279.69-.27v-10.83Z"/><path class="cls-5" d="M2053,1542c1.73-21.7,66.54-37.31,118.57-37.31,82.83,0,129.12,21.22,129.12,41.91,0,4.26-2.79,9.16-4.45,8.59-25.5-8.75-60.52-25.07-121.84-26-59.62-.91-99.5,18.16-118.6,21.7C2055.26,1551,2052.62,1546.79,2053,1542Z"/><path class="cls-5" d="M2053,1630.65c1.73-21.7,66.54-37.32,118.57-37.32,82.83,0,129.12,21.23,129.12,41.92,0,4.26-2.79,9.15-4.45,8.58-25.5-8.74-60.52-25.07-121.84-26-59.62-.9-99.5,18.17-118.6,21.71C2055.26,1639.64,2052.62,1635.46,2053,1630.65Z"/><path class="cls-5" d="M1441.08,2151c18.67-12.89,83.78-24,139.33-24,46.7,0,83.9.31,113,6.95l-7.34,19.73-124.58-3.79-118.67,17Z"/><path class="cls-5" d="M1441.08,2067.85c20.91-12.88,93.84-26.44,156.06-26.44,52.31,0,93.09,2.41,125.73,9.06l-7.35,17.62L1576,2064.3l-132.93,17Z"/><path class="cls-5" d="M1241.85,1260.33c-16.32-10.58-50.61-27.94-106.11-28.89-47.5-.81-88.89,17.13-106.1,26v16.45l3.73,6.94,111-17.16,90.67,18.5,7.58-3.17Z"/><path class="cls-5" d="M905.3,1201.44a271.69,271.69,0,0,0-248.44-.88L662,1207l97.78-25.8,45.79,2.11,91.76,21.8Z"/><path class="cls-5" d="M905.3,1140.85a271.73,271.73,0,0,0-248.44-.89l5.11,6.45,97.78-25.8,45.79,2.12,91.76,21.8Z"/><path class="cls-5" d="M1234.43,1097.75a234.22,234.22,0,0,0-198-.65l4.07,4.71,77.91-18.83,36.48,1.54,73.11,15.91Z"/><path class="cls-5" d="M905.3,1080.26a271.65,271.65,0,0,0-248.44-.89l5.11,6.45,97.78-25.8,45.79,2.11,91.76,21.8Z"/><path class="cls-5" d="M2032.38,1995.67H1854c-.56,0-9.67.77-16.22,6.11a27,27,0,0,0-8,30.55l13.44-20.73,189.19.07v-16"/><path class="cls-5" d="M2031.52,1852.18h-90.44c-.55,0-9.67.78-16.22,6.11a27,27,0,0,0-8,30.56l13.44-20.74,101.22,0"/><path class="cls-5" d="M2285.1,1766.84h60.83c.55,0,9.67.77,16.22,6.11a27,27,0,0,1,8,30.55l-13.44-20.73-71.61,0"/><path class="cls-5" d="M624.65,1447.94H563.82c-.55,0-9.66.78-16.22,6.12a27,27,0,0,0-8,30.55L553,1463.88l71.61,0"/><path class="cls-5" d="M2018.88,2499.56h-90.44a33.21,33.21,0,0,1-13.92-4.48l-19.82-10.4L1881.3,2464l.56-27.56c2,7.21,2.62,18.28,13.55,30.34,2.59,2.85,21.11,14.44,35.61,14.44,7.45,0,86.93.21,86.93.21"/><path class="cls-5" d="M1831.75,2591l139.33-2.48,67.09-8.26,2.44-34.88c-70.84,13.56-142.33,17.77-208.25,16.83"/><path class="cls-5" d="M1790.52,2561c-130.94-6.14-232.22-30.48-248.61-35.63-6.55-2.06-13.83-6.5-17-11.83-2.63-4.44-1.82-9.52-1.16-14.5,1-7.58,6.66-20.67,15.94-46l-40.33,67.07,5.51,17.86,69.14,23.94,215.09,29.91"/><path class="cls-5" d="M2301.53,2330.17c14.5,9.33,34.88,17.83,92.72,17.83,68.66,0,89.66-8.83,112.16-23l-.36,21.82-8.8,7-130.84,11.5-65.11-8.67Z"/><path class="cls-5" d="M866.91,878.5a218.35,218.35,0,0,0-174.16-.5v11.83l66.33-16.5,63.59,3.91,42.73,12.59Z"/><path class="cls-5" d="M840.58,749c-.08,19.75,2.76,33.64,5.08,34.06s5.85-12.91,6.25-33.8l2.92,60-1.25,51.43-16.92-6.86Z"/><path class="cls-5" d="M1188,1455.44c-.08,7.79,2.77,13.26,5.09,13.42s5.85-5.08,6.25-13.31l2.91,23.64-1.25,20.26-16.91-2.7Z"/><path class="cls-5" d="M1261.66,1407c-.08,19.32,2.77,32.91,5.09,33.32s5.85-12.64,6.25-33.07l2.91,58.7-1.25,50.32-16.91-6.71Z"/><path class="cls-5" d="M999.58,1313.64V1284.5c0-4.89-4.42-8.13-5.17-8.78-2.73-2.34-8.89-3.39-11.33-3.39-9.53,0-43.39-.84-89.28,0l1.83,9.84h91.12l5.16,8.61v22.68Z"/><path class="cls-5" d="M1201.52,1009.89c-10.5,5.44-13.12-6.47-12.22-10.45,1.72-7.55,3.11-8.27,17.33-15.55,11.91-6.1-2.54-46.75,6.12-55.56,6.33-6.44,51.61-.39,89.22-38,33.89-33.89,9.61-92,13.55-103.33s24.89-15.33,50.06-50.83c9.91-14,23.67-37.5,19.67-62.84l8.51,42.12L1343,796.76l3.74,70.85-25.17,48.19-46.17,28.53-45.66,7.34-3.85,33.17Z"/><path class="cls-5" d="M1657.75,598.33c-10.83-6.23-13.88-14.58-11.67-21.83a18.69,18.69,0,0,1,15.67-12.83c18.83-1.5,14,24.9,51.33,31.33,40.67,7,58.07-17,70-13.56,10.5,3.06,62.6,80.59,145.78,57.78,89.55-24.55,81.22-101,92.55-108.22,12-7.64,78.86,1.46,121.22-25.56,30.67-19.55,54.67-58.22,38.23-138.12l25.08,53.24-8.17,66.06-36.85,57-51.81,24.05-63.81,2.2-16.45,49.26-39.2,37-75.49,23.27-73.3-4.81-68.45-46L1720,634.83Z"/><path class="cls-5" d="M2454,1015.32c1.5,6.19,24.09,77.68-34.91,133-56.36,52.86-98.46,27.52-105.76,35.41-7.13,7.7,12.43,70.93-26.46,100.93-8.37,6.45-15.29,3.79-18.54,3.67l4.43,51.33,41.11-28.23,24-61.55,5.55-37.33,77.34-20.23,39.55-40.71,15.88-52.62-7.21-60.67Z"/><polygon class="cls-5" points="1260.41 2373.08 1409.47 2373.08 1428.27 2408 1389.08 2423.33 1263.19 2420.41 1260.41 2373.08"/><polygon class="cls-5" points="946.19 2373.67 1008.03 2378.33 1005.73 2416.33 965.15 2413.67 943.41 2404.67 946.19 2373.67"/></g></svg>