<svg xmlns="http://www.w3.org/2000/svg" viewBox="0 0 3000 3000"><defs><style>.cls-1,.cls-2,.cls-3{fill:none;stroke:#355963;}.cls-1,.cls-2,.cls-3,.cls-7{stroke-miterlimit:10;}.cls-1,.cls-3{stroke-width:10px;}.cls-2,.cls-7{stroke-width:10px;}.cls-3{stroke-linecap:round;}.cls-4{opacity:0.3;}.cls-5{fill:#355a63;}.cls-6,.cls-7{fill:#355963;}.cls-7{stroke:#355a63;}</style></defs><g id="Lines"><path class="cls-1" d="M779.33,1061.23a289.88,289.88,0,0,1,58.45,5.44A252.1,252.1,0,0,1,893.67,1085c4.37,2,12.78.55,13.29-8.13.46-7.83-7-12.37-13.29-15.23h0a231.87,231.87,0,0,0-56-17.75c-22-4-42.86-6-58.34-5.44a335.92,335.92,0,0,0-58.33,5.44,231.87,231.87,0,0,0-56,17.75h0c-6.32,2.86-13.75,7.4-13.29,15.23.51,8.68,8.92,10.13,13.29,8.13a252.1,252.1,0,0,1,55.89-18.33A290.7,290.7,0,0,1,779.33,1061.23Z"/><path class="cls-1" d="M779.33,1121.85a289.15,289.15,0,0,1,58.45,5.44,252.1,252.1,0,0,1,55.89,18.33c4.37,2,12.78.55,13.29-8.13.46-7.83-7-12.37-13.29-15.23h0a231.87,231.87,0,0,0-56-17.75c-22-4-42.86-6-58.34-5.44a335.92,335.92,0,0,0-58.33,5.44,231.87,231.87,0,0,0-56,17.75h0c-6.32,2.86-13.75,7.4-13.29,15.23.51,8.68,8.92,10.13,13.29,8.13a252.1,252.1,0,0,1,55.89-18.33A290,290,0,0,1,779.33,1121.85Z"/><path class="cls-1" d="M779.33,1182.47a289.77,289.77,0,0,1,58.45,5.43,252.06,252.06,0,0,1,55.89,18.34c4.37,2,12.78.55,13.29-8.13.46-7.83-7-12.37-13.29-15.23h0a231.43,231.43,0,0,0-56-17.75c-22-4-42.86-6-58.34-5.44a335.92,335.92,0,0,0-58.33,5.44,231.43,231.43,0,0,0-56,17.75h0c-6.32,2.86-13.75,7.4-13.29,15.23.51,8.68,8.92,10.13,13.29,8.13a252.06,252.06,0,0,1,55.89-18.34A290.59,290.59,0,0,1,779.33,1182.47Z"/><path class="cls-1" d="M691.33,891.13v-21a6.12,6.12,0,0,1,3.6-5.57,204.24,204.24,0,0,1,167,0,6.12,6.12,0,0,1,3.6,5.57v20.37"/><line class="cls-1" x1="672.75" y1="1119.89" x2="674.12" y2="1082.11"/><line class="cls-1" x1="670.53" y1="1181.11" x2="671.89" y2="1143.67"/><path class="cls-1" d="M890,1205.12l49.05,1393.59a12.75,12.75,0,0,1-6.22,11.42,300.93,300.93,0,0,1-307.36,0,12.74,12.74,0,0,1-6.22-11.43l50.42-1394.16"/><line class="cls-1" x1="887.87" y1="1143.89" x2="889.18" y2="1181.21"/><line class="cls-1" x1="885.71" y1="1082.67" x2="886.98" y2="1118.77"/><path class="cls-1" d="M675,1056.45l5.61-155a8.38,8.38,0,0,1,4.86-7.31,223.8,223.8,0,0,1,189,.32,8.42,8.42,0,0,1,4.84,7.31l5.46,155.15"/><line class="cls-1" x1="835.76" y1="854.9" x2="835.76" y2="623.67"/><line class="cls-1" x1="852.77" y1="860.69" x2="852.77" y2="623.67"/><path class="cls-1" d="M835.76,623.67c0-5.88,3.28-10.56,8.91-10.56,5,0,8.1,5,8.1,10.78"/><path class="cls-2" d="M2293.89,1553.56c4.81,1.34,8.28-15,8-29.67a55.38,55.38,0,0,0-5.8-23.56,11.86,11.86,0,0,0-6.07-5.65,294,294,0,0,0-228.05,0,11.84,11.84,0,0,0-6.06,5.65,55.38,55.38,0,0,0-5.8,23.56c-.28,14.7,3.19,31,8,29.67h0a294,294,0,0,1,235.78,0Z"/><path class="cls-2" d="M2293.89,1641.43c4.81,1.34,8.28-15,8-29.67a55.42,55.42,0,0,0-5.8-23.56,11.9,11.9,0,0,0-6.07-5.65,294,294,0,0,0-228.05,0,11.92,11.92,0,0,0-6.06,5.65,55.42,55.42,0,0,0-5.8,23.56c-.28,14.7,3.19,31,8,29.67h0a294,294,0,0,1,235.78,0Z"/><path class="cls-2" d="M2074.77,1578.84q.61-16.33,1.23-32.42"/><path class="cls-2" d="M2278.43,1637.65c15,426.63,33.9,961.82,33.9,961.82v.43a7.92,7.92,0,0,1-3.09,6.27c-17.37,13.41-65.58,46.11-134.91,46.16-69.5.06-117.85-32.46-135.23-45.84a7.92,7.92,0,0,1-3.1-6.28h0s19.94-526.13,36.53-962.56"/><path class="cls-2" d="M2275.22,1546.42q.5,14.08,1,28.39"/><path class="cls-2" d="M2078.25,1487.5c5.46-143.54,10.16-266.81,13.08-342.72h0c0-3.11,45.83-17,83-17.28,39.16-.34,86.75,12,86.75,17.28h0c1.83,52.06,6.37,181,12,341.71"/><path class="cls-2" d="M2101.18,1140.08v-20h0c0-1.94,40.6-14.53,73.15-14.78,34.12-.26,76.15,12.84,76.15,14.78h0v18.79"/><line class="cls-2" x1="2192.18" y1="1106.24" x2="2192.18" y2="1063.67"/><path class="cls-2" d="M2112.75,1115.29v-51.62h0c0-3.84,19.51-11.61,39.17-11.75,20.3-.16,40.26,8,40.26,11.75"/><path class="cls-1" d="M1133.47,1085.12a230.42,230.42,0,0,1,46.48,4.32A200,200,0,0,1,1224.4,1104c3.48,1.59,10.17.44,10.57-6.46.37-6.23-5.54-9.84-10.57-12.12h0a184.38,184.38,0,0,0-44.53-14.12c-17.5-3.18-34.09-4.73-46.4-4.32a267.23,267.23,0,0,0-46.39,4.32,184.47,184.47,0,0,0-44.54,14.12h0c-5,2.28-10.93,5.89-10.57,12.12.4,6.9,7.09,8,10.57,6.46a200.39,200.39,0,0,1,44.45-14.58A231.15,231.15,0,0,1,1133.47,1085.12Z"/><line class="cls-1" x1="1047" y1="1127.07" x2="1047.84" y2="1101.66"/><line class="cls-1" x1="1219.87" y1="1127.07" x2="1219.03" y2="1101.66"/><line class="cls-1" x1="1037.59" y1="1411.67" x2="1041.87" y2="1282.17"/><line class="cls-1" x1="1036.1" y1="1456.72" x2="1036.92" y2="1432.06"/><line class="cls-1" x1="1022.07" y1="1881.25" x2="1035.1" y2="1487.22"/><line class="cls-1" x1="1019.11" y1="1971" x2="1020.46" y2="1930.16"/><line class="cls-1" x1="1008.22" y1="2300.25" x2="1018.25" y2="1996.79"/><line class="cls-1" x1="1006.62" y1="2348.92" x2="1007.41" y2="2325"/><path class="cls-1" d="M1260.23,2372l2.45,76.36a16.19,16.19,0,0,1-8.77,14.89,263.22,263.22,0,0,1-241.81,0,16.14,16.14,0,0,1-8.77-14.9l2.52-76.35"/><line class="cls-1" x1="1258.72" y1="2325" x2="1259.49" y2="2348.92"/><line class="cls-1" x1="1248.15" y1="1995.75" x2="1257.92" y2="2300.25"/><line class="cls-1" x1="1246.07" y1="1931" x2="1247.35" y2="1971"/><line class="cls-1" x1="1236.59" y1="1635.65" x2="1244.49" y2="1881.66"/><line class="cls-1" x1="1225.26" y1="1282.99" x2="1232.4" y2="1505.33"/><path class="cls-1" d="M1048.49,1081.82l1-28.57a11.55,11.55,0,0,1,6.6-10.09,181.05,181.05,0,0,1,155.25,0,11.59,11.59,0,0,1,6.6,10.1l.95,29.73"/><path class="cls-1" d="M1219.45,1127.84c-10.57-3.61-25-8.13-36.18-10-19-3.18-36.93-4.73-50.27-4.33a313.31,313.31,0,0,0-50.27,4.33,212.42,212.42,0,0,0-42.59,11.79,9.46,9.46,0,0,0-6,8.33l-7.31,137.75a7.44,7.44,0,0,0,4.89,7.4h0a7.45,7.45,0,0,0,5.36-.11,229.86,229.86,0,0,1,45.54-13.48,295.75,295.75,0,0,1,100.73,0,230.38,230.38,0,0,1,45.81,13.59,7.4,7.4,0,0,0,4.87.27l1.8-.52a7.43,7.43,0,0,0,5.38-7.55L1234,1139.18a9.49,9.49,0,0,0-6.23-8.42c-2.28-.82-5.1-1.83-8.28-2.92"/><circle class="cls-1" cx="1232.02" cy="1570.33" r="64"/><rect class="cls-1" x="1181.22" y="1400.61" width="21.11" height="97.11" rx="10.56"/><line class="cls-1" x1="1181.22" y1="1412.61" x2="897.35" y2="1412.61"/><line class="cls-1" x1="1181.22" y1="1432.06" x2="897.35" y2="1432.06"/><line class="cls-1" x1="1181.22" y1="1456.72" x2="897.35" y2="1456.72"/><line class="cls-1" x1="1181.22" y1="1485.72" x2="897.35" y2="1485.72"/><path class="cls-1" d="M659,1499.91c-7.7,0-13.61.81-20.17-2.42-7.59-3.73-10.5-9.77-10.5-14.55v-72.67c0-4.78,2.91-10.82,10.5-14.55,6.56-3.23,18.84-2.42,26.54-2.42"/><path class="cls-1" d="M2063.17,1901.64c-7.7,0-13.61.8-20.17-2.42-7.59-3.73-10.5-9.78-10.5-14.55V1812c0-4.78,2.91-10.83,10.5-14.56,6.56-3.22,18.83-2.41,26.53-2.41"/><path class="cls-1" d="M2057.39,2044.08c-6.25,0-11,.81-16.37-2.41a17.18,17.18,0,0,1-8.52-14.56v-72.67a17.18,17.18,0,0,1,8.52-14.55c5.32-3.22,15.29-2.42,21.54-2.42"/><path class="cls-1" d="M2042.36,2534.53c-6.25,0-11,.8-16.37-2.42a17.18,17.18,0,0,1-8.52-14.55v-72.67a17.18,17.18,0,0,1,8.52-14.56c5.32-3.22,13.09-2.41,19.34-2.41"/><line class="cls-2" x1="495" y1="2604.33" x2="495" y2="1497.72"/><line class="cls-2" x1="536.33" y1="2604.33" x2="536.33" y2="1497.72"/><line class="cls-2" x1="625.83" y1="1425.67" x2="571.22" y2="1425.67"/><line class="cls-2" x1="625.83" y1="1464.11" x2="571.22" y2="1464.11"/><path class="cls-2" d="M495,1497.72c0-8.22,2-31.78,21.78-53.39,15.55-17,41.55-18.66,54.44-18.66"/><path class="cls-2" d="M536.33,1497.72a33.21,33.21,0,0,1,10.45-24.94c10.11-9.39,21.55-8.67,24.44-8.67"/><path class="cls-2" d="M495,2604.33c0,9.17,10,15,18.67,15.78,9.94.91,22.66-5.61,22.66-15.78"/><path class="cls-2" d="M1788.86,2624.36c0,9.18,10,15,18.66,15.79,9.94.91,22.67-5.61,22.67-15.79"/><path class="cls-2" d="M1385.5,1084h12.67a6.16,6.16,0,0,0,6.16-6.17V915.5a6.83,6.83,0,0,1,6.84-6.83h83a6.83,6.83,0,0,1,6.83,6.83v210.67a6.83,6.83,0,0,1-6.83,6.83H1385.5a6.83,6.83,0,0,1-6.83-6.83v-35.34A6.83,6.83,0,0,1,1385.5,1084Z"/><path class="cls-2" d="M1385.5,1482.83h12.67a6.16,6.16,0,0,0,6.16-6.17V1314.33a6.84,6.84,0,0,1,6.84-6.84h83a6.83,6.83,0,0,1,6.83,6.84V1525a6.83,6.83,0,0,1-6.83,6.84H1385.5a6.83,6.83,0,0,1-6.83-6.84v-35.33A6.83,6.83,0,0,1,1385.5,1482.83Z"/><path class="cls-2" d="M915.67,1881.66h482.5a6.16,6.16,0,0,0,6.16-6.17V1713.16a6.84,6.84,0,0,1,6.84-6.84h83a6.83,6.83,0,0,1,6.83,6.84v210.66a6.83,6.83,0,0,1-6.83,6.84H915.67"/><path class="cls-2" d="M1831.42,2593.56c28,.62,56.78.26,86.25-1.23a1193,1193,0,0,0,119.08-12"/><path class="cls-2" d="M2080,1441.68H1692.47a20.17,20.17,0,0,0-19.68,15.74h0a20.22,20.22,0,0,0,5.29,18.56c24.21,24.75,43.73,53.22,54.25,82.35,127.75,353.61-143.7,823.28-230.87,952.66a21.84,21.84,0,0,0,12,33.17,1244.93,1244.93,0,0,0,274.2,47.64"/><line class="cls-1" x1="2032.5" y1="2011.67" x2="1865" y2="2011.67"/><line class="cls-1" x1="2032.5" y1="1970.33" x2="1865" y2="1970.33"/><line class="cls-1" x1="1830.33" y1="2624.36" x2="1830.33" y2="2042.62"/><line class="cls-1" x1="1788.86" y1="2624.36" x2="1788.86" y2="2042.62"/><path class="cls-1" d="M1788.86,2042.62c0-9.4.83-39.63,17.7-55.18,20.37-18.77,51.11-17.11,58.44-17.11"/><path class="cls-1" d="M1830.33,2042.62c0-5.62.47-17.68,8.45-24.51,8.89-7.61,20.44-6.44,26.22-6.44"/><line class="cls-1" x1="2032.5" y1="1868.96" x2="1951.66" y2="1868.96"/><line class="cls-1" x1="2032.5" y1="1827.62" x2="1951.66" y2="1827.62"/><line class="cls-1" x1="1917" y1="1971.33" x2="1917" y2="1899.91"/><line class="cls-1" x1="1917" y1="2429.44" x2="1917" y2="2013.25"/><line class="cls-1" x1="1875.52" y1="1970.67" x2="1875.52" y2="1899.91"/><line class="cls-1" x1="1875.52" y1="2429.44" x2="1875.52" y2="2013.25"/><path class="cls-1" d="M1875.52,1899.91c0-9.4.83-39.63,17.7-55.18,20.37-18.77,51.11-17.11,58.44-17.11"/><path class="cls-1" d="M1917,1899.91c0-5.62.46-17.68,8.44-24.51,8.89-7.61,20.45-6.44,26.22-6.44"/><line class="cls-1" x1="2017.47" y1="2460.4" x2="1951.66" y2="2460.4"/><line class="cls-1" x1="2017.47" y1="2501.73" x2="1951.66" y2="2501.73"/><path class="cls-1" d="M1875.52,2429.44c0,9.4.83,39.63,17.7,55.18,20.37,18.78,51.11,17.11,58.44,17.11"/><path class="cls-1" d="M1917,2429.44c0,5.62.46,17.68,8.44,24.51,8.89,7.61,20.45,6.45,26.22,6.45"/><path class="cls-1" d="M1712.84,2072.93c-8.72-1.45-18-2.79-27.86-3.94a759.38,759.38,0,0,0-161.77,0,548,548,0,0,0-73.13,13.48c-1.75.42-5.08,1.65-6.64,0-1.16-1.25-.66-5.38-.66-7.44l1.44-41.17a9.38,9.38,0,0,1,2.89-6.89c3.81-3.61,9.9-4.88,12.15-5.33,18.25-4.48,36.93-7.93,64.11-10.77a801.33,801.33,0,0,1,80.73-4.32c21.41-.41,50.28,1.14,80.73,4.32,13.35,1.4,29.68,4.27,44.17,7.15"/><path class="cls-1" d="M1684.68,2153.68l-1.7-.2a759.38,759.38,0,0,0-161.77,0,547.89,547.89,0,0,0-73.14,13.48c-1.74.41-5.08,1.64-6.63,0-1.16-1.25-.67-5.39-.67-7.45l1.45-41.16a9.31,9.31,0,0,1,2.88-6.89c3.82-3.61,9.91-4.88,12.15-5.34,18.25-4.47,36.93-7.92,64.11-10.76a801.47,801.47,0,0,1,80.73-4.32c21.42-.41,50.29,1.14,80.73,4.32,6.69.7,14.13,1.77,21.71,3"/><path class="cls-2" d="M1461.25,909.67l.08-141.34c0-22.89,61.57-34.83,122-35.33,62.72-.52,124,17.66,124,35.33l13,673.35"/><line class="cls-2" x1="1461.01" y1="1307.49" x2="1461.12" y2="1134.11"/><line class="cls-2" x1="1460.78" y1="1706.32" x2="1460.88" y2="1531.83"/><line class="cls-2" x1="1460.59" y1="2020.5" x2="1460.64" y2="1930.66"/><line class="cls-2" x1="1460.54" y1="2106.5" x2="1460.55" y2="2081"/><path class="cls-2" d="M1530.8,2469.5a268.34,268.34,0,0,1-41-2.83c-12.09-1.85-29.5-4.84-29.5-15.34l.17-286.33"/><path class="cls-2" d="M1535.92,739.89V657.33c0-7.66,33.92-22.15,69.75-22.5,37.25-.35,72.1,13.34,72.1,22.5h0v89.34"/><path class="cls-2" d="M1495.66,743.1V623c0-3.64,16.1-10.52,33.11-10.68,17.69-.17,34.24,6.33,34.24,10.68h0v19.16"/><path class="cls-2" d="M2301.7,2297.73c22.13,4.78,48.11,7.37,83.16,8.6,52.41,1.85,87.76-4.43,111.9-12.08a6.32,6.32,0,0,1,8.24,6v44.46a6.33,6.33,0,0,1-4.31,6c-24.18,8.21-60.5,15.32-115.83,13.37-34-1.19-59.43-3.67-81.11-8.17"/><path class="cls-2" d="M2489.67,2355.5v194.69h0c0,15.25-61,26.53-114,24.66a236.26,236.26,0,0,1-64.61-11.4"/><path class="cls-2" d="M2290,1967a237.64,237.64,0,0,1,85.63-19.32c53-1.87,114,12.26,114,24.66h0v324"/><line class="cls-2" x1="2364.25" y1="1948.35" x2="2364.25" y2="1812"/><line class="cls-2" x1="2426.96" y1="1948.35" x2="2426.96" y2="1812"/><line class="cls-2" x1="2283.68" y1="1786.65" x2="2342.33" y2="1786.65"/><line class="cls-2" x1="2283.68" y1="1724.33" x2="2364.25" y2="1724.33"/><path class="cls-2" d="M2342.33,1786.65c1.34,0,11.7-1.3,17.45,5.79,5.22,6.45,4.47,15.45,4.47,19.56"/><path class="cls-2" d="M2364.25,1724.33c25.6,0,40,6.87,50.53,23.56,12.31,19.55,12.18,38.76,12.18,64.11"/><path class="cls-2" d="M2458.33,2363v47.33a11.34,11.34,0,0,1-11.33,11.34h0a11.34,11.34,0,0,1-11.33-11.34v-45.92"/><path class="cls-2" d="M2325.67,2363v47.33a11.34,11.34,0,0,1-11.34,11.34h0a11.31,11.31,0,0,1-8.4-3.73"/><line class="cls-2" x1="916.98" y1="1971" x2="1460.64" y2="1971"/><line class="cls-2" x1="916.98" y1="1995.75" x2="1460.64" y2="1995.75"/><line class="cls-2" x1="924.33" y1="2300.25" x2="1460.64" y2="2300.25"/><line class="cls-2" x1="924.33" y1="2325" x2="1460.64" y2="2325"/><line class="cls-2" x1="928.33" y1="2348.92" x2="1460.64" y2="2348.92"/><line class="cls-2" x1="928.33" y1="2373.67" x2="1460.64" y2="2373.67"/><path class="cls-1" d="M944.78,1412.61v-46.28c0-5.93,23.68-9.68,39.72-11.87,22.21-3,41.42.26,54.9,2.54"/><line class="cls-1" x1="944.78" y1="1457.67" x2="944.78" y2="1432.06"/><line class="cls-1" x1="944.78" y1="1881.25" x2="944.78" y2="1486.33"/><line class="cls-1" x1="944.78" y1="1971" x2="944.78" y2="1930.16"/><line class="cls-1" x1="944.78" y1="2300.25" x2="944.78" y2="1995.75"/><line class="cls-1" x1="944.78" y1="2348.92" x2="944.78" y2="2323.83"/><path class="cls-1" d="M1004.32,2418.5c-19.65,0-59.54-6.58-59.54-13.17v-31.66"/><line class="cls-1" x1="967.04" y1="1357.2" x2="967.04" y2="1325.17"/><path class="cls-1" d="M967,1325.67c0-9.84,18.8-11.79,36.13-12.17,18.5-.4,30.54,2.25,37.51,4.81"/><line class="cls-1" x1="892.69" y1="1280.83" x2="978.67" y2="1280.83"/><line class="cls-1" x1="892.69" y1="1262.33" x2="978.67" y2="1262.33"/><line class="cls-1" x1="990.5" y1="1313.46" x2="990.5" y2="1292.67"/><line class="cls-1" x1="1008.83" y1="1313.46" x2="1008.83" y2="1292.67"/><path class="cls-1" d="M978.67,1262.33c7.89,0,14.87.41,21.83,6.17,8.06,6.67,8.33,15.94,8.33,24.17"/><path class="cls-1" d="M978.67,1280.83c3.83,0,6.74.32,9.44,3s2.39,5.84,2.39,9.28"/><path class="cls-2" d="M1408.06,2373.08c6.3,12,12.44,23,18.27,33.25,8.89,14.45-98.08,25.71-164.55,14.09"/><path class="cls-2" d="M1384.16,2325q5.73,12.27,11.41,23.69"/><path class="cls-2" d="M1290.32,1998.58a1073.61,1073.61,0,0,0,82,300.28"/><path class="cls-2" d="M1284.36,1931q.44,7.61,1,15.33.89,12.47,2,24.67"/><path class="cls-2" d="M1237.06,1685c66.11,0,67.27,7.12,67.1,11.43a712.07,712.07,0,0,0-21.52,183.68"/><path class="cls-1" d="M1235.94,1176.16h10.19a10.2,10.2,0,0,1,10.2,10.2v324.76"/><path class="cls-1" d="M1235,1158.42h15.55a23.13,23.13,0,0,1,23.13,23.12v340.2"/><path class="cls-3" d="M1087.55,1003.13c-22-17.75-45-61.3-37.54-104.15,11.59-66.25,57.43-77.57,58.92-81.2,2.48-6-11.3-74,33.83-121.76,52.13-55.15,122.8-21.38,129.07-23.51,5.33-1.81,67.44-43.81,104.18-10.1,47.34,43.43-31,128.5-34.09,133.62-5,8.15,20.58,61.06-10.89,106.23-40.83,58.61-98.5,43.72-103.49,50-5.41,6.85,3.39,23-5.33,37.3-6.67,10.91-18.14,15.93-25.78,18.39"/><path class="cls-3" d="M1541.33,556.33c-16.11-16.66-34.33-63.77-12-112,35.28-76.16,94.76-69,99-77,4-7.46-16-95.66,50-143,71.19-51.05,120.55-19.63,130-22,8.89-2.22,94.67-131.33,227-92,160.15,47.6,114.72,195.19,117,210,2.23,14.45,77.78,81.56,43.11,168.67-46.27,116.28-144.44,67.56-153.11,81.33-6.2,9.87,3.78,70.23-85,99-126.24,40.92-181.94-40.73-187-40-11.86,1.73-33.29,7-60,0-24.52-6.42-42.46-20.12-54-31"/><path class="cls-3" d="M1822.33,1393.15c-70-35.33-62.13-123.67-59-157,8.34-88.63,75.38-117.68,81-136,4.22-13.72-68.87-68.07-19.33-166.33,40-79.34,118.87-56.18,126.33-62.67,7.67-6.67-11-114,102.69-151.44,112.48-37,150.26,51.72,162.31,53.44,9.34,1.33,96.67-54.67,181,9,88.81,67.05,28.34,177.67,30,189,2.24,15.2,69.42,87.14,38.57,164.67-30.23,76-121.4,70.66-126.57,78.33-2.78,4.12,0,62.33-30,94-13.42,14.17-26.39,24.52-39.66,30.41"/></g><g id="Shadows" class="cls-4"><ellipse class="cls-5" cx="1508.33" cy="2822.69" rx="877" ry="92"/><path class="cls-6" d="M626.47,2443.67c-4.14,80.65,67.24,147,155.2,145.9,86.59-1.07,153.68-67.45,150.37-145.9l7,166.82-46.36,23.41-88.39,18.43-70.64-2.87-86-18.6-28.41-20.37Z"/><path class="cls-6" d="M2043,2445c-3.56,80.16,57.95,146.08,133.74,145,74.61-1.06,132.42-67,129.57-145l6.06,165.8L2272.39,2634l-76.16,18.32-60.88-2.85L2061.23,2631l-24.48-20.24Z"/><path class="cls-6" d="M1528.16,2468l-45.83-2.36-24.91-14.53,6.21-95.87c-2.77,62.34,33.82,73.78,85.87,75.27"/><path class="cls-6" d="M2311.94,2563.73l68.29,11.33,76.16-10.42,33.28-13.23.6-94.26c2.85,44.33-55,81.84-129.57,82.44a213.19,213.19,0,0,1-49.64-5.31Z"/><path class="cls-6" d="M1259,2373.08l2.78,81.12L1223.16,2476l-70.73,22.32-56.54-3.48-68.84-22.52-22.73-24.67,2.11-74,39.52-.59c22.57,31,53.86,49.9,88.34,49.26,33.21-.62,62.84-19.41,84.4-49.26Z"/><path class="cls-5" d="M497.33,2443.67c5.12,109-.55,132.57,17.32,132.57,23.67,0,10.82-23.1,21.68-132.57v165L522,2619.3l-18.73-2.51-8.26-7.12Z"/><path class="cls-5" d="M1791.19,2464.6c5.12,109-.56,132.57,17.32,132.57,23.67,0,10.82-23.1,21.68-132.57v165l-14.34,10.63-18.73-2.5-8.26-7.13Z"/><path class="cls-5" d="M2368.84,1834.33c0,51,.09,77.11,24.38,77.11,32.16,0,28.61-20.1,28.61-77.11l6.06,111.78-25.55,2.24-25.45-2.44-12.64-.91Z"/><path class="cls-5" d="M2118.23,1053.56c0,25.52.12,38.56,31.06,38.56,41,0,36.44-10,36.44-38.56l7.71,55.89-32.53,1.12-32.42-1.22-16.1-.45Z"/><path class="cls-5" d="M1537.39,674.58c0,25.51,33.83,38.55,63.91,38.55,29.92,0,76.47-10,76.47-38.55v67.31l-56.35-10.3-56.14-1.22-27.89-.46Z"/><path class="cls-5" d="M969.54,1323.25c0,12.76,16.92,19.28,32,19.28s38.23-5,38.23-19.28v33.66l-28.17-5.15-28.07-.61-14-.23Z"/><path class="cls-5" d="M1534.42,734l-25,5.08-12.5,2.78,3.5-92.45c0,58.34,9.34,69.34,28.9,69a22.57,22.57,0,0,0,4.68-.57"/><path class="cls-6" d="M1171.64,1559.85c0,27.9,37.29,42.73,59.21,42.73,23.28,0,61.92-21,61.92-43,0-9.81,2.35,39.87-17.17,59.06-25.8,25.35-73,20.17-94.24-8.29C1167.92,1592.35,1171.64,1550.71,1171.64,1559.85Z"/><path class="cls-6" d="M630.11,1456.67c4,13.11,8.22,19.22,14.89,19.22,6.23,0,11-20.07,12.33-55.67l5.11,35.78-4.22,44.89H640.33l-14-14.67Z"/><path class="cls-6" d="M2034.43,1854.49c3.67,13.11,7.54,19.22,13.66,19.22,5.71,0,10.1-20.07,11.31-55.67l4.69,35.78-3.87,44.89h-16.41L2031,1884Z"/><path class="cls-6" d="M2034,1996.06c3.22,13.11,6.61,19.22,12,19.22,5,0,8.86-20.06,9.92-55.66l4.11,35.78-3.39,44.88h-14.39L2031,2025.62Z"/><path class="cls-6" d="M2019.83,2486.66c2.51,13.11,5.15,19.22,9.32,19.22,3.89,0,6.88-20.07,7.71-55.67l3.2,35.78-2.64,44.89h-11.19l-8.76-14.67Z"/><path class="cls-6" d="M2306.87,2386.39c2.5,10.22,5.14,15,9.31,15,3.9,0,6.89-15.63,7.72-43.37l3.19,27.87-2.64,35h-11.19l-8.75-11.43Z"/><path class="cls-6" d="M2455.93,2385.73c-2.5,10.21-5.14,15-9.31,15-3.9,0-9-6.13-9.79-33.87l-1.12,18.38,2.64,35h11.19l8.75-11.43Z"/><path class="cls-5" d="M1477.22,1908.65c4.64,0,8.22-.4,10.34-1.23,9.17-3.61,15.19-14.06,15.77-26.55l2.11,36.44-5.94,12.1-582.89-.49v-20.27Z"/><path class="cls-5" d="M1380,1508.86h89.52c4.64,0,8.22-.4,10.33-1.23,9.17-3.61,15.19-14.06,15.78-26.56l2.11,36.45.76,12.1-118-.1"/><path class="cls-5" d="M1380,1108.16h89.52c4.64,0,8.22-.39,10.33-1.23,9.17-3.61,15.19-14.06,15.78-26.55l2.11,36.44.76,12.1-118-.09"/><path class="cls-5" d="M1434.5,1983.21a49.18,49.18,0,0,0,9.53-.66c8.47-1.93,14-7.52,14.56-14.2l2,19.49-5.48,6.47-537.79-.26v-10.84Z"/><path class="cls-5" d="M1435,2361.39a46.74,46.74,0,0,0,9.36-.66c8.31-1.93,13.76-7.52,14.3-14.2l1.91,19.49-5.39,6.47L927,2372.23v-10.84Z"/><path class="cls-5" d="M1435,2312.73a46.74,46.74,0,0,0,9.36-.66c8.31-1.93,13.76-7.52,14.3-14.2l1.91,19.49-5.39,6.47L927,2323.57v-10.84Z"/><path class="cls-5" d="M1164,1473.41a13.75,13.75,0,0,0,5-.66c4.4-1.93,7.29-7.52,7.57-14.2l1,19.49-2.85,6.47L895,1484.24v-10.83Z"/><path class="cls-5" d="M1164,1421.87a13.75,13.75,0,0,0,5-.66c4.4-1.93,7.29-7.52,7.57-14.2l1,19.49-2.85,6.47L895,1432.7v-10.83Z"/><path class="cls-5" d="M2051.6,1542c1.73-21.7,66.54-37.31,118.57-37.31,82.83,0,129.12,21.22,129.12,41.91,0,4.26-2.79,9.16-4.46,8.59-25.5-8.75-60.51-25.07-121.83-26-59.62-.91-99.5,18.16-118.6,21.7C2053.85,1551,2051.21,1546.79,2051.6,1542Z"/><path class="cls-5" d="M2051.6,1630.65c1.73-21.7,66.54-37.32,118.57-37.32,82.83,0,129.12,21.23,129.12,41.92,0,4.26-2.79,9.15-4.46,8.58-25.5-8.74-60.51-25.07-121.83-26-59.62-.9-99.5,18.17-118.6,21.71C2053.85,1639.64,2051.21,1635.46,2051.6,1630.65Z"/><path class="cls-6" d="M1439.67,2151c18.66-12.89,83.77-24,139.33-24,46.7,0,83.9.31,113,6.95l-7.35,19.73-124.57-3.79-118.67,17Z"/><path class="cls-6" d="M1439.67,2067.85c20.9-12.88,93.83-26.44,156.06-26.44,52.3,0,93.09,2.41,125.72,9.06l-7.35,17.62-139.53-3.79-132.92,17Z"/><path class="cls-6" d="M1240.43,1260.33c-16.31-10.58-50.6-27.94-106.1-28.89-47.5-.81-88.89,17.13-106.1,26v16.45l3.72,6.94,111-17.16,90.67,18.5,7.57-3.17Z"/><path class="cls-6" d="M903.89,1201.44a271.71,271.71,0,0,0-248.45-.88l5.12,6.45,97.77-25.8,45.79,2.11,91.77,21.8Z"/><path class="cls-6" d="M903.89,1140.85a271.75,271.75,0,0,0-248.45-.89l5.12,6.45,97.77-25.8,45.79,2.12,91.77,21.8Z"/><path class="cls-6" d="M1233,1097.75a234.2,234.2,0,0,0-197.94-.65l4.07,4.71L1117,1083l36.49,1.54,73.11,15.91Z"/><path class="cls-6" d="M903.89,1080.26a271.67,271.67,0,0,0-248.45-.89l5.12,6.45,97.77-25.8,45.79,2.11,91.77,21.8Z"/><path class="cls-7" d="M2031,1995.67h-178.4c-.56,0-9.67.77-16.23,6.11a27,27,0,0,0-8,30.55l13.45-20.73,189.18.07v-16"/><path class="cls-7" d="M2030.11,1852.18h-90.44c-.56,0-9.67.78-16.22,6.11a27,27,0,0,0-8,30.56l13.44-20.74,101.22,0"/><path class="cls-7" d="M2283.68,1766.84h60.84c.55,0,9.66.77,16.22,6.11a27,27,0,0,1,8,30.55l-13.45-20.73-71.61,0"/><path class="cls-7" d="M623.24,1447.94H562.41c-.56,0-9.67.78-16.22,6.12a27,27,0,0,0-8,30.55l13.44-20.73,71.61,0"/><path class="cls-5" d="M2017.47,2499.56H1927a33.28,33.28,0,0,1-13.93-4.48l-19.81-10.4-13.4-20.68.55-27.56c2,7.21,2.62,18.28,13.56,30.34,2.59,2.85,21.11,14.44,35.61,14.44,7.45,0,86.93.21,86.93.21"/><path class="cls-5" d="M1830.33,2591l139.34-2.48,67.08-8.26,2.45-34.88c-70.84,13.56-142.33,17.77-208.25,16.83"/><path class="cls-5" d="M1789.11,2561c-130.94-6.14-232.23-30.48-248.61-35.63-6.56-2.06-13.83-6.5-17-11.83-2.64-4.44-1.82-9.52-1.17-14.5,1-7.58,6.67-20.67,16-46L1498,2520.09l5.51,17.86,69.14,23.94,215.08,29.91"/><path class="cls-5" d="M2300.11,2330.17c14.51,9.33,34.89,17.83,92.72,17.83,68.67,0,89.67-8.83,112.17-23l-.36,21.82-8.81,7L2365,2365.33l-65.11-8.67Z"/><path class="cls-5" d="M865.5,878.5a218.37,218.37,0,0,0-174.17-.5v11.83l66.34-16.5,63.59,3.91L864,889.83Z"/><path class="cls-5" d="M839.17,749c-.08,19.75,2.76,33.64,5.08,34.06s5.85-12.91,6.25-33.8l2.92,60-1.25,51.43-16.92-6.86Z"/><path class="cls-5" d="M1186.61,1455.44c-.08,7.79,2.77,13.26,5.08,13.42s5.86-5.08,6.25-13.31l2.92,23.64-1.25,20.26-16.92-2.7Z"/><path class="cls-5" d="M1260.25,1407c-.08,19.32,2.77,32.91,5.08,33.32s5.85-12.64,6.25-33.07l2.92,58.7-1.25,50.32-16.92-6.71Z"/><path class="cls-5" d="M998.17,1313.64V1284.5c0-4.89-4.42-8.13-5.17-8.78-2.73-2.34-8.89-3.39-11.33-3.39-9.53,0-43.39-.84-89.28,0l1.83,9.84h91.11l5.17,8.61v22.68Z"/><path class="cls-6" d="M1200.11,1009.89c-10.5,5.44-13.13-6.47-12.22-10.45,1.72-7.55,3.11-8.27,17.33-15.55,11.91-6.1-2.54-46.75,6.11-55.56,6.34-6.44,51.61-.39,89.23-38,33.88-33.89,9.61-92,13.55-103.33s24.89-15.33,50.06-50.83c9.91-14,23.66-37.5,19.66-62.84l8.52,42.12-50.75,81.31,3.74,70.85-25.17,48.19L1274,944.33l-45.67,7.34-3.85,33.17Z"/><path class="cls-6" d="M1656.33,598.33c-10.82-6.23-13.87-14.58-11.66-21.83a18.68,18.68,0,0,1,15.66-12.83c18.84-1.5,14,24.9,51.34,31.33,40.66,7,58.07-17,70-13.56,10.5,3.06,62.6,80.59,145.77,57.78,89.56-24.55,81.23-101,92.56-108.22,12-7.64,78.86,1.46,121.22-25.56,30.67-19.55,54.67-58.22,38.22-138.12l25.09,53.24-8.17,66.06-36.85,57-51.81,24.05-63.81,2.2-16.45,49.26-39.2,37-75.49,23.27-73.31-4.81-68.44-46-52.44,6.27Z"/><path class="cls-6" d="M2452.58,1015.32c1.5,6.19,24.09,77.68-34.91,133-56.36,52.86-98.46,27.52-105.77,35.41-7.12,7.7,12.43,70.93-26.46,100.93-8.36,6.45-15.29,3.79-18.53,3.67l4.42,51.33,41.11-28.23,24-61.55,5.56-37.33,77.33-20.23,39.56-40.71,15.88-52.62-7.21-60.67Z"/><polygon class="cls-6" points="1259 2373.08 1408.06 2373.08 1426.85 2408 1387.67 2423.33 1261.78 2420.41 1259 2373.08"/><polygon class="cls-6" points="944.78 2373.67 1006.62 2378.33 1004.32 2416.33 963.74 2413.67 942 2404.67 944.78 2373.67"/></g></svg>