<svg xmlns="http://www.w3.org/2000/svg" viewBox="0 0 3000 3000"><defs><style>.cls-1,.cls-2,.cls-3,.cls-4{fill:none;stroke:#ffc834;stroke-miterlimit:10;}.cls-1,.cls-4{stroke-width:10px;}.cls-2,.cls-4{stroke-linecap:round;}.cls-2,.cls-3{stroke-width:20px;}.cls-5{opacity:0.3;}.cls-6{fill:#ffc834;}</style></defs><g id="Lines"><path class="cls-1" d="M315.32,1669.28v787.83a88.22,88.22,0,0,0,88.22,88.22l848.32-.11"/><path class="cls-1" d="M1251.54,1669.17v206.94a16.94,16.94,0,0,1-21.19,16.39c-23.86-6.13-52.62-9.86-83.8-9.86-106.67,0-206,105.33-206,224.67s99.33,224.66,206,224.66c31.18,0,59.94-3.73,83.8-9.86a17,17,0,0,1,21.19,16.4v206.82"/><path class="cls-1" d="M315.32,1669.28H558.25a18.33,18.33,0,0,0,17.23-24.63c-9.91-27-16.38-63.9-16.38-105,0-106.66,105.33-206,224.66-206s224.67,99.34,224.67,206c0,41.1-6.48,78-16.39,105a18.34,18.34,0,0,0,17.23,24.63h242.27"/><path class="cls-1" d="M315.32,1669.17V881.44a88.22,88.22,0,0,1,88.22-88.22h812.33a35.67,35.67,0,0,1,35.67,35.67v191.65a18.33,18.33,0,0,0,24.63,17.23c27-9.91,63.9-16.39,105-16.39,106.67,0,206,105.34,206,224.67s-99.33,224.67-206,224.67c-41.09,0-78-6.48-105-16.39a18.34,18.34,0,0,0-24.63,17.23v197.61"/><path class="cls-1" d="M1251.54,2545.22h851.78a88.22,88.22,0,0,0,88.22-88.22V1690.53a21.36,21.36,0,0,0-21.36-21.36h-234.3a18.33,18.33,0,0,0-17.23,24.63c9.91,27,16.39,63.89,16.39,105,0,106.67-105.34,206-224.67,206s-224.67-99.33-224.67-206c0-41.1,6.48-78,16.39-105a18.33,18.33,0,0,0-17.23-24.63H1255.32"/><path class="cls-1" d="M2069.17,1432.93c-54.88,30.1-124.32,39.24-187.68,17.31-112.77-39-179.81-167.37-144.91-268.17,10.2-29.47,23.14-55.43,36.73-76a16.93,16.93,0,0,0-8.55-25.38l-181-62.67A48.12,48.12,0,0,1,1554,956.84l53.77-155.3a18.33,18.33,0,0,1,28.91-8.22c22.29,18.2,55,36.38,93.86,49.83,100.79,34.9,229.12-32.14,268.16-144.91s-20.36-244.8-121.16-279.7c-38.84-13.44-75.81-19.39-104.58-18.86a18.33,18.33,0,0,1-17.64-24.34L1809.11,220a48.11,48.11,0,0,1,61.21-29.73L2626.08,452a88.23,88.23,0,0,1,54.51,112.23l-241,696.06a48.11,48.11,0,0,1-60.47,30L2201.71,1232a17,17,0,0,0-22.42,14.66c-2,24.56-7.9,52.95-18.1,82.42C2145.9,1373.24,2112,1409.45,2069.17,1432.93Z"/><path class="cls-2" d="M1116.29,1384.67c-29-161.81,80-277,229-247,129.6,26.09,207.49,140.13,169.58,267.11"/><path class="cls-2" d="M1119.41,1274.09c-82.86-33.17-176.09-17.06-236.76,40.91-74,70.73-87.34,192.07-26,286"/><path class="cls-2" d="M844,1260.33c-133.33-176.66-312.66-65.33-379.33,41.34-67.4,107.84-33,356.53,196,322.53"/><path class="cls-2" d="M614.36,1174.64c.14-8,5.13-149.7,129.62-223,81.24-47.81,182.43-48.28,264.67-1.34"/><path class="cls-2" d="M971.32,1041.67c41.33-168.67,174-200.23,273.55-186.89"/><path class="cls-2" d="M526.44,1608.29c-20,92.29,12,187.67,82.88,246.71,97.49,81.18,216.62,50.31,227.33,47.33"/><path class="cls-2" d="M1208.65,1548c-129-46.53-410,71.67-369.33,343.12,43.93,293.15,397.33,345.21,502.66,199.21"/><path class="cls-2" d="M1661.53,2004.92c-4.6,7.79-63.6,103.83-186.88,110.08-121.52,6.16-193.18-85.3-199-93"/><path class="cls-2" d="M1404,2107.41c-4.9,5.59-9.4,23.62,4,44.7,34,53.56,135,150.45,229.67,162.89,45.67,6,87.87-42.32,108-92,11.3-27.88,11.9-49.17,10.58-64.67"/><path class="cls-3" d="M1846.43,1959.12C1853,1969.67,1984,1935,2042.32,1852c57-81,53.69-158.52,53.66-182.83"/><path class="cls-2" d="M2091.79,1732.28c7.37,38.06,26.48,120.42-18.47,198C2022,2019,1907.54,2105,1775.54,2151.67c-95.63,33.81-182.66-41.58-199.51-65.78"/><path class="cls-2" d="M1670.78,2310.21a51.29,51.29,0,0,0,7,20.57c20.79,33.91,72.17,19.92,116,38.22,71.42,29.81,70.2,123.35,97.78,120.89,30.5-2.73,65.8-120.18,32.44-225.78-21.42-67.83-65.24-112-92.55-135"/><path class="cls-3" d="M1926.6,800.18C2020,848.11,2061.4,955.35,2029.65,1042c-36.9,100.71-161.39,158.14-272.89,104.39"/><path class="cls-2" d="M2024.36,1054.79c18.12-.14,69.79,1.88,118.29,38.21,69.43,52,78.44,126.72,79.33,139.33"/><path class="cls-2" d="M2130.75,746.3c140.3,38.35,244.68,147.26,266,278,20.38,125-42.94,222.29-59.88,246.68"/><path class="cls-2" d="M2319.11,859.75c69.68-99.89,61.64-227.54-12.46-318.75-67.05-82.54-179.92-116.78-285-86"/><path class="cls-2" d="M1804.62,250.91c24.4,4.77,101.92,23,164,100.09,82.29,102.16,60.47,222.56,57,240"/><path class="cls-4" d="M1509.88,1403.89c-2,5.7-5.48,14.94-7.65,19.11"/><line class="cls-4" x1="2226.32" y1="1226.33" x2="2227.9" y2="1239.23"/><line class="cls-4" x1="1858.87" y1="1965.7" x2="1832.69" y2="1968.51"/></g><g id="Shadows" class="cls-5"><path class="cls-6" d="M2191.54,2377.31c-2.7,12.76-9.76,38.39-29.14,61.08-32.42,38-76.81,38.15-82.87,38.15H427.32c-8,0-50.45-.18-82.87-38.15-19.37-22.69-26.44-48.32-29.13-61.08h0c0,43.59-6.79,94.34,19.62,129.5,33.89,45.12,96,38.47,115.23,38.47H2104.52c11.91,0,39.35-5.65,60.61-29.82,33.18-37.73,31.22-101.77,26.41-142.46"/><path class="cls-6" d="M1762.8,1031.68c24,7.72,20.09,33.1,20.09,33.1-1,10.71-3.25,16.38-4.12,21l-176.41-60.37c-9.1-3.11-43.12-9.09-49.38-43.18-4.88-26.57,12.51-57.5,22-85.14-1.49,8.53-3.7,25.92.55,43.44,2,8.3,10.34,29.63,29.32,37,.68.26,1.25.46,1.64.59C1688.16,1006.64,1735,1022.77,1762.8,1031.68Z"/><path class="cls-6" d="M2228.91,1193.46c-23.8-8.24-36.37,16.08-36.37,16.08-5.87,9.82-7.56,16.13-9.75,20.68l177,57.27c9.14,3,39.78,18.87,65.81-6.63,20.29-19.88,25.65-57.32,35.25-87-4.09,8.27-13.09,24.63-27.29,37.1-6.72,5.9-26.5,19.13-46.11,13.74-.7-.19-1.27-.37-1.67-.5C2303.51,1218.11,2256.41,1203,2228.91,1193.46Z"/><path class="cls-6" d="M2175,1263.88c-37.86,81.59-113,137.76-195.92,143.13-111.41,7.22-221.57-78.27-247.75-206l-5.18,56.32,13.86,59.28,38,62.91,59.5,53.3,80.29,27,93.86-3.46,79.26-39.61,55.78-59.35,22.5-55.45Z"/><ellipse class="cls-6" cx="1253.43" cy="2736.62" rx="938.11" ry="92"/></g></svg>