<svg xmlns="http://www.w3.org/2000/svg" viewBox="0 0 3000 3000"><defs><style>.cls-1,.cls-2,.cls-3,.cls-4{fill:none;stroke:#355a63;stroke-miterlimit:10;}.cls-1,.cls-4{stroke-width:10px;}.cls-2,.cls-4{stroke-linecap:round;}.cls-2,.cls-3{stroke-width:20px;}.cls-5{opacity:0.3;}.cls-6{fill:#355a63;}</style></defs><g id="Lines"><path class="cls-1" d="M308.14,1669.28v787.83a88.23,88.23,0,0,0,88.23,88.22l848.32-.11"/><path class="cls-1" d="M1244.37,1669.17v206.94a17,17,0,0,1-21.19,16.39c-23.86-6.13-52.62-9.86-83.81-9.86-106.66,0-206,105.33-206,224.67s99.34,224.66,206,224.66c31.19,0,60-3.73,83.81-9.86a17,17,0,0,1,21.19,16.4v206.82"/><path class="cls-1" d="M308.14,1669.28H551.08a18.34,18.34,0,0,0,17.23-24.63c-9.91-27-16.39-63.9-16.39-105,0-106.66,105.34-206,224.67-206s224.67,99.34,224.67,206c0,41.1-6.48,78-16.39,105a18.33,18.33,0,0,0,17.23,24.63h242.27"/><path class="cls-1" d="M308.14,1669.17V881.44a88.23,88.23,0,0,1,88.23-88.22H1208.7a35.67,35.67,0,0,1,35.67,35.67v191.65a18.33,18.33,0,0,0,24.63,17.23c27-9.91,63.89-16.39,105-16.39,106.67,0,206,105.34,206,224.67s-99.33,224.67-206,224.67c-41.1,0-78-6.48-105-16.39a18.33,18.33,0,0,0-24.63,17.23v197.61"/><path class="cls-1" d="M1244.37,2545.22h851.77a88.23,88.23,0,0,0,88.23-88.22V1690.53a21.36,21.36,0,0,0-21.36-21.36H1928.7a18.32,18.32,0,0,0-17.22,24.63c9.91,27,16.38,63.89,16.38,105,0,106.67-105.33,206-224.66,206s-224.67-99.33-224.67-206c0-41.1,6.47-78,16.38-105a18.32,18.32,0,0,0-17.22-24.63H1248.14"/><path class="cls-1" d="M2062,1432.93c-54.87,30.1-124.31,39.24-187.67,17.31-112.77-39-179.81-167.37-144.91-268.17,10.2-29.47,23.13-55.43,36.73-76a16.93,16.93,0,0,0-8.56-25.38l-181-62.67a48.11,48.11,0,0,1-29.72-61.21l53.77-155.3a18.33,18.33,0,0,1,28.91-8.22c22.29,18.2,55,36.38,93.85,49.83,100.8,34.9,229.13-32.14,268.17-144.91s-20.37-244.8-121.16-279.7c-38.84-13.44-75.81-19.39-104.58-18.86a18.33,18.33,0,0,1-17.64-24.34L1801.94,220a48.11,48.11,0,0,1,61.21-29.73L2618.91,452a88.22,88.22,0,0,1,54.5,112.23l-241,696.06a48.12,48.12,0,0,1-60.48,30L2194.54,1232a17,17,0,0,0-22.42,14.66c-2,24.56-7.9,52.95-18.11,82.42C2138.72,1373.24,2104.79,1409.45,2062,1432.93Z"/><path class="cls-2" d="M1109.12,1384.67c-29-161.81,80-277,229-247,129.59,26.09,207.48,140.13,169.58,267.11"/><path class="cls-2" d="M1112.24,1274.09c-82.86-33.17-176.09-17.06-236.76,40.91-74,70.73-87.34,192.07-26,286"/><path class="cls-2" d="M836.81,1260.33c-133.33-176.66-312.67-65.33-379.33,41.34-67.41,107.84-33,356.53,196,322.53"/><path class="cls-2" d="M607.18,1174.64c.14-8,5.14-149.7,129.63-223,81.23-47.81,182.43-48.28,264.67-1.34"/><path class="cls-2" d="M964.14,1041.67c41.34-168.67,174-200.23,273.56-186.89"/><path class="cls-2" d="M519.27,1608.29c-20,92.29,12,187.67,82.87,246.71,97.5,81.18,216.63,50.31,227.34,47.33"/><path class="cls-2" d="M1201.48,1548c-129-46.53-410,71.67-369.33,343.12,43.93,293.15,397.33,345.21,502.66,199.21"/><path class="cls-2" d="M1654.36,2004.92c-4.6,7.79-63.6,103.83-186.88,110.08-121.52,6.16-193.18-85.3-199-93"/><path class="cls-2" d="M1396.83,2107.41c-4.91,5.59-9.4,23.62,4,44.7,34,53.56,135,150.45,229.67,162.89,45.66,6,87.86-42.32,108-92,11.29-27.88,11.89-49.17,10.58-64.67"/><path class="cls-3" d="M1839.26,1959.12c6.55,10.55,137.55-24.12,195.88-107.12,57-81,53.7-158.52,53.67-182.83"/><path class="cls-2" d="M2084.62,1732.28c7.37,38.06,26.47,120.42-18.48,198-51.33,88.67-165.77,174.67-297.77,221.34-95.63,33.81-182.67-41.58-199.51-65.78"/><path class="cls-2" d="M1663.61,2310.21a51.14,51.14,0,0,0,7,20.57c20.79,33.91,72.16,19.92,116,38.22,71.42,29.81,70.2,123.35,97.78,120.89,30.5-2.73,65.8-120.18,32.44-225.78-21.43-67.83-65.24-112-92.55-135"/><path class="cls-3" d="M1919.43,800.18c93.4,47.93,134.8,155.17,103,241.82-36.9,100.71-161.39,158.14-272.9,104.39"/><path class="cls-2" d="M2017.18,1054.79c18.13-.14,69.79,1.88,118.3,38.21,69.43,52,78.44,126.72,79.33,139.33"/><path class="cls-2" d="M2123.58,746.3c140.3,38.35,244.68,147.26,266,278,20.38,125-42.95,222.29-59.88,246.68"/><path class="cls-2" d="M2311.94,859.75c69.68-99.89,61.63-227.54-12.46-318.75-67.06-82.54-179.92-116.78-285-86"/><path class="cls-2" d="M1797.45,250.91c24.4,4.77,101.92,23,164,100.09,82.28,102.16,60.46,222.56,57,240"/><path class="cls-4" d="M1502.71,1403.89c-2,5.7-5.48,14.94-7.65,19.11"/><line class="cls-4" x1="2219.14" y1="1226.33" x2="2220.73" y2="1239.23"/><line class="cls-4" x1="1851.7" y1="1965.7" x2="1825.52" y2="1968.51"/></g><g id="Shadows" class="cls-5"><path class="cls-6" d="M2184.37,2377.31c-2.7,12.76-9.77,38.39-29.14,61.08-32.42,38-76.81,38.15-82.87,38.15H420.15c-8,0-50.45-.18-82.87-38.15-19.37-22.69-26.44-48.32-29.14-61.08h0c0,43.59-6.78,94.34,19.63,129.5,33.89,45.12,96,38.47,115.23,38.47H2097.34c11.91,0,39.35-5.65,60.61-29.82,33.19-37.73,31.23-101.77,26.42-142.46"/><path class="cls-6" d="M1755.63,1031.68c24,7.72,20.08,33.1,20.08,33.1-1,10.71-3.24,16.38-4.12,21l-176.4-60.37c-9.1-3.11-43.12-9.09-49.38-43.18-4.88-26.57,12.5-57.5,22-85.14-1.49,8.53-3.71,25.92.55,43.44,2,8.3,10.33,29.63,29.31,37,.68.26,1.26.46,1.65.59C1681,1006.64,1727.87,1022.77,1755.63,1031.68Z"/><path class="cls-6" d="M2221.74,1193.46c-23.8-8.24-36.37,16.08-36.37,16.08-5.87,9.82-7.57,16.13-9.75,20.68l177,57.27c9.13,3,39.77,18.87,65.81-6.63,20.29-19.88,25.65-57.32,35.25-87-4.09,8.27-13.09,24.63-27.29,37.1-6.72,5.9-26.51,19.13-46.11,13.74-.7-.19-1.27-.37-1.67-.5C2296.33,1218.11,2249.23,1203,2221.74,1193.46Z"/><path class="cls-6" d="M2167.83,1263.88c-37.86,81.59-113,137.76-195.92,143.13-111.42,7.22-221.57-78.27-247.75-206l-5.18,56.32,13.85,59.28,38,62.91,59.49,53.3,80.29,27,93.87-3.46,79.26-39.61,55.78-59.35L2162,1302Z"/><ellipse class="cls-6" cx="1246.26" cy="2736.62" rx="938.11" ry="92"/></g></svg>