<svg xmlns="http://www.w3.org/2000/svg" viewBox="0 0 3000 3000"><defs><style>.cls-1{fill:none;stroke:#54623a;stroke-linecap:round;stroke-miterlimit:10;stroke-width:10px;}.cls-2{opacity:0.3;}.cls-3,.cls-4{fill:#54623a;}.cls-4{opacity:0.5;}</style></defs><g id="Lines"><path class="cls-1" d="M874.64,2167c65.37-195.28,232-339,432-372,216.48-35.68,436.4,64.28,556,253.33"/><path class="cls-1" d="M933.88,2042.87c-67-24.09-249.27-78.83-431.24,4.11-103.75,47.29-243.33,132.69-243.33,246,0,115.33,104.13,134,129.37,134h2260a90.72,90.72,0,0,0,88.69-71.19A143.47,143.47,0,0,0,2576.64,2183"/><path class="cls-1" d="M1700.26,1881.58c34.41-13.18,102.63-33.9,188.38-23.6,104.24,12.51,173,61.47,204.42,87.77a21,21,0,0,0,15,4.85c51.14-3.7,151.32-3.22,259.6,49.38,149.1,72.42,216.12,196.31,236,237"/><path class="cls-1" d="M1622.64,1240.64a34,34,0,0,0,6.66,20.21c28.25,38.07,72.93,86.53,139.34,119.46,151.27,75,256.86-9.09,428.67,43.34,179.12,54.65,266.21,189,273.11,187.33,16-3.78,2.51-263.33-277.78-423.33-241.36-137.78-467.91-44.91-557.24,26.45a34,34,0,0,0-12.76,26.54Z"/><path class="cls-1" d="M1593.9,1214.94a20.5,20.5,0,0,1-12,4.23c-172.25,4.2-284.69-39.94-354.24-79.19-151.14-85.29-176.83-191-365-286-133.8-67.56-210-76.33-210-88,.05-20,343.75-251.08,639-106,192.47,94.57,313.64,305.72,310.22,539.1a20.4,20.4,0,0,1-8,15.86Z"/><path class="cls-1" d="M1571.65,1219.36a818,818,0,0,0-219,231.62c-92,146.65-114.89,287.37-121.62,362.18"/><path class="cls-1" d="M1641.76,1276.89a764.18,764.18,0,0,0-82.38,536.75"/><path class="cls-1" d="M1989.44,1119.83A799.3,799.3,0,0,0,2159.64,963c147.67-183,128.1-330,263-459,44-42,120.17-97.3,252.31-126.2a1.33,1.33,0,0,0,.32-2.49c-271.38-135-587.07-119.37-820.63,44.69-244.58,171.81-300.87,437.36-312.4,499.66"/><path class="cls-1" d="M1664.64,968c-7.67-4.26,44.89-171.87,174-317,218.86-246,535.71-290.38,539-282,3,7.72-261.66,55.9-489,286C1736.53,808.94,1672.36,972.27,1664.64,968Z"/><path class="cls-1" d="M1765.64,1205c-.2-6.73,110.71-33.84,237-8,152.16,31.14,256.5,124.8,253,131-3.2,5.68-95.73-64.31-253-100C1865.78,1196.92,1765.84,1211.36,1765.64,1205Z"/><path class="cls-1" d="M1510.53,1054c5.25-2.87-13.91-143.88-182.71-259.5-182-124.71-403.33-82.37-404-75s217.23-21.69,403,112C1484.79,945.22,1505.64,1056.72,1510.53,1054Z"/><ellipse class="cls-1" cx="1134.52" cy="2034.3" rx="25.33" ry="45.33" transform="translate(-1106.18 1398.06) rotate(-45)"/><ellipse class="cls-1" cx="1234.23" cy="2054.92" rx="13.45" ry="24.08" transform="translate(-521.13 422.52) rotate(-16.09)"/><ellipse class="cls-1" cx="513.25" cy="2271.44" rx="18.52" ry="33.14" transform="matrix(0.62, -0.78, 0.78, 0.62, -1583.63, 1258.54)"/><ellipse class="cls-1" cx="1888.3" cy="1922.92" rx="24.08" ry="13.45" transform="translate(-708.47 1201.77) rotate(-30)"/><ellipse class="cls-1" cx="2186.85" cy="2170.41" rx="18.16" ry="32.5" transform="matrix(0.15, -0.99, 0.99, 0.15, -279.28, 4017.34)"/><ellipse class="cls-1" cx="2141.32" cy="2271.44" rx="66.27" ry="37.03" transform="translate(-848.84 1374.98) rotate(-30)"/><ellipse class="cls-1" cx="1492.04" cy="2329.94" rx="28.04" ry="15.67" transform="translate(-1242.79 2748.85) rotate(-66.07)"/></g><g id="Shadows" class="cls-2"><path class="cls-3" d="M1665.46,968c-7.68-4.26,44.88-171.87,174-317,218.85-246,535.71-290.38,539-282,3,7.72-261.67,55.9-489,286C1737.35,808.94,1673.18,972.27,1665.46,968Z"/><path class="cls-3" d="M1766.46,1205c-.2-6.73,110.7-33.84,237-8,152.16,31.14,256.5,124.8,253,131-3.21,5.68-95.74-64.31-253-100C1866.6,1196.92,1766.65,1211.36,1766.46,1205Z"/><path class="cls-3" d="M1511.35,1054c5.24-2.87-13.92-143.88-182.71-259.5-182.06-124.71-403.34-82.37-404-75s217.23-21.69,403,112C1485.61,945.22,1506.45,1056.72,1511.35,1054Z"/><path class="cls-3" d="M1593.9,1214.94c.44-2.84-181.05,13.47-347.26-96-141.22-93-124.72-180.16-269-272-150.33-95.7-319.4-97.26-323-84.82-3,10.27,107,29,247,113.82,171.15,103.69,172.81,176.29,311.35,255.43C1400.25,1238.39,1593.44,1217.87,1593.9,1214.94Z"/><path class="cls-3" d="M1620.81,1237.48c2.73-3.06,46.61,85.84,177.83,134.83,155.34,58,272-30.66,422.67,8.89,169.65,44.54,253.31,225.42,249.11,229.78-3.77,3.91-80.39-122.07-234.78-176-170.76-59.65-248.33,8.67-414.94-34.21C1685,1365.86,1618.05,1240.58,1620.81,1237.48Z"/><path class="cls-3" d="M1311.94,1524c2.7,220.34,125.37,237.78,160,238.57,33.94.77,70.48-30.67,70.48-72.23l16.92,123.33-110.77-23-137.3,3.63L1231,1813.16l22.42-144.36Z"/><ellipse class="cls-3" cx="1135.13" cy="2033.81" rx="25.33" ry="45.33" transform="translate(-1105.65 1398.35) rotate(-45)"/><ellipse class="cls-3" cx="1234.84" cy="2054.42" rx="13.45" ry="24.08" transform="translate(-520.97 422.67) rotate(-16.09)"/><ellipse class="cls-3" cx="513.85" cy="2270.94" rx="18.52" ry="33.14" transform="translate(-1583.01 1258.83) rotate(-51.48)"/><ellipse class="cls-3" cx="1888.91" cy="1922.42" rx="24.08" ry="13.45" transform="translate(-708.14 1202.01) rotate(-30)"/><ellipse class="cls-3" cx="2187.46" cy="2169.91" rx="18.16" ry="32.5" transform="translate(-278.27 4017.52) rotate(-81.61)"/><ellipse class="cls-3" cx="2141.93" cy="2270.94" rx="66.27" ry="37.03" transform="translate(-848.51 1375.21) rotate(-30)"/><ellipse class="cls-3" cx="1492.64" cy="2329.44" rx="28.04" ry="15.67" transform="translate(-1241.98 2749.11) rotate(-66.07)"/><path class="cls-3" d="M2671,378.66c-5.54-14.77-221.7-5.64-350.38,137.32-118.17,131.3-83,292-160,393-121.81,159.79-400.63,223.87-395,236,2.12,4.57,91.6-24.85,146-27.89,40.41-2.26,66.14,10.92,77.83,2.7,56.21-39.52,129.18-118.67,170.2-156.85,101-94,133.67-302,210-400C2491.67,406.32,2676.1,392.2,2671,378.66Z"/><path class="cls-3" d="M1620.73,1241.65c4.6,19.12,19.94,29,22.19,36.66L1618.81,1326c6.06-12,1.92-49.09-19.72-59.89-32.4-16.16-121,26-162.26,73.38,34.77-34.14,103.15-102.07,130.26-120C1575.73,1213.72,1614.2,1214.54,1620.73,1241.65Z"/><path class="cls-3" d="M2580,2427c10.43,1.16,111.11,11,149.24-48.75,20.13-31.58-8.74-125.6-5.24-117,8,19.72-4.6,76.39-44,100.45-30.62,18.69-62.42,17.43-74.34,17.33-43.4-.37-2091.81-4.52-2201,0-9.88.41-40.71,2.41-71.33-14.67-54.9-30.62-62-58.66-66.5-103.83-.75-7.56-16.07,80.86,28.1,126.9,46.14,48.1,116.65,41,128.4,39.6Z"/><ellipse class="cls-4" cx="1500" cy="2623.66" rx="877" ry="92"/></g></svg>