<svg xmlns="http://www.w3.org/2000/svg" viewBox="0 0 3000 3000"><defs><style>.cls-1{fill:none;stroke:#355963;stroke-linecap:round;stroke-miterlimit:10;stroke-width:10px;}.cls-2{opacity:0.3;}.cls-3{fill:#355963;}</style></defs><g id="Lines"><path class="cls-1" d="M859.67,2167c65.36-195.28,232-339,432-372,216.47-35.68,436.39,64.28,556,253.33"/><path class="cls-1" d="M918.9,2042.87c-67-24.09-249.26-78.83-431.23,4.11-103.76,47.29-243.34,132.69-243.34,246,0,115.33,104.13,134,129.38,134h2260a90.72,90.72,0,0,0,88.69-71.19A143.46,143.46,0,0,0,2561.67,2183"/><path class="cls-1" d="M1685.28,1881.58c34.42-13.18,102.63-33.9,188.39-23.6,104.23,12.51,173,61.47,204.41,87.77a21,21,0,0,0,15,4.85c51.14-3.7,151.32-3.22,259.61,49.38,149.09,72.42,216.11,196.31,236,237"/><path class="cls-1" d="M1607.67,1240.64a33.89,33.89,0,0,0,6.66,20.21c28.24,38.07,72.92,86.53,139.34,119.46,151.26,75,256.85-9.09,428.66,43.34,179.12,54.65,266.21,189,273.11,187.33,16-3.78,2.52-263.33-277.77-423.33-241.37-137.78-467.92-44.91-557.25,26.45a34,34,0,0,0-12.75,26.54Z"/><path class="cls-1" d="M1578.92,1214.94a20.49,20.49,0,0,1-12,4.23c-172.25,4.2-284.7-39.94-354.24-79.19-151.15-85.29-176.84-191-365-286-133.81-67.56-210-76.33-210-88,0-20,343.74-251.08,639-106,192.46,94.57,313.63,305.72,310.22,539.1a20.41,20.41,0,0,1-8,15.86Z"/><path class="cls-1" d="M1556.67,1219.36a818,818,0,0,0-219,231.62c-92,146.65-114.89,287.37-121.63,362.18"/><path class="cls-1" d="M1626.78,1276.89a764.32,764.32,0,0,0-82.38,536.75"/><path class="cls-1" d="M1974.46,1119.83A799.54,799.54,0,0,0,2144.67,963c147.66-183,128.09-330,263-459,44-42,120.16-97.3,252.3-126.2a1.33,1.33,0,0,0,.32-2.49c-271.38-135-587.07-119.37-820.62,44.69-244.59,171.81-300.88,437.36-312.4,499.66"/><path class="cls-1" d="M1649.67,968c-7.68-4.26,44.88-171.87,174-317,218.85-246,535.7-290.38,539-282,3,7.72-261.67,55.9-489,286C1721.55,808.94,1657.39,972.27,1649.67,968Z"/><path class="cls-1" d="M1750.67,1205c-.2-6.73,110.7-33.84,237-8,152.16,31.14,256.5,124.8,253,131-3.21,5.68-95.74-64.31-253-100C1850.8,1196.92,1750.86,1211.36,1750.67,1205Z"/><path class="cls-1" d="M1495.56,1054c5.24-2.87-13.92-143.88-182.71-259.5-182.06-124.71-403.34-82.37-404-75s217.23-21.69,403,112C1469.81,945.22,1490.66,1056.72,1495.56,1054Z"/><ellipse class="cls-1" cx="1119.54" cy="2034.3" rx="25.33" ry="45.33" transform="translate(-1110.56 1387.47) rotate(-45)"/><ellipse class="cls-1" cx="1219.25" cy="2054.92" rx="13.45" ry="24.08" transform="translate(-521.72 418.37) rotate(-16.09)"/><ellipse class="cls-1" cx="498.27" cy="2271.44" rx="18.52" ry="33.14" transform="translate(-1589.28 1246.82) rotate(-51.48)"/><ellipse class="cls-1" cx="1873.33" cy="1922.92" rx="24.08" ry="13.45" transform="translate(-710.48 1194.29) rotate(-30)"/><ellipse class="cls-1" cx="2171.87" cy="2170.41" rx="18.16" ry="32.5" transform="translate(-292.08 4002.53) rotate(-81.61)"/><ellipse class="cls-1" cx="2126.35" cy="2271.44" rx="66.27" ry="37.03" transform="translate(-850.84 1367.49) rotate(-30)"/><ellipse class="cls-1" cx="1477.06" cy="2329.94" rx="28.04" ry="15.67" transform="translate(-1251.7 2735.16) rotate(-66.07)"/></g><g id="Shadows" class="cls-2"><path class="cls-3" d="M1650.48,968c-7.68-4.26,44.89-171.87,174-317,218.85-246,535.71-290.38,539-282,3,7.72-261.66,55.9-489,286C1722.37,808.94,1658.2,972.27,1650.48,968Z"/><path class="cls-3" d="M1751.48,1205c-.2-6.73,110.71-33.84,237-8,152.16,31.14,256.5,124.8,253,131-3.21,5.68-95.73-64.31-253-100C1851.62,1196.92,1751.67,1211.36,1751.48,1205Z"/><path class="cls-3" d="M1496.37,1054c5.24-2.87-13.92-143.88-182.71-259.5-182.06-124.71-403.34-82.37-404-75s217.23-21.69,403,112C1470.63,945.22,1491.47,1056.72,1496.37,1054Z"/><path class="cls-3" d="M1578.92,1214.94c.44-2.84-181.05,13.47-347.25-96-141.23-93-124.73-180.16-269-272-150.34-95.7-319.41-97.26-323-84.82-3,10.27,107,29,247,113.82,171.14,103.69,172.8,176.29,311.34,255.43C1385.27,1238.39,1578.46,1217.87,1578.92,1214.94Z"/><path class="cls-3" d="M1605.83,1237.48c2.73-3.06,46.62,85.84,177.84,134.83,155.33,58,272-30.66,422.66,8.89,169.65,44.54,253.31,225.42,249.11,229.78-3.77,3.91-80.39-122.07-234.77-176-170.76-59.65-248.34,8.67-414.94-34.21C1670.05,1365.86,1603.07,1240.58,1605.83,1237.48Z"/><path class="cls-3" d="M1297,1524c2.71,220.34,125.38,237.78,160,238.57,33.94.77,70.48-30.67,70.48-72.23l16.92,123.33-110.76-23-137.31,3.63L1216,1813.16l22.42-144.36Z"/><ellipse class="cls-3" cx="1120.15" cy="2033.81" rx="25.33" ry="45.33" transform="translate(-1110.03 1387.75) rotate(-45)"/><ellipse class="cls-3" cx="1219.86" cy="2054.42" rx="13.45" ry="24.08" transform="translate(-521.56 418.52) rotate(-16.09)"/><ellipse class="cls-3" cx="498.88" cy="2270.94" rx="18.52" ry="33.14" transform="translate(-1588.66 1247.11) rotate(-51.48)"/><ellipse class="cls-3" cx="1873.93" cy="1922.42" rx="24.08" ry="13.45" transform="translate(-710.15 1194.52) rotate(-30)"/><ellipse class="cls-3" cx="2172.48" cy="2169.91" rx="18.16" ry="32.5" transform="translate(-291.06 4002.7) rotate(-81.61)"/><ellipse class="cls-3" cx="2126.95" cy="2270.94" rx="66.27" ry="37.03" transform="translate(-850.51 1367.73) rotate(-30)"/><ellipse class="cls-3" cx="1477.67" cy="2329.44" rx="28.04" ry="15.67" transform="translate(-1250.88 2735.42) rotate(-66.07)"/><path class="cls-3" d="M2656,378.66c-5.53-14.77-221.7-5.64-350.37,137.32-118.17,131.3-83,292-160,393-121.82,159.79-400.63,223.87-395,236,2.11,4.57,91.6-24.85,146-27.89,40.41-2.26,66.14,10.92,77.83,2.7,56.21-39.52,129.18-118.67,170.21-156.85,101-94,133.66-302,210-400C2476.69,406.32,2661.12,392.2,2656,378.66Z"/><path class="cls-3" d="M1605.75,1241.65c4.61,19.12,20,29,22.19,36.66L1603.83,1326c6.06-12,1.92-49.09-19.72-59.89-32.4-16.16-121,26-162.25,73.38,34.76-34.14,103.14-102.07,130.25-120C1560.75,1213.72,1599.22,1214.54,1605.75,1241.65Z"/><path class="cls-3" d="M2565,2427c10.43,1.16,111.12,11,149.24-48.75,20.14-31.58-8.73-125.6-5.24-117,8,19.72-4.6,76.39-44,100.45-30.62,18.69-62.42,17.43-74.33,17.33-43.4-.37-2091.82-4.52-2201,0-9.89.41-40.71,2.41-71.34-14.67-54.9-30.62-62-58.66-66.5-103.83-.75-7.56-16.07,80.86,28.1,126.9,46.14,48.1,116.65,41,128.4,39.6Z"/><ellipse class="cls-3" cx="1485.02" cy="2623.66" rx="877" ry="92"/></g></svg>