<svg xmlns="http://www.w3.org/2000/svg" viewBox="0 0 3000 3000"><defs><style>.cls-1,.cls-2,.cls-3{fill:none;stroke:#355963;stroke-miterlimit:10;}.cls-1{stroke-width:10px;}.cls-2{stroke-width:10px;}.cls-3{stroke-width:10px;}.cls-4{opacity:0.3;}.cls-5{fill:#355a63;}</style></defs><g id="Lines"><circle class="cls-1" cx="1076.16" cy="1822.2" r="243"/><circle class="cls-1" cx="1076.16" cy="1822.2" r="110.84"/><g id="_Radial_Repeat_" data-name="&lt;Radial Repeat&gt;"><circle class="cls-2" cx="910.41" cy="2218.39" r="43.13"/></g><g id="_Radial_Repeat_2" data-name="&lt;Radial Repeat&gt;"><circle class="cls-2" cx="678.33" cy="1986.29" r="43.13"/></g><g id="_Radial_Repeat_3" data-name="&lt;Radial Repeat&gt;"><circle class="cls-2" cx="678.34" cy="1658.07" r="43.13"/></g><g id="_Radial_Repeat_4" data-name="&lt;Radial Repeat&gt;"><circle class="cls-2" cx="910.44" cy="1425.99" r="43.13"/></g><g id="_Radial_Repeat_5" data-name="&lt;Radial Repeat&gt;"><circle class="cls-2" cx="1238.67" cy="1426" r="43.13"/></g><g id="_Radial_Repeat_6" data-name="&lt;Radial Repeat&gt;"><circle class="cls-2" cx="1470.75" cy="1658.1" r="43.13"/></g><g id="_Radial_Repeat_7" data-name="&lt;Radial Repeat&gt;"><circle class="cls-2" cx="1470.73" cy="1986.33" r="43.13"/></g><g id="_Radial_Repeat_8" data-name="&lt;Radial Repeat&gt;"><circle class="cls-2" cx="1238.63" cy="2218.41" r="43.13"/></g><circle class="cls-1" cx="1076.16" cy="1822.2" r="207.49"/><circle class="cls-1" cx="1074.67" cy="1822.2" r="587.33"/><circle class="cls-1" cx="1074.67" cy="1823.46" r="664.67"/><path class="cls-1" d="M518.17,2185.68l-42,41.92c-12.44,12.41-18.51,27.08-16.72,42.21s13.4,24.76,20.71,32.08l56.74,56.87,56.74,56.87c7.3,7.32,16.83,18.94,32,20.77s29.81-4.21,42.25-16.62l42-41.92"/><path class="cls-1" d="M424.14,1685.72l-59.34-.07c-17.57,0-32.24,6.06-41.67,18s-8,27-8.05,37.32l-.09,80.33-.09,80.34c0,10.34-1.49,25.3,8,37.34s24.06,18.1,41.63,18.12l59.34.06"/><path class="cls-1" d="M711.18,1265.7l-41.91-42c-12.42-12.44-27.09-18.51-42.22-16.72s-24.75,13.4-32.07,20.71l-56.87,56.74-56.87,56.74c-7.32,7.3-18.95,16.83-20.78,32s4.21,29.81,16.63,42.25l41.91,42"/><path class="cls-1" d="M1211.14,1171.67l.07-59.34c0-17.57-6.06-32.24-18-41.67s-27-8-37.33-8.05l-80.33-.09-80.33-.09c-10.34,0-25.31-1.49-37.35,8s-18.09,24.06-18.11,41.63l-.07,59.34"/><path class="cls-1" d="M1631.16,1458.71l42-41.91c12.44-12.42,18.51-27.09,16.72-42.22s-13.4-24.76-20.7-32.07l-56.74-56.87-56.74-56.87c-7.31-7.32-16.84-19-32-20.78s-29.81,4.21-42.25,16.63l-42,41.91"/><path class="cls-1" d="M1725.19,1958.67l59.34.07c17.58,0,32.24-6.06,41.68-18s8-27,8-37.33l.09-80.33.09-80.33c0-10.34,1.49-25.31-8-37.35s-24-18.09-41.63-18.11l-59.34-.07"/><path class="cls-1" d="M1438.15,2378.69l41.92,42c12.41,12.44,27.08,18.51,42.21,16.72s24.76-13.4,32.08-20.7l56.87-56.74,56.87-56.74c7.32-7.31,18.94-16.84,20.77-32s-4.21-29.81-16.62-42.25l-41.92-42"/><path class="cls-1" d="M938.19,2472.72l-.07,59.34c0,17.58,6.06,32.24,18,41.68s27,8,37.32,8l80.33.09,80.34.09c10.34,0,25.3,1.49,37.34-8s18.1-24.05,18.12-41.63l.06-59.34"/><circle class="cls-1" cx="1872.71" cy="1027.66" r="67.56"/><path class="cls-1" d="M1177,1064q-.81-16.87-.82-34c0-384.93,312-697,697-697s697,312,697,697-312.05,697-697,697q-19.7,0-39.14-1.08"/><path class="cls-1" d="M1117.93,1062.92q-.81-17.67-.82-35.55c0-417.69,338.61-756.31,756.31-756.31s756.31,338.62,756.31,756.31-338.61,756.32-756.31,756.32q-19.79,0-39.33-1"/><path class="cls-1" d="M1946.2,272.89c-.8-10.47-2.11-24.91-7.19-51.72-1.72-9.06-4.06-16-8.81-20.5a25.7,25.7,0,0,0-17.74-6.67H1833a25.74,25.74,0,0,0-17.75,6.67c-4.75,4.45-7.09,11.44-8.8,20.5-5.08,26.81-6.39,41.25-7.2,51.72"/><path class="cls-1" d="M1946.2,1782.65c-.8,10.47-2.11,24.9-7.19,51.72-1.72,9.06-4.06,16.05-8.81,20.5a25.7,25.7,0,0,1-17.74,6.67h-78.71"/><path class="cls-1" d="M2628.3,953.88c10.47.81,24.91,2.12,51.72,7.2,9.06,1.71,16.05,4,20.5,8.8a25.74,25.74,0,0,1,6.67,17.75v39.74h0v39.75a25.74,25.74,0,0,1-6.67,17.75c-4.45,4.75-11.44,7.09-20.5,8.8-26.81,5.08-41.25,6.39-51.72,7.2"/><path class="cls-1" d="M1118.54,953.88c-20.87,1.12-40.87,3.12-60.87,9.12-9,3-17,11-18,21-1,25,0,51,0,75.85"/><path class="cls-1" d="M2458.78,545.45c6.83-8,16.11-19.11,31.48-41.66,5.19-7.62,8.48-14.22,8.27-20.72a25.75,25.75,0,0,0-7.83-17.27l-28.11-28.1h0l-28.1-28.1a25.74,25.74,0,0,0-17.26-7.84c-6.51-.21-13.11,3.08-20.72,8.27-22.56,15.37-33.69,24.65-41.66,31.49"/><path class="cls-1" d="M2459.56,1509.3c6.83,8,16.11,19.11,31.48,41.66,5.19,7.62,8.48,14.22,8.27,20.72a25.8,25.8,0,0,1-7.83,17.27l-28.11,28.1h0l-28.1,28.1A25.74,25.74,0,0,1,2418,1653c-6.51.21-13.11-3.08-20.73-8.27-22.55-15.37-33.68-24.65-41.66-31.49"/><path class="cls-1" d="M1392,441.74c-8-6.84-19.11-16.12-41.67-31.49-7.61-5.19-14.21-8.48-20.72-8.27a25.74,25.74,0,0,0-17.26,7.84l-28.1,28.1h0L1256.14,466a25.71,25.71,0,0,0-7.83,17.26c-.21,6.51,3.08,13.1,8.27,20.72,15.37,22.55,24.65,33.69,31.48,41.66"/><path class="cls-1" d="M2318.89,413.74c4.63-9.43,10.83-22.53,20.08-48.2,3.13-8.68,4.66-15.89,2.83-22.14a25.71,25.71,0,0,0-11.9-14.75l-34.23-20.19h0l-34.23-20.19a25.73,25.73,0,0,0-18.68-3.28c-6.35,1.43-11.92,6.26-18,13.19-18,20.51-26.45,32.28-32.47,40.89"/><path class="cls-1" d="M2560.46,1346.83c8.61,6,20.38,14.48,40.9,32.47,6.93,6.08,11.76,11.65,13.18,18a25.77,25.77,0,0,1-3.27,18.68l-20.19,34.23h0l-20.19,34.23a25.7,25.7,0,0,1-14.76,11.9c-6.25,1.83-13.46.3-22.13-2.83-25.68-9.25-38.78-15.45-48.21-20.08"/><path class="cls-1" d="M1260,579.85c-9.43-4.63-22.53-10.83-48.2-20.08-8.68-3.12-15.89-4.66-22.13-2.83a25.73,25.73,0,0,0-14.76,11.9l-20.19,34.24h0l-20.19,34.23a25.7,25.7,0,0,0-3.28,18.67c1.43,6.36,6.26,11.92,13.19,18,20.52,18,32.28,26.46,40.89,32.47"/><path class="cls-1" d="M2621.93,908.91c9.94-3.4,23.59-8.28,48.29-19.89,8.34-3.93,14.52-7.94,17.65-13.65a25.77,25.77,0,0,0,2-18.85L2680,818h0L2670,779.55A25.73,25.73,0,0,0,2659.14,764c-5.5-3.48-12.85-4-22-3.4-27.23,1.78-41.54,4.12-51.88,6"/><path class="cls-1" d="M2133,1739.51c1.84,10.34,4.18,24.65,6,51.88.6,9.2.08,16.55-3.4,22a25.73,25.73,0,0,1-15.52,10.89l-38.49,9.93h0l-38.48,9.93a25.77,25.77,0,0,1-18.85-2c-5.71-3.13-9.72-9.31-13.65-17.65-11.61-24.7-16.49-38.35-19.89-48.28"/><path class="cls-1" d="M1755.75,277.63c-3.4-9.93-8.27-23.58-19.89-48.28-3.92-8.34-7.94-14.52-13.65-17.65a25.76,25.76,0,0,0-18.85-2l-38.48,9.93h0l-38.48,9.93a25.7,25.7,0,0,0-15.52,10.89c-3.49,5.5-4,12.85-3.41,22.05,1.79,27.23,4.12,41.54,6,51.88"/><path class="cls-1" d="M2139.55,317.48c1.94-10.32,4.44-24.6,6.51-51.82.7-9.19.26-16.54-3.17-22.08a25.74,25.74,0,0,0-15.4-11.06l-38.37-10.34h0l-38.37-10.34a25.74,25.74,0,0,0-18.87,1.81c-5.75,3.07-9.83,9.21-13.84,17.51-11.88,24.57-16.91,38.16-20.41,48.06"/><path class="cls-1" d="M2620.89,1152.53c9.91,3.5,23.5,8.53,48.07,20.41,8.3,4,14.44,8.09,17.5,13.84a25.69,25.69,0,0,1,1.82,18.87L2677.94,1244h0l-10.35,38.37a25.68,25.68,0,0,1-11.05,15.4c-5.54,3.43-12.9,3.87-22.09,3.17-27.21-2.08-41.49-4.57-51.81-6.51"/><path class="cls-1" d="M1163.17,759.59c-10.32-2-24.6-4.44-51.82-6.52-9.19-.7-16.54-.26-22.08,3.17a25.77,25.77,0,0,0-11.06,15.4L1067.87,810h0l-10.34,38.37a25.75,25.75,0,0,0,1.81,18.87c3.07,5.75,9.21,9.82,17.51,13.84,24.57,11.88,38.16,16.9,48.06,20.41"/><path class="cls-1" d="M2563.52,714.05c8.67-5.92,20.53-14.26,41.24-32,7-6,11.89-11.52,13.38-17.86a25.77,25.77,0,0,0-3.07-18.7L2595.25,611h0l-19.82-34.45a25.81,25.81,0,0,0-14.63-12.06c-6.23-1.9-13.46-.44-22.16,2.59-25.78,9-38.94,15-48.42,19.56"/><path class="cls-1" d="M2313.41,1644.89c4.52,9.47,10.59,22.64,19.56,48.42,3,8.7,4.49,15.93,2.59,22.16a25.76,25.76,0,0,1-12.06,14.62l-34.45,19.83h0l-34.45,19.82a25.77,25.77,0,0,1-18.7,3.07c-6.34-1.49-11.86-6.39-17.86-13.38-17.77-20.71-26.11-32.57-32-41.24"/><path class="cls-1" d="M1560.49,336.27c-5.92-8.68-14.25-20.54-32-41.25-6-7-11.52-11.88-17.85-13.37a25.7,25.7,0,0,0-18.71,3.07l-34.45,19.82h0L1423,324.36A25.75,25.75,0,0,0,1410.94,339c-1.89,6.23-.44,13.45,2.59,22.16,9,25.77,15,38.94,19.56,48.42"/><path class="cls-3" d="M2213.35,475.81c-33.92-21.34-73.51-40.26-98.9-50.21h0c-53.23-21.66-179.65-58-202.13-25-6.34,9.31-6.47,20.3-6.35,28.8l5.84,435.88c.18,13.47.43,27.43,11,33.88a26.35,26.35,0,0,0,4.13,1.65c12.13,2.64,21.93-7.31,31.34-16.94L2262.91,572c5.94-6.08,13.42-14.13,15.24-25.24,3.38-20.71-27.23-47.33-64.8-71"/><path class="cls-3" d="M1517.42,483.07c33.19-22.45,72.14-42.67,97.18-53.46h0c52.49-23.4,177.63-63.89,201.19-31.65,6.65,9.09,7.14,20.07,7.31,28.57l8.58,435.84c.27,13.47.48,27.43-9.91,34.22a26.32,26.32,0,0,1-4.07,1.79c-12,3-22.16-6.58-31.89-15.9L1471.07,580.87c-6.14-5.88-13.88-13.68-16.07-24.73-4.07-20.58,25.65-48.2,62.42-73.07"/><path class="cls-3" d="M1716.25,1654.68c51.12,12.54,104,18.38,117.79-1.86,6.34-9.31,6.47-20.3,6.35-28.8l-5.84-435.89c-.18-13.47-.43-27.42-11-33.87a25.41,25.41,0,0,0-4.13-1.65c-12.13-2.64-21.93,7.3-31.34,16.94l-144.51,148"/><path class="cls-3" d="M2228.94,1570.37c-33.19,22.45-72.14,42.66-97.18,53.46h0c-52.49,23.4-177.63,63.88-201.19,31.65-6.65-9.09-7.14-20.07-7.31-28.57l-8.58-435.84c-.27-13.47-.48-27.43,9.91-34.23a26.27,26.27,0,0,1,4.07-1.78c12-3,22.16,6.57,31.89,15.89l314.74,301.62c6.14,5.88,13.88,13.67,16.07,24.72,4.07,20.59-25.65,48.2-62.42,73.08"/><path class="cls-3" d="M1237.52,892.75c7.85-39.3,21.36-81,31.6-106.32h0c20.91-53.53,81.53-170.26,120.94-163.87,11.12,1.8,19.18,9.27,25.27,15.2l312.3,304.13c9.66,9.4,19.61,19.18,17,31.32a25.73,25.73,0,0,1-1.64,4.13c-6.43,10.62-20.39,10.89-33.86,11.09l-435.88,6.48c-8.5.12-19.49,0-28.8-6.31-17.36-11.79-15.62-52.32-6.92-95.85"/><path class="cls-3" d="M2505.16,876.52c-8.91-39.07-23.54-80.44-34.46-105.42h0c-22.35-52.94-86.11-168-125.33-160.54-11.07,2.1-18.92,9.79-24.85,15.88l-304,312.47c-9.39,9.66-19.08,19.71-16.13,31.77a26.24,26.24,0,0,0,1.75,4.08c6.72,10.44,20.68,10.34,34.15,10.17l435.89-5.31c8.5-.11,19.49-.51,28.63-7.09,17-12.25,14.19-52.72,4.32-96"/><path class="cls-3" d="M2508.85,1162.5c-7.88,39.29-21.42,81-31.67,106.29h0c-20.94,53.52-81.64,170.21-121.05,163.79-11.12-1.81-19.17-9.28-25.26-15.22L2018.76,1113c-9.64-9.4-19.59-19.19-17-31.33a25.26,25.26,0,0,1,1.64-4.12c6.44-10.62,20.4-10.88,33.87-11.07l435.88-6.19c8.5-.12,19.49,0,28.8,6.33,17.35,11.8,15.58,52.33,6.86,95.86"/><path class="cls-3" d="M1587.87,1261.86l142-145.07c9.42-9.62,19.14-19.65,16.23-31.72a27.19,27.19,0,0,0-1.74-4.08c-6.69-10.47-20.65-10.4-34.12-10.28l-435.91,4c-8.5.08-19.48.45-28.64,7-17.07,12.2-14.35,52.68-4.61,96"/><path class="cls-3" d="M1241,1177.74c.16.72.33,1.44.49,2.17"/></g><g id="Shadows" class="cls-4"><ellipse class="cls-5" cx="1518.89" cy="2768.06" rx="877" ry="92"/><path class="cls-5" d="M415.63,1910.33c6.83-5.71,157.37,524,659,524,509,0,652.2-529.71,659-524s-90.17,577.79-659,577.79C506.33,2488.12,408.85,1916,415.63,1910.33Z"/><path class="cls-5" d="M413.33,1910.33c-15.59,13.73-26.91,14.34-34.66,14.34-65,0-52.34-179.67-63-179.67v180l23.66,27.71,80.34,2.33Z"/><path class="cls-5" d="M1736.08,1910.33c15.6,13.73,26.92,14.34,34.67,14.34,65,0,52.33-179.67,63-179.67v180l-23.67,27.71-80.33,2.33Z"/><polygon class="cls-5" points="936.11 2470.78 939.67 2553.89 964.56 2581.44 1182.78 2581.44 1209.89 2547.22 1209.89 2470.78 1110.78 2487.67 1007.22 2485.44 936.11 2470.78"/><polygon class="cls-5" points="519.33 2185.96 463.08 2247.24 461.19 2284.32 615.5 2438.63 658.87 2433.6 712.92 2379.55 630.9 2321.41 559.24 2246.61 519.33 2185.96"/><polygon class="cls-5" points="1626.78 2185.96 1683.04 2247.24 1684.92 2284.32 1530.62 2438.63 1487.25 2433.6 1433.19 2379.55 1515.22 2321.41 1586.87 2246.61 1626.78 2185.96"/><path class="cls-5" d="M1835.7,1782.91q18.57.78,37.72.78c580-.2,756.31-521.83,756.31-756.32,0-13.85-143.94,667-756.31,665.63q-40.23-.09-77.73-3.4l32.42,16.07Z"/><polygon class="cls-5" points="1833.75 1785.54 1948.09 1786.48 1931.59 1861.37 1833.75 1860.71 1833.75 1785.54"/><polygon class="cls-5" points="1987.69 1780.48 2131.3 1739.51 2136.46 1816.02 2024.29 1848.1 1987.69 1780.48"/><polygon class="cls-5" points="2184.83 1724.49 2311.18 1644.89 2337.59 1716.88 2238.92 1779.13 2184.83 1724.49"/><polygon class="cls-5" points="2353.02 1611.55 2461.14 1508.53 2501.27 1573.88 2416.85 1654.41 2353.02 1611.55"/><polygon class="cls-5" points="2487.4 1475.75 2560.89 1345.75 2618.29 1396.61 2560.93 1498.21 2487.4 1475.75"/><polygon class="cls-5" points="2581.49 1296.26 2622.79 1152.75 2690.43 1188.89 2658.22 1301.03 2581.49 1296.26"/><path class="cls-5" d="M2707.19,991.33c-5.3,40.1-29.8,65.12-50.86,64-3.07-.16-14.55-1.33-26.69-16.27l-5.27,65.28,79.3-20.34Z"/><path class="cls-5" d="M1039.22,991.33c5.31,40.1,29.8,65.12,50.86,64,3.08-.16,14.55-1.33,26.69-16.27l5.27,28.45-79.3-7.66Z"/><path class="cls-5" d="M1805.16,1027.66c4-2.65-6.73,69.27,67.55,69.34s63.7-71.94,67.56-69.34c8.15,5.52,0,100-68.16,100C1805.16,1127.67,1796.83,1033.25,1805.16,1027.66Z"/><path class="cls-5" d="M2612.17,864.59a44.61,44.61,0,0,0,73.94-29.15l3.56,39.34-68.45,31.55Z"/><path class="cls-5" d="M1134,859.76a44.62,44.62,0,0,1-74-29.14L1056.54,870,1125,901.51Z"/><path class="cls-5" d="M2537.38,664.91a68.31,68.31,0,0,0,40.06,17.87,67,67,0,0,0,32.37-5.42l-46.29,36.69Z"/><path class="cls-5" d="M1212.44,657.32a68.42,68.42,0,0,1-40.07,17.86,67,67,0,0,1-32.36-5.41l46.29,36.68Z"/><path class="cls-5" d="M965.33,1822.2c3.87-2.36,0,110.83,112.31,110.81,98.58,0,105.51-113.09,109.36-110.81,4.17,2.46.37,142.13-109.33,146.13C965,1972.44,961.14,1824.74,965.33,1822.2Z"/><path class="cls-5" d="M835.36,1861.43c8.41-3.89,19.31,203.77,242.53,202.68,205.76-1,230.7-206.44,239.07-202.68,9.06,4.07.81,234.64-237.54,241.25C834.65,2109.46,826.26,1865.64,835.36,1861.43Z"/></g></svg>