<svg xmlns="http://www.w3.org/2000/svg" viewBox="0 0 3000 3000"><defs><style>.cls-1,.cls-2{fill:none;stroke:#0a2b5e;stroke-miterlimit:10;}.cls-1{stroke-width:10px;}.cls-2{stroke-width:10px;}.cls-3{opacity:0.3;}.cls-4{fill:#0a2b5e;}</style></defs><g id="Lines"><circle class="cls-1" cx="1088.38" cy="1822.2" r="243"/><circle class="cls-1" cx="1088.38" cy="1822.2" r="110.84"/><g id="_Radial_Repeat_" data-name="&lt;Radial Repeat&gt;"><circle class="cls-1" cx="922.62" cy="2218.39" r="43.13"/></g><g id="_Radial_Repeat_2" data-name="&lt;Radial Repeat&gt;"><circle class="cls-1" cx="690.54" cy="1986.29" r="43.13"/></g><g id="_Radial_Repeat_3" data-name="&lt;Radial Repeat&gt;"><circle class="cls-1" cx="690.56" cy="1658.07" r="43.13"/></g><g id="_Radial_Repeat_4" data-name="&lt;Radial Repeat&gt;"><circle class="cls-1" cx="922.66" cy="1425.99" r="43.13"/></g><g id="_Radial_Repeat_5" data-name="&lt;Radial Repeat&gt;"><circle class="cls-1" cx="1250.88" cy="1426" r="43.13"/></g><g id="_Radial_Repeat_6" data-name="&lt;Radial Repeat&gt;"><circle class="cls-1" cx="1482.96" cy="1658.1" r="43.13"/></g><g id="_Radial_Repeat_7" data-name="&lt;Radial Repeat&gt;"><circle class="cls-1" cx="1482.95" cy="1986.33" r="43.13"/></g><g id="_Radial_Repeat_8" data-name="&lt;Radial Repeat&gt;"><circle class="cls-1" cx="1250.85" cy="2218.41" r="43.13"/></g><circle class="cls-1" cx="1088.38" cy="1822.2" r="207.49"/><circle class="cls-1" cx="1086.88" cy="1822.2" r="587.33"/><circle class="cls-1" cx="1086.88" cy="1823.46" r="664.67"/><path class="cls-1" d="M530.39,2185.68l-42,41.92c-12.44,12.41-18.51,27.08-16.72,42.21s13.4,24.76,20.7,32.08l56.74,56.87,56.74,56.87c7.3,7.32,16.84,18.94,32,20.77s29.81-4.21,42.25-16.62l42-41.92"/><path class="cls-1" d="M436.36,1685.72l-59.34-.07c-17.58,0-32.25,6.06-41.68,18s-8,27-8,37.32l-.09,80.33-.09,80.34c0,10.34-1.5,25.3,7.95,37.34s24.06,18.1,41.64,18.12l59.34.06"/><path class="cls-1" d="M723.39,1265.7l-41.91-42c-12.41-12.44-27.08-18.51-42.21-16.72s-24.76,13.4-32.08,20.71l-56.87,56.74-56.87,56.74c-7.32,7.3-18.94,16.83-20.78,32s4.22,29.81,16.63,42.25l41.92,42"/><path class="cls-1" d="M1223.36,1171.67l.06-59.34c0-17.57-6.06-32.24-18-41.67s-27-8-37.32-8.05l-80.34-.09-80.33-.09c-10.34,0-25.3-1.49-37.34,8S952,1094.45,952,1112l-.07,59.34"/><path class="cls-1" d="M1643.37,1458.71l42-41.91c12.44-12.42,18.51-27.09,16.73-42.22s-13.41-24.75-20.71-32.07l-56.74-56.87-56.74-56.87c-7.3-7.32-16.84-19-32-20.78s-29.81,4.21-42.25,16.63l-42,41.91"/><path class="cls-1" d="M1737.41,1958.67l59.34.07c17.57,0,32.24-6.06,41.67-18s8-27,8-37.33l.09-80.33.1-80.33c0-10.34,1.49-25.31-8-37.35s-24.06-18.09-41.63-18.11l-59.35-.07"/><path class="cls-1" d="M1450.37,2378.69l41.91,42c12.41,12.44,27.09,18.51,42.21,16.72s24.76-13.4,32.08-20.7l56.87-56.74,56.87-56.74c7.32-7.31,19-16.84,20.78-32s-4.22-29.8-16.63-42.24l-41.91-42"/><path class="cls-1" d="M950.41,2472.72l-.07,59.34c0,17.58,6.06,32.24,18,41.68s27,8,37.33,8l80.33.09,80.33.09c10.34,0,25.31,1.49,37.34-8s18.1-24.05,18.12-41.63l.07-59.34"/><circle class="cls-1" cx="1884.93" cy="1027.66" r="67.56"/><path class="cls-1" d="M1189.25,1064q-.81-16.87-.81-34c0-384.93,312-697,697-697s697,312,697,697-312.05,697-697,697q-19.71,0-39.14-1.08"/><path class="cls-1" d="M1130.15,1062.92q-.83-17.67-.83-35.55c0-417.69,338.62-756.31,756.32-756.31S2642,609.68,2642,1027.37s-338.62,756.32-756.31,756.32q-19.8,0-39.34-1"/><path class="cls-1" d="M1958.42,272.89c-.81-10.47-2.12-24.91-7.2-51.72-1.71-9.06-4-16-8.8-20.5a25.74,25.74,0,0,0-17.75-6.67h-79.49a25.7,25.7,0,0,0-17.74,6.67c-4.75,4.45-7.09,11.44-8.81,20.5-5.08,26.81-6.39,41.25-7.19,51.72"/><path class="cls-1" d="M1958.42,1782.65c-.81,10.47-2.12,24.9-7.2,51.72-1.71,9.06-4,16.05-8.8,20.5a25.74,25.74,0,0,1-17.75,6.67H1846"/><path class="cls-1" d="M2640.51,953.88c10.48.81,24.91,2.12,51.73,7.2,9.05,1.71,16,4,20.5,8.8a25.78,25.78,0,0,1,6.66,17.75v39.74h0v39.75a25.78,25.78,0,0,1-6.66,17.75c-4.46,4.75-11.45,7.09-20.5,8.8-26.82,5.08-41.25,6.39-51.73,7.2"/><path class="cls-1" d="M1130.76,953.88c-20.88,1.12-40.88,3.12-60.88,9.12-9,3-17,11-18,21-1,25,0,51,0,75.85"/><path class="cls-1" d="M2471,545.45c6.84-8,16.12-19.11,31.49-41.66,5.19-7.62,8.48-14.22,8.27-20.72a25.76,25.76,0,0,0-7.84-17.27l-28.1-28.1h0l-28.1-28.1a25.76,25.76,0,0,0-17.27-7.84c-6.5-.21-13.1,3.08-20.72,8.27-22.55,15.37-33.69,24.65-41.66,31.49"/><path class="cls-1" d="M2471.77,1509.3c6.84,8,16.12,19.11,31.49,41.66,5.19,7.62,8.48,14.22,8.27,20.72a25.76,25.76,0,0,1-7.84,17.27l-28.1,28.1h0l-28.11,28.1a25.72,25.72,0,0,1-17.26,7.84c-6.51.21-13.1-3.08-20.72-8.27-22.55-15.37-33.69-24.65-41.66-31.49"/><path class="cls-1" d="M1404.21,441.74c-8-6.84-19.11-16.12-41.66-31.49-7.62-5.19-14.22-8.48-20.72-8.27a25.76,25.76,0,0,0-17.27,7.84l-28.1,28.1h0L1268.36,466a25.72,25.72,0,0,0-7.84,17.26c-.21,6.51,3.08,13.1,8.27,20.72,15.37,22.55,24.65,33.69,31.49,41.66"/><path class="cls-1" d="M2331.11,413.74c4.63-9.43,10.83-22.53,20.08-48.2,3.12-8.68,4.66-15.89,2.83-22.14a25.75,25.75,0,0,0-11.9-14.75l-34.24-20.19h0l-34.23-20.19A25.7,25.7,0,0,0,2255,285c-6.36,1.43-11.92,6.26-18,13.19-18,20.51-26.46,32.28-32.47,40.89"/><path class="cls-1" d="M2572.68,1346.83c8.61,6,20.37,14.48,40.89,32.47,6.93,6.08,11.76,11.65,13.19,18a25.73,25.73,0,0,1-3.28,18.68l-20.19,34.23h0l-20.19,34.23a25.7,25.7,0,0,1-14.76,11.9c-6.24,1.83-13.45.3-22.13-2.83-25.67-9.25-38.77-15.45-48.2-20.08"/><path class="cls-1" d="M1272.25,579.85c-9.43-4.63-22.53-10.83-48.21-20.08-8.67-3.12-15.88-4.66-22.13-2.83a25.76,25.76,0,0,0-14.76,11.9L1167,603.08h0l-20.19,34.23A25.74,25.74,0,0,0,1143.5,656c1.42,6.36,6.25,11.92,13.18,18,20.52,18,32.29,26.46,40.9,32.47"/><path class="cls-1" d="M2634.15,908.91c9.94-3.4,23.59-8.28,48.28-19.89,8.35-3.93,14.53-7.94,17.65-13.65a25.67,25.67,0,0,0,2-18.85L2692.18,818h0l-9.93-38.49A25.81,25.81,0,0,0,2671.36,764c-5.5-3.48-12.86-4-22.05-3.4-27.24,1.78-41.54,4.12-51.88,6"/><path class="cls-1" d="M2145.17,1739.51c1.84,10.34,4.17,24.65,6,51.88.6,9.2.08,16.55-3.41,22a25.7,25.7,0,0,1-15.52,10.89l-38.48,9.93h0l-38.48,9.93a25.76,25.76,0,0,1-18.85-2c-5.72-3.13-9.73-9.31-13.65-17.65-11.62-24.7-16.49-38.35-19.89-48.28"/><path class="cls-1" d="M1768,277.63c-3.39-9.93-8.27-23.58-19.88-48.28-3.93-8.34-7.94-14.52-13.65-17.65a25.77,25.77,0,0,0-18.85-2l-38.49,9.93h0l-38.48,9.93a25.7,25.7,0,0,0-15.52,10.89c-3.48,5.5-4,12.85-3.4,22.05,1.78,27.23,4.12,41.54,6,51.88"/><path class="cls-1" d="M2151.76,317.48c1.95-10.32,4.44-24.6,6.52-51.82.7-9.19.26-16.54-3.17-22.08a25.77,25.77,0,0,0-15.4-11.06l-38.37-10.34h0L2063,211.84a25.75,25.75,0,0,0-18.87,1.81c-5.74,3.07-9.82,9.21-13.84,17.51-11.88,24.57-16.9,38.16-20.4,48.06"/><path class="cls-1" d="M2633.11,1152.53c9.9,3.5,23.5,8.53,48.07,20.41,8.3,4,14.44,8.09,17.5,13.84a25.79,25.79,0,0,1,1.82,18.87L2690.15,1244h0l-10.34,38.37a25.74,25.74,0,0,1-11.06,15.4c-5.53,3.43-12.89,3.87-22.08,3.17-27.22-2.08-41.49-4.57-51.81-6.51"/><path class="cls-1" d="M1175.38,759.59c-10.32-2-24.6-4.44-51.81-6.52-9.19-.7-16.55-.26-22.09,3.17a25.71,25.71,0,0,0-11,15.4L1080.08,810h0l-10.34,38.37a25.7,25.7,0,0,0,1.82,18.87c3.06,5.75,9.2,9.82,17.5,13.84,24.57,11.88,38.17,16.9,48.07,20.41"/><path class="cls-1" d="M2575.73,714.05c8.68-5.92,20.53-14.26,41.25-32,7-6,11.88-11.52,13.37-17.86a25.68,25.68,0,0,0-3.07-18.7L2607.46,611h0l-19.82-34.45A25.78,25.78,0,0,0,2573,564.5c-6.23-1.9-13.45-.44-22.16,2.59-25.77,9-38.94,15-48.42,19.56"/><path class="cls-1" d="M2325.62,1644.89c4.53,9.47,10.59,22.64,19.56,48.42,3,8.7,4.49,15.93,2.59,22.16a25.7,25.7,0,0,1-12.05,14.62l-34.45,19.83h0l-34.45,19.82a25.81,25.81,0,0,1-18.71,3.07c-6.34-1.49-11.85-6.39-17.86-13.38-17.77-20.71-26.11-32.57-32-41.24"/><path class="cls-1" d="M1572.71,336.27c-5.92-8.68-14.26-20.54-32-41.25-6-7-11.52-11.88-17.86-13.37a25.71,25.71,0,0,0-18.71,3.07l-34.45,19.82h0l-34.44,19.82A25.67,25.67,0,0,0,1423.16,339c-1.9,6.23-.44,13.45,2.59,22.16,9,25.77,15,38.94,19.56,48.42"/><path class="cls-2" d="M2225.56,475.81c-33.92-21.34-73.51-40.26-98.89-50.21h0c-53.24-21.66-179.65-58-202.14-25-6.34,9.31-6.46,20.3-6.35,28.8L1924,865.3c.18,13.47.44,27.43,11,33.88a26.24,26.24,0,0,0,4.12,1.65c12.14,2.64,21.93-7.31,31.35-16.94L2275.12,572c5.94-6.08,13.42-14.13,15.24-25.24,3.39-20.71-27.22-47.33-64.8-71"/><path class="cls-2" d="M1529.63,483.07c33.2-22.45,72.14-42.67,97.18-53.46h0c52.48-23.4,177.63-63.89,201.19-31.65,6.65,9.09,7.13,20.07,7.3,28.57l8.59,435.84c.26,13.47.48,27.43-9.92,34.22a26.21,26.21,0,0,1-4.06,1.79c-12.05,3-22.17-6.58-31.89-15.9L1483.29,580.87c-6.14-5.88-13.89-13.68-16.07-24.73-4.07-20.58,25.64-48.2,62.41-73.07"/><path class="cls-2" d="M1728.46,1654.68c51.12,12.54,104,18.38,117.8-1.86,6.34-9.31,6.46-20.3,6.35-28.8l-5.84-435.89c-.18-13.47-.44-27.42-11-33.87a25.67,25.67,0,0,0-4.12-1.65c-12.14-2.64-21.93,7.3-31.35,16.94l-144.51,148"/><path class="cls-2" d="M2241.16,1570.37C2208,1592.82,2169,1613,2144,1623.83h0c-52.48,23.4-177.63,63.88-201.19,31.65-6.65-9.09-7.13-20.07-7.3-28.57l-8.59-435.84c-.27-13.47-.48-27.43,9.92-34.23a26.17,26.17,0,0,1,4.06-1.78c12-3,22.17,6.57,31.89,15.89l314.74,301.62c6.14,5.88,13.89,13.67,16.07,24.72,4.07,20.59-25.64,48.2-62.41,73.08"/><path class="cls-2" d="M1249.73,892.75c7.85-39.3,21.36-81,31.6-106.32h0c20.91-53.53,81.53-170.26,121-163.87,11.11,1.8,19.17,9.27,25.26,15.2l312.31,304.13c9.65,9.4,19.61,19.18,17,31.32a26.74,26.74,0,0,1-1.65,4.13c-6.43,10.62-20.39,10.89-33.86,11.09l-435.87,6.48c-8.5.12-19.49,0-28.81-6.31-17.36-11.79-15.61-52.32-6.92-95.85"/><path class="cls-2" d="M2517.38,876.52c-8.91-39.07-23.55-80.44-34.47-105.42h0c-22.35-52.94-86.1-168-125.33-160.54-11.06,2.1-18.92,9.79-24.84,15.88l-304,312.47c-9.4,9.66-19.08,19.71-16.13,31.77a25.32,25.32,0,0,0,1.75,4.08c6.72,10.44,20.67,10.34,34.15,10.17l435.89-5.31c8.5-.11,19.48-.51,28.62-7.09,17-12.25,14.2-52.72,4.33-96"/><path class="cls-2" d="M2521.06,1162.5c-7.87,39.29-21.42,81-31.67,106.29h0c-20.95,53.52-81.64,170.21-121,163.79-11.12-1.81-19.17-9.28-25.26-15.22L2031,1113c-9.65-9.4-19.6-19.19-17-31.33a25.3,25.3,0,0,1,1.65-4.12c6.44-10.62,20.39-10.88,33.86-11.07l435.88-6.19c8.5-.12,19.49,0,28.81,6.33,17.35,11.8,15.58,52.33,6.85,95.86"/><path class="cls-2" d="M1600.08,1261.86l142-145.07c9.43-9.62,19.14-19.65,16.23-31.72a26.2,26.2,0,0,0-1.74-4.08c-6.69-10.47-20.65-10.4-34.12-10.28l-435.9,4c-8.5.08-19.49.45-28.65,7-17.07,12.2-14.35,52.68-4.61,96"/><path class="cls-2" d="M1253.24,1177.74c.17.72.33,1.44.5,2.17"/></g><g id="Shadows" class="cls-3"><ellipse class="cls-4" cx="1531.1" cy="2768.06" rx="877" ry="92"/><path class="cls-4" d="M427.85,1910.33c6.83-5.71,157.36,524,659,524,509,0,652.2-529.71,659-524s-90.17,577.79-659,577.79C518.55,2488.12,421.06,1916,427.85,1910.33Z"/><path class="cls-4" d="M425.55,1910.33c-15.6,13.73-26.92,14.34-34.67,14.34-65,0-52.33-179.67-63-179.67v180l23.67,27.71,80.33,2.33Z"/><path class="cls-4" d="M1748.3,1910.33c15.59,13.73,26.91,14.34,34.66,14.34,65,0,52.34-179.67,63-179.67v180l-23.66,27.71L1742,1955Z"/><polygon class="cls-4" points="948.33 2470.78 951.88 2553.89 976.77 2581.44 1194.99 2581.44 1222.1 2547.22 1222.1 2470.78 1122.99 2487.67 1019.44 2485.44 948.33 2470.78"/><polygon class="cls-4" points="531.55 2185.96 475.29 2247.24 473.41 2284.32 627.71 2438.63 671.08 2433.6 725.14 2379.55 643.11 2321.41 571.46 2246.61 531.55 2185.96"/><polygon class="cls-4" points="1639 2185.96 1695.25 2247.24 1697.14 2284.32 1542.83 2438.63 1499.46 2433.6 1445.41 2379.55 1527.43 2321.41 1599.08 2246.61 1639 2185.96"/><polygon class="cls-4" points="1845.96 1785.54 1960.3 1786.48 1943.8 1861.37 1845.96 1860.71 1845.96 1785.54"/><polygon class="cls-4" points="1999.9 1780.48 2143.51 1739.51 2148.67 1816.02 2036.5 1848.1 1999.9 1780.48"/><polygon class="cls-4" points="2197.04 1724.49 2323.39 1644.89 2349.81 1716.88 2251.13 1779.13 2197.04 1724.49"/><polygon class="cls-4" points="2365.24 1611.55 2473.35 1508.53 2513.48 1573.88 2429.07 1654.41 2365.24 1611.55"/><polygon class="cls-4" points="2499.61 1475.75 2573.11 1345.75 2630.5 1396.61 2573.15 1498.21 2499.61 1475.75"/><polygon class="cls-4" points="2593.7 1296.26 2635.01 1152.75 2702.64 1188.89 2670.44 1301.03 2593.7 1296.26"/><path class="cls-4" d="M2719.4,991.33c-5.3,40.1-29.8,65.12-50.85,64-3.08-.16-14.55-1.33-26.69-16.27l-5.27,65.28,79.29-20.34Z"/><path class="cls-4" d="M1051.44,991.33c5.3,40.1,29.8,65.12,50.85,64,3.08-.16,14.55-1.33,26.69-16.27l5.27,28.45-79.29-7.66Z"/><path class="cls-4" d="M1817.37,1027.66c4-2.65-6.73,69.27,67.56,69.34s63.7-71.94,67.55-69.34c8.16,5.52,0,100-68.15,100C1817.37,1127.67,1809.05,1033.25,1817.37,1027.66Z"/><path class="cls-4" d="M2624.38,864.59a44.62,44.62,0,0,0,73.95-29.15l3.55,39.34-68.44,31.55Z"/><path class="cls-4" d="M1146.25,859.76a44.61,44.61,0,0,1-73.94-29.14L1068.75,870l68.45,31.56Z"/><path class="cls-4" d="M2549.59,664.91a68.35,68.35,0,0,0,40.07,17.87,67,67,0,0,0,32.37-5.42l-46.3,36.69Z"/><path class="cls-4" d="M1224.65,657.32a68.34,68.34,0,0,1-40.06,17.86,67,67,0,0,1-32.37-5.41l46.3,36.68Z"/><path class="cls-4" d="M977.54,1822.2c3.88-2.36,0,110.83,112.31,110.81,98.59,0,105.51-113.09,109.36-110.81,4.17,2.46.38,142.13-109.33,146.13C977.22,1972.44,973.36,1824.74,977.54,1822.2Z"/><path class="cls-4" d="M847.57,1861.43c8.41-3.89,19.31,203.77,242.53,202.68,205.77-1,230.71-206.44,239.08-202.68,9,4.07.81,234.64-237.54,241.25C846.86,2109.46,838.48,1865.64,847.57,1861.43Z"/></g></svg>