<svg xmlns="http://www.w3.org/2000/svg" viewBox="0 0 3000 3000"><defs><style>.cls-1,.cls-2,.cls-3,.cls-4,.cls-5{fill:none;stroke:#355963;stroke-miterlimit:10;}.cls-1{stroke-width:10px;}.cls-2,.cls-3,.cls-4,.cls-5{stroke-width:25px;}.cls-3{stroke-dasharray:68.93 68.93;}.cls-4{stroke-dasharray:77.57 77.57;}.cls-5{stroke-dasharray:80.85 80.85;}.cls-6{opacity:0.3;}.cls-7{fill:#355a63;}.cls-8{fill:#355963;}</style></defs><g id="Lines"><circle class="cls-1" cx="1981.4" cy="440.64" r="124.02"/><circle class="cls-1" cx="1981.4" cy="440.64" r="56.57"/><g id="_Radial_Repeat_" data-name="&lt;Radial Repeat&gt;"><circle class="cls-1" cx="1896.8" cy="642.85" r="22.01"/></g><g id="_Radial_Repeat_2" data-name="&lt;Radial Repeat&gt;"><circle class="cls-1" cx="1778.35" cy="524.39" r="22.01"/></g><g id="_Radial_Repeat_3" data-name="&lt;Radial Repeat&gt;"><circle class="cls-1" cx="1778.36" cy="356.88" r="22.01"/></g><g id="_Radial_Repeat_4" data-name="&lt;Radial Repeat&gt;"><circle class="cls-1" cx="1896.82" cy="238.43" r="22.01"/></g><g id="_Radial_Repeat_5" data-name="&lt;Radial Repeat&gt;"><circle class="cls-1" cx="2064.34" cy="238.44" r="22.01"/></g><g id="_Radial_Repeat_6" data-name="&lt;Radial Repeat&gt;"><circle class="cls-1" cx="2182.78" cy="356.89" r="22.01"/></g><g id="_Radial_Repeat_7" data-name="&lt;Radial Repeat&gt;"><circle class="cls-1" cx="2182.78" cy="524.41" r="22.01"/></g><g id="_Radial_Repeat_8" data-name="&lt;Radial Repeat&gt;"><circle class="cls-1" cx="2064.32" cy="642.86" r="22.01"/></g><circle class="cls-1" cx="1980.64" cy="440.64" r="299.76"/><circle class="cls-1" cx="1980.64" cy="441.29" r="339.23"/><path class="cls-1" d="M1696.62,626.16l-21.44,21.39c-6.35,6.33-9.45,13.82-8.54,21.54s6.84,12.64,10.57,16.37l29,29,29,29c3.72,3.74,8.59,9.67,16.34,10.61s15.22-2.15,21.57-8.49l21.44-21.39"/><path class="cls-1" d="M1648.63,371l-30.29,0c-9,0-16.45,3.09-21.27,9.19s-4.1,13.78-4.1,19.05l0,41-.05,41c0,5.28-.76,12.92,4.06,19.06s12.28,9.24,21.25,9.25l30.29,0"/><path class="cls-1" d="M1795.12,156.63l-21.39-21.44c-6.33-6.35-13.82-9.45-21.54-8.54s-12.64,6.84-16.38,10.57l-29,29-29,28.95c-3.74,3.73-9.67,8.6-10.61,16.35s2.15,15.22,8.49,21.57L1697,254.49"/><path class="cls-1" d="M2050.29,108.63l0-30.28c0-9-3.09-16.46-9.2-21.27s-13.77-4.1-19-4.11l-41,0-41,0c-5.28,0-12.92-.76-19.06,4.06s-9.24,12.28-9.25,21.25l0,30.29"/><path class="cls-1" d="M2264.65,255.13l21.44-21.39c6.35-6.34,9.45-13.82,8.54-21.54s-6.84-12.64-10.57-16.38l-29-29-29-29c-3.72-3.73-8.59-9.67-16.34-10.6s-15.22,2.15-21.57,8.49l-21.44,21.39"/><path class="cls-1" d="M2312.64,510.3l30.29,0c9,0,16.45-3.09,21.27-9.2s4.1-13.77,4.1-19.05l0-41,.05-41c0-5.27.76-12.91-4.06-19.05s-12.28-9.24-21.25-9.25l-30.29,0"/><path class="cls-1" d="M2166.15,724.66l21.39,21.44c6.34,6.35,13.82,9.45,21.54,8.54s12.64-6.84,16.38-10.57l29-29,29-29c3.74-3.73,9.67-8.59,10.61-16.35s-2.15-15.21-8.49-21.56l-21.39-21.44"/><path class="cls-1" d="M1911,772.65l0,30.29c0,9,3.09,16.45,9.2,21.27s13.77,4.1,19,4.1l41,.05,41,0c5.28,0,12.92.76,19.06-4.07s9.24-12.27,9.25-21.24l0-30.29"/><circle class="cls-1" cx="1981.33" cy="1577.98" r="124.02"/><circle class="cls-1" cx="1981.33" cy="1577.98" r="56.57"/><g id="_Radial_Repeat_9" data-name="&lt;Radial Repeat&gt;"><circle class="cls-1" cx="1896.74" cy="1780.19" r="22.01"/></g><g id="_Radial_Repeat_10" data-name="&lt;Radial Repeat&gt;"><circle class="cls-1" cx="1778.29" cy="1661.73" r="22.01"/></g><g id="_Radial_Repeat_11" data-name="&lt;Radial Repeat&gt;"><circle class="cls-1" cx="1778.3" cy="1494.22" r="22.01"/></g><g id="_Radial_Repeat_12" data-name="&lt;Radial Repeat&gt;"><circle class="cls-1" cx="1896.75" cy="1375.77" r="22.01"/></g><g id="_Radial_Repeat_13" data-name="&lt;Radial Repeat&gt;"><circle class="cls-1" cx="2064.27" cy="1375.78" r="22.01"/></g><g id="_Radial_Repeat_14" data-name="&lt;Radial Repeat&gt;"><circle class="cls-1" cx="2182.72" cy="1494.24" r="22.01"/></g><g id="_Radial_Repeat_15" data-name="&lt;Radial Repeat&gt;"><circle class="cls-1" cx="2182.71" cy="1661.75" r="22.01"/></g><g id="_Radial_Repeat_16" data-name="&lt;Radial Repeat&gt;"><circle class="cls-1" cx="2064.25" cy="1780.2" r="22.01"/></g><circle class="cls-1" cx="1980.57" cy="1577.98" r="299.76"/><circle class="cls-1" cx="1980.57" cy="1578.63" r="339.23"/><path class="cls-1" d="M1696.55,1763.5l-21.44,21.39c-6.35,6.34-9.45,13.82-8.53,21.54s6.84,12.64,10.56,16.38l29,29,29,29c3.73,3.74,8.59,9.67,16.35,10.61s15.21-2.15,21.56-8.49l21.44-21.39"/><path class="cls-1" d="M1648.56,1508.33l-30.29,0c-9,0-16.45,3.09-21.27,9.2s-4.09,13.77-4.1,19l-.05,41,0,41c0,5.28-.76,12.92,4.06,19.06s12.28,9.24,21.25,9.25l30.28,0"/><path class="cls-1" d="M1795.06,1294l-21.4-21.44c-6.33-6.35-13.82-9.45-21.54-8.54s-12.64,6.84-16.37,10.57l-29,29-29,29c-3.74,3.72-9.67,8.59-10.6,16.34s2.15,15.22,8.48,21.57l21.39,21.44"/><path class="cls-1" d="M2050.22,1246l0-30.29c0-9-3.1-16.45-9.2-21.27s-13.77-4.1-19-4.1l-41,0-41,0c-5.28,0-12.91-.76-19.06,4.06s-9.24,12.28-9.25,21.25l0,30.29"/><path class="cls-1" d="M2264.59,1392.47l21.44-21.39c6.35-6.34,9.44-13.82,8.53-21.54s-6.84-12.64-10.57-16.38l-28.95-29-29-29c-3.73-3.74-8.59-9.67-16.35-10.61s-15.21,2.15-21.56,8.49l-21.44,21.39"/><path class="cls-1" d="M2312.58,1647.64l30.28,0c9,0,16.46-3.09,21.27-9.2s4.1-13.77,4.11-19l0-41,0-41c0-5.28.76-12.92-4.06-19.06s-12.28-9.24-21.25-9.25l-30.28,0"/><path class="cls-1" d="M2166.08,1862l21.39,21.44c6.34,6.35,13.83,9.45,21.55,8.54s12.63-6.84,16.37-10.57l29-29,29-29c3.73-3.72,9.67-8.59,10.6-16.35s-2.15-15.21-8.48-21.56l-21.39-21.44"/><path class="cls-1" d="M1910.92,1910l0,30.29c0,9,3.09,16.45,9.2,21.27s13.77,4.1,19.05,4.1l41,0,41,0c5.28,0,12.91.76,19.06-4.06s9.23-12.28,9.24-21.25l0-30.29"/><circle class="cls-1" cx="1114.85" cy="1077" r="124.02"/><circle class="cls-1" cx="1114.85" cy="1077" r="56.57"/><g id="_Radial_Repeat_17" data-name="&lt;Radial Repeat&gt;"><circle class="cls-1" cx="1030.25" cy="1279.21" r="22.01"/></g><g id="_Radial_Repeat_18" data-name="&lt;Radial Repeat&gt;"><circle class="cls-1" cx="911.81" cy="1160.75" r="22.01"/></g><g id="_Radial_Repeat_19" data-name="&lt;Radial Repeat&gt;"><circle class="cls-1" cx="911.81" cy="993.24" r="22.01"/></g><g id="_Radial_Repeat_20" data-name="&lt;Radial Repeat&gt;"><circle class="cls-1" cx="1030.27" cy="874.79" r="22.01"/></g><g id="_Radial_Repeat_21" data-name="&lt;Radial Repeat&gt;"><circle class="cls-1" cx="1197.79" cy="874.8" r="22.01"/></g><g id="_Radial_Repeat_22" data-name="&lt;Radial Repeat&gt;"><circle class="cls-1" cx="1316.24" cy="993.25" r="22.01"/></g><g id="_Radial_Repeat_23" data-name="&lt;Radial Repeat&gt;"><circle class="cls-1" cx="1316.23" cy="1160.77" r="22.01"/></g><g id="_Radial_Repeat_24" data-name="&lt;Radial Repeat&gt;"><circle class="cls-1" cx="1197.77" cy="1279.22" r="22.01"/></g><circle class="cls-1" cx="1114.09" cy="1077" r="299.76"/><circle class="cls-1" cx="1114.09" cy="1077.64" r="339.23"/><path class="cls-1" d="M830.07,1262.52l-21.44,21.39c-6.35,6.33-9.45,13.82-8.54,21.54s6.84,12.64,10.57,16.37l29,29,29,29c3.73,3.74,8.59,9.67,16.35,10.61s15.21-2.15,21.56-8.49l21.44-21.39"/><path class="cls-1" d="M782.08,1007.35l-30.29,0c-9,0-16.45,3.1-21.27,9.2s-4.1,13.77-4.1,19l0,41,0,41c0,5.28-.77,12.92,4.06,19.06s12.28,9.24,21.24,9.25l30.29,0"/><path class="cls-1" d="M928.57,793l-21.39-21.44c-6.33-6.35-13.82-9.44-21.54-8.53s-12.64,6.84-16.37,10.57l-29,28.95-29,29c-3.74,3.73-9.67,8.6-10.61,16.35s2.15,15.21,8.49,21.56l21.39,21.44"/><path class="cls-1" d="M1183.74,745l0-30.28c0-9-3.1-16.46-9.2-21.27s-13.77-4.1-19-4.11l-41,0-41,0c-5.28,0-12.92-.76-19.06,4.06s-9.24,12.28-9.25,21.25l0,30.29"/><path class="cls-1" d="M1398.11,891.49l21.44-21.39c6.35-6.34,9.44-13.83,8.53-21.55s-6.84-12.63-10.57-16.37l-29-29-29-29c-3.73-3.73-8.6-9.67-16.35-10.6s-15.21,2.15-21.56,8.48l-21.44,21.4"/><path class="cls-1" d="M1446.1,1146.66l30.28,0c9,0,16.46-3.09,21.27-9.2s4.1-13.77,4.11-19l0-41,0-41c0-5.27.76-12.91-4.06-19.06s-12.28-9.23-21.25-9.24l-30.29,0"/><path class="cls-1" d="M1299.6,1361l21.39,21.44c6.34,6.35,13.82,9.45,21.55,8.53s12.63-6.84,16.37-10.56l29-29,29-29c3.73-3.73,9.67-8.59,10.6-16.35s-2.15-15.21-8.49-21.56l-21.39-21.44"/><path class="cls-1" d="M1044.43,1409l0,30.29c0,9,3.09,16.45,9.2,21.27s13.77,4.1,19.05,4.1l41,0,41,0c5.27,0,12.91.77,19.06-4.06s9.23-12.28,9.24-21.25l0-30.28"/><path class="cls-1" d="M2260.47,713.07c55,152.94,59.51,344.75-15.47,580.85"/><path class="cls-1" d="M705.38,1167.78c-27.56-62.23-75-137-83.49-208.08C581.62,620.58,937,244.59,1334.33,211.41c105.59-8.81,228.61.7,350.81,32"/><path class="cls-1" d="M705.38,1167.78c2.45,5.31,8.12,23.14,3,33.48-84.8,169.59-252.19,314-254,378.66-2.22,79.34,169.46,121.26,224,142,13.55,5.16.27,30.75-20.33,59.25-15.38,21.28-39,35.76-38.33,68.49,1.11,54.71,57.33,68.93,57.33,73.6,0,7-34.63,31.66-30,80.66,5.33,56.45,37.56,65.34,84.44,76.22,16.78,3.9-65.2,112.75,3.56,230.45,71.67,122.67,240.72,93.91,284.67,81.67,295.55-82.34,639-299,886.57-482.58"/><path class="cls-1" d="M1265.93,2299.84a390.69,390.69,0,0,1,35.74,108.42c12.95,75,1,137.14-9,173-3.67,14,84.33,28.22,244.77-29.12,283.64-101.35,546.34-361.33,530.23-384.88-16.55-24.24-43-63.16-62.23-117.34-10.73-30.21-18.64-63-16.88-84.66"/><path class="cls-2" d="M1661.84,1695q-19.87-2.86-39.39-6.88"/><path class="cls-3" d="M1555.76,1670.84c-122.42-38.58-230-111-312.14-206.56"/><path class="cls-2" d="M1221.83,1437.61q-12.25-15.78-23.61-32.29"/><path class="cls-2" d="M2290.83,578.79q12.47,15.62,24,32"/><path class="cls-4" d="M2356,676.45A692.85,692.85,0,0,1,2442,1011.86c0,135-38.37,261-104.68,367.4"/><path class="cls-2" d="M2315.83,1411.6q-11.53,16.37-24,32"/><path class="cls-2" d="M1154.56,691.05q9.26-17.77,19.48-34.93"/><path class="cls-5" d="M1219.4,589.25c90-117.27,216.54-204.44,362.37-244"/><path class="cls-2" d="M1621.09,335.84q19.5-4.05,39.39-7"/></g><g id="Shadows" class="cls-6"><ellipse class="cls-7" cx="1447.67" cy="2791.25" rx="640.93" ry="92"/><path class="cls-8" d="M453,1585.92c124,70.22,213.87,75.65,247.33,82.67,20.67,4.33,8,34.74-12,67.67l-25.55-21-156-59.12-44-43.55Z"/><path class="cls-8" d="M733.76,2084.14l-67.11-31-19.21-45.25c15.23,16.68,32.27,28.8,54.74,31.35,28.61,3.24,38.07-3,51.49-6.67,6.2-1.7,7.29,21.13-15.92,53.5"/><path class="cls-8" d="M675.38,1923.25c13.54.32,29.52-4.14,32-5.57,5.9-3.36,1.11-12.75-2.65-12.66-23.26.56-67.91-17.49-84.61-29.14Z"/><path class="cls-8" d="M891.67,2401.26c115.55-2.45,506.22-240,817-546l39.66,36.66,19.56-4,22.89-27.11,113.33,51.78L1661.84,2079l-284.17,165.55-258,116.67L947,2404.16Z"/><path class="cls-8" d="M1280.41,2344.1c32.95,35.66,125.63,33.61,193.6,18.12,199.51-45.46,296.59-160.15,471.66-398.63h-27l-11.22-50.45L1686,2063.36l-251,154.56-169.07,81.92Z"/><path class="cls-7" d="M774.86,1077.64c3-2.18,62.81,271.11,339.23,271.11,277.58,0,336.2-273.29,339.22-271.11s-23.28,339.23-339.22,339.23C785.67,1416.87,771.93,1079.76,774.86,1077.64Z"/><path class="cls-7" d="M731.33,1039.76c.48,42.86,13.84,85.16,31.67,85.16a15.1,15.1,0,0,0,14.5-11.12c.32-1.13,3.17,31.79,3.17,31.79l-48.34-6.33-8.83-79.67Z"/><path class="cls-7" d="M1499.06,1039.76c-.47,42.86-13.83,85.16-31.66,85.16a15.09,15.09,0,0,1-14.5-11.12c-.33-1.13-3.17,31.79-3.17,31.79l48.33-6.33,8.84-79.67Z"/><polyline class="cls-7" points="1044.25 1409.67 1044.38 1411.26 1048.33 1456.59 1063.67 1466.81 1166.56 1464.37 1186.11 1449.03 1183.93 1409.67 1114.02 1417.7"/><polyline class="cls-7" points="832.78 1261.43 831.7 1262.6 800.89 1296.08 803.68 1314.3 874.86 1388.63 899.37 1392.73 926.97 1364.58 873.9 1318.37"/><polyline class="cls-7" points="1398.14 1261.43 1399.22 1262.6 1430.03 1296.08 1427.24 1314.3 1356.06 1388.63 1331.55 1392.73 1303.96 1364.58 1357.02 1318.37"/><path class="cls-7" d="M1054.53,1077c3.61-1.82,26.12,56.54,60.51,56.57s57.15-58.29,60.51-56.57c4,2.06.45,89.26-61.33,89.26C1054,1166.26,1050.26,1079.16,1054.53,1077Z"/><path class="cls-7" d="M990.83,1077c7.63,0,1.5,127.07,124.13,127.07,123.91,0,116.8-127.07,123.91-127.07,8.8,0,0,168.92-125.55,168.92C990.83,1245.92,979.67,1077,990.83,1077Z"/><path class="cls-7" d="M1640.17,1579.27c3-2.19,62.8,271.1,339.22,271.1,277.58,0,336.2-273.29,339.23-271.1s-23.28,339.22-339.23,339.22C1651,1918.49,1637.24,1581.38,1640.17,1579.27Z"/><path class="cls-7" d="M1596.64,1541.38c.47,42.86,13.83,85.16,31.67,85.16a15.09,15.09,0,0,0,14.49-11.12c.33-1.13,3.17,31.79,3.17,31.79l-48.33-6.33-8.83-79.67Z"/><path class="cls-7" d="M2364.37,1541.38c-.48,42.86-13.84,85.16-31.67,85.16a15.1,15.1,0,0,1-14.5-11.12c-.32-1.13-3.17,31.79-3.17,31.79l48.34-6.33,8.83-79.67Z"/><polyline class="cls-7" points="1909.55 1911.29 1909.69 1912.88 1913.64 1958.21 1928.97 1968.43 2031.86 1965.99 2051.42 1950.65 2049.24 1911.29 1979.33 1919.32"/><polyline class="cls-7" points="1698.09 1763.05 1697.01 1764.22 1666.2 1797.7 1668.99 1815.92 1740.17 1890.25 1764.68 1894.35 1792.28 1866.2 1739.21 1819.99"/><polyline class="cls-7" points="2263.45 1763.05 2264.53 1764.22 2295.34 1797.7 2292.55 1815.92 2221.37 1890.25 2196.86 1894.35 2169.26 1866.2 2222.33 1819.99"/><path class="cls-7" d="M1919.84,1578.62c3.61-1.82,26.11,56.54,60.5,56.57s57.15-58.29,60.51-56.57c4,2.06.46,89.26-61.32,89.26C1919.31,1667.88,1915.56,1580.78,1919.84,1578.62Z"/><path class="cls-7" d="M1856.14,1578.62c7.62,0,1.5,127.07,124.13,127.07,123.91,0,116.8-127.07,123.91-127.07,8.79,0,0,168.92-125.56,168.92C1856.14,1747.54,1845,1578.62,1856.14,1578.62Z"/><path class="cls-7" d="M1641.06,444.29c3-2.19,62.81,271.1,339.23,271.1,277.58,0,336.2-273.29,339.23-271.1s-23.28,339.22-339.23,339.22C1651.87,783.51,1638.13,446.4,1641.06,444.29Z"/><path class="cls-7" d="M1597.54,406.4c.47,42.86,13.83,85.16,31.66,85.16a15.1,15.1,0,0,0,14.5-11.12c.33-1.13,3.17,31.79,3.17,31.79l-48.33-6.33-8.84-79.67Z"/><path class="cls-7" d="M2365.26,406.4c-.47,42.86-13.83,85.16-31.66,85.16a15.1,15.1,0,0,1-14.5-11.12c-.33-1.13-3.17,31.79-3.17,31.79l48.33-6.33,8.84-79.67Z"/><polyline class="cls-7" points="1910.45 776.31 1910.59 777.9 1914.54 823.23 1929.87 833.45 2032.76 831.01 2052.31 815.67 2050.14 776.31 1980.22 784.34"/><polyline class="cls-7" points="1698.98 628.07 1697.9 629.24 1667.09 662.72 1669.88 680.94 1741.06 755.27 1765.57 759.37 1793.17 731.22 1740.1 685.01"/><polyline class="cls-7" points="2264.35 628.07 2265.43 629.24 2296.24 662.72 2293.45 680.94 2222.26 755.27 2197.76 759.37 2170.16 731.22 2223.23 685.01"/><path class="cls-7" d="M1920.73,443.64c3.61-1.82,26.12,56.54,60.51,56.57s57.15-58.29,60.51-56.57c4,2.06.45,89.26-61.33,89.26C1920.2,532.9,1916.46,445.8,1920.73,443.64Z"/><path class="cls-7" d="M1857,443.64c7.63,0,1.51,127.07,124.14,127.07,123.9,0,116.8-127.07,123.9-127.07,8.8,0,0,168.92-125.55,168.92C1857,612.56,1845.87,443.64,1857,443.64Z"/></g></svg>