<svg xmlns="http://www.w3.org/2000/svg" viewBox="0 0 3000 3000"><defs><style>.cls-1,.cls-2,.cls-3,.cls-4,.cls-5{fill:none;stroke:#624563;stroke-miterlimit:10;}.cls-1{stroke-width:10px;}.cls-2,.cls-3,.cls-4,.cls-5{stroke-width:25px;}.cls-3{stroke-dasharray:68.93 68.93;}.cls-4{stroke-dasharray:77.57 77.57;}.cls-5{stroke-dasharray:80.85 80.85;}.cls-6{opacity:0.3;}.cls-7{fill:#624563;}</style></defs><g id="Lines"><circle class="cls-1" cx="2013.43" cy="440.64" r="124.02"/><circle class="cls-1" cx="2013.43" cy="440.64" r="56.57"/><g id="_Radial_Repeat_" data-name="&lt;Radial Repeat&gt;"><circle class="cls-1" cx="1928.83" cy="642.85" r="22.01"/></g><g id="_Radial_Repeat_2" data-name="&lt;Radial Repeat&gt;"><circle class="cls-1" cx="1810.39" cy="524.39" r="22.01"/></g><g id="_Radial_Repeat_3" data-name="&lt;Radial Repeat&gt;"><circle class="cls-1" cx="1810.39" cy="356.88" r="22.01"/></g><g id="_Radial_Repeat_4" data-name="&lt;Radial Repeat&gt;"><circle class="cls-1" cx="1928.85" cy="238.43" r="22.01"/></g><g id="_Radial_Repeat_5" data-name="&lt;Radial Repeat&gt;"><circle class="cls-1" cx="2096.37" cy="238.44" r="22.01"/></g><g id="_Radial_Repeat_6" data-name="&lt;Radial Repeat&gt;"><circle class="cls-1" cx="2214.81" cy="356.89" r="22.01"/></g><g id="_Radial_Repeat_7" data-name="&lt;Radial Repeat&gt;"><circle class="cls-1" cx="2214.81" cy="524.41" r="22.01"/></g><g id="_Radial_Repeat_8" data-name="&lt;Radial Repeat&gt;"><circle class="cls-1" cx="2096.35" cy="642.86" r="22.01"/></g><circle class="cls-1" cx="2012.67" cy="440.64" r="299.76"/><circle class="cls-1" cx="2012.67" cy="441.29" r="339.23"/><path class="cls-1" d="M1728.65,626.16l-21.44,21.39c-6.35,6.33-9.45,13.82-8.54,21.54s6.84,12.64,10.57,16.37l29,29,29,29c3.72,3.74,8.59,9.67,16.34,10.61s15.22-2.15,21.57-8.49l21.44-21.39"/><path class="cls-1" d="M1680.66,371l-30.29,0c-9,0-16.45,3.09-21.27,9.19s-4.1,13.78-4.1,19.05l0,41,0,41c0,5.28-.76,12.92,4.07,19.06s12.27,9.24,21.24,9.25l30.29,0"/><path class="cls-1" d="M1827.15,156.63l-21.39-21.44c-6.33-6.35-13.82-9.45-21.54-8.54s-12.64,6.84-16.37,10.57l-29,29-29,28.95c-3.74,3.73-9.67,8.6-10.61,16.35s2.15,15.22,8.49,21.57l21.39,21.44"/><path class="cls-1" d="M2082.32,108.63l0-30.28c0-9-3.09-16.46-9.2-21.27s-13.77-4.1-19-4.11l-41,0-41,0c-5.28,0-12.92-.76-19.06,4.06s-9.24,12.28-9.25,21.25l0,30.29"/><path class="cls-1" d="M2296.68,255.13l21.44-21.39c6.35-6.34,9.45-13.82,8.54-21.54s-6.84-12.64-10.57-16.38l-29-29-29-29c-3.73-3.73-8.6-9.67-16.35-10.6s-15.22,2.15-21.57,8.49l-21.44,21.39"/><path class="cls-1" d="M2344.67,510.3l30.29,0c9,0,16.46-3.09,21.27-9.2s4.1-13.77,4.1-19.05l.05-41,0-41c0-5.27.76-12.91-4.06-19.05s-12.28-9.24-21.25-9.25l-30.29,0"/><path class="cls-1" d="M2198.18,724.66l21.39,21.44c6.34,6.35,13.82,9.45,21.54,8.54s12.64-6.84,16.38-10.57l29-29,29-29c3.73-3.73,9.67-8.59,10.6-16.35s-2.15-15.21-8.49-21.56l-21.39-21.44"/><path class="cls-1" d="M1943,772.65l0,30.29c0,9,3.09,16.45,9.2,21.27s13.77,4.1,19,4.1l41,.05,41,0c5.28,0,12.92.76,19.06-4.07s9.24-12.27,9.25-21.24l0-30.29"/><circle class="cls-1" cx="2013.36" cy="1577.98" r="124.02"/><circle class="cls-1" cx="2013.36" cy="1577.98" r="56.57"/><g id="_Radial_Repeat_9" data-name="&lt;Radial Repeat&gt;"><circle class="cls-1" cx="1928.77" cy="1780.19" r="22.01"/></g><g id="_Radial_Repeat_10" data-name="&lt;Radial Repeat&gt;"><circle class="cls-1" cx="1810.32" cy="1661.73" r="22.01"/></g><g id="_Radial_Repeat_11" data-name="&lt;Radial Repeat&gt;"><circle class="cls-1" cx="1810.33" cy="1494.22" r="22.01"/></g><g id="_Radial_Repeat_12" data-name="&lt;Radial Repeat&gt;"><circle class="cls-1" cx="1928.78" cy="1375.77" r="22.01"/></g><g id="_Radial_Repeat_13" data-name="&lt;Radial Repeat&gt;"><circle class="cls-1" cx="2096.3" cy="1375.78" r="22.01"/></g><g id="_Radial_Repeat_14" data-name="&lt;Radial Repeat&gt;"><circle class="cls-1" cx="2214.75" cy="1494.23" r="22.01"/></g><g id="_Radial_Repeat_15" data-name="&lt;Radial Repeat&gt;"><circle class="cls-1" cx="2214.74" cy="1661.75" r="22.01"/></g><g id="_Radial_Repeat_16" data-name="&lt;Radial Repeat&gt;"><circle class="cls-1" cx="2096.28" cy="1780.2" r="22.01"/></g><circle class="cls-1" cx="2012.6" cy="1577.98" r="299.76"/><circle class="cls-1" cx="2012.6" cy="1578.63" r="339.23"/><path class="cls-1" d="M1728.58,1763.5l-21.44,21.39c-6.35,6.34-9.45,13.82-8.53,21.54s6.84,12.64,10.56,16.38l29,29,29,29c3.73,3.74,8.59,9.68,16.35,10.61s15.21-2.15,21.56-8.49l21.44-21.39"/><path class="cls-1" d="M1680.59,1508.33l-30.29,0c-9,0-16.45,3.09-21.26,9.2s-4.1,13.77-4.11,19l0,41,0,41c0,5.28-.76,12.92,4.06,19.06s12.28,9.24,21.25,9.25l30.28,0"/><path class="cls-1" d="M1827.09,1294l-21.4-21.44c-6.33-6.35-13.82-9.45-21.54-8.54s-12.64,6.84-16.37,10.57l-29,29-29,29c-3.74,3.72-9.67,8.59-10.6,16.34s2.15,15.22,8.48,21.57l21.39,21.44"/><path class="cls-1" d="M2082.25,1246l0-30.29c0-9-3.1-16.45-9.2-21.27s-13.77-4.1-19.05-4.1l-41,0-41,0c-5.28,0-12.91-.76-19.06,4.06s-9.23,12.28-9.24,21.25l0,30.29"/><path class="cls-1" d="M2296.62,1392.47l21.44-21.39c6.35-6.34,9.45-13.82,8.53-21.54s-6.84-12.64-10.56-16.38l-29-29-29-29c-3.73-3.74-8.59-9.67-16.35-10.61s-15.21,2.15-21.56,8.49l-21.44,21.39"/><path class="cls-1" d="M2344.61,1647.64l30.28,0c9,0,16.46-3.09,21.27-9.2s4.1-13.77,4.11-19l.05-41,0-41c0-5.28.76-12.92-4.06-19.06s-12.28-9.24-21.25-9.25l-30.28,0"/><path class="cls-1" d="M2198.11,1862l21.39,21.44c6.34,6.35,13.83,9.45,21.55,8.54s12.63-6.84,16.37-10.57l29-29,29-29c3.73-3.72,9.67-8.59,10.6-16.34s-2.15-15.22-8.48-21.57l-21.39-21.44"/><path class="cls-1" d="M1943,1910l0,30.29c0,9,3.1,16.45,9.2,21.27s13.77,4.1,19.05,4.1l41,0,41,0c5.28,0,12.91.76,19.06-4.07s9.23-12.27,9.24-21.24l0-30.29"/><circle class="cls-1" cx="1146.88" cy="1077" r="124.02"/><circle class="cls-1" cx="1146.88" cy="1077" r="56.57"/><g id="_Radial_Repeat_17" data-name="&lt;Radial Repeat&gt;"><circle class="cls-1" cx="1062.29" cy="1279.21" r="22.01"/></g><g id="_Radial_Repeat_18" data-name="&lt;Radial Repeat&gt;"><circle class="cls-1" cx="943.84" cy="1160.75" r="22.01"/></g><g id="_Radial_Repeat_19" data-name="&lt;Radial Repeat&gt;"><circle class="cls-1" cx="943.85" cy="993.24" r="22.01"/></g><g id="_Radial_Repeat_20" data-name="&lt;Radial Repeat&gt;"><circle class="cls-1" cx="1062.3" cy="874.79" r="22.01"/></g><g id="_Radial_Repeat_21" data-name="&lt;Radial Repeat&gt;"><circle class="cls-1" cx="1229.82" cy="874.8" r="22.01"/></g><g id="_Radial_Repeat_22" data-name="&lt;Radial Repeat&gt;"><circle class="cls-1" cx="1348.27" cy="993.25" r="22.01"/></g><g id="_Radial_Repeat_23" data-name="&lt;Radial Repeat&gt;"><circle class="cls-1" cx="1348.26" cy="1160.77" r="22.01"/></g><g id="_Radial_Repeat_24" data-name="&lt;Radial Repeat&gt;"><circle class="cls-1" cx="1229.8" cy="1279.22" r="22.01"/></g><circle class="cls-1" cx="1146.12" cy="1077" r="299.76"/><circle class="cls-1" cx="1146.12" cy="1077.64" r="339.23"/><path class="cls-1" d="M862.1,1262.52l-21.44,21.39c-6.35,6.33-9.45,13.82-8.53,21.54s6.84,12.64,10.56,16.37l29,29,29,29c3.73,3.74,8.59,9.67,16.35,10.6s15.21-2.15,21.56-8.48L960,1360.6"/><path class="cls-1" d="M814.11,1007.35l-30.29,0c-9,0-16.45,3.1-21.27,9.2s-4.09,13.77-4.1,19l-.05,41,0,41c0,5.28-.77,12.92,4.06,19.06s12.28,9.24,21.25,9.25l30.28,0"/><path class="cls-1" d="M960.6,793l-21.39-21.44c-6.33-6.35-13.82-9.44-21.54-8.53S905,769.85,901.3,773.58l-29,28.95-29,29c-3.74,3.73-9.67,8.6-10.61,16.35s2.16,15.21,8.49,21.56l21.39,21.44"/><path class="cls-1" d="M1215.77,745l0-30.28c0-9-3.1-16.46-9.2-21.27s-13.77-4.1-19-4.11l-41,0-41,0c-5.28,0-12.92-.76-19.06,4.06s-9.24,12.28-9.25,21.25l0,30.29"/><path class="cls-1" d="M1430.14,891.49l21.44-21.39c6.35-6.34,9.44-13.83,8.53-21.55s-6.84-12.63-10.57-16.37l-29-29-29-29c-3.73-3.73-8.6-9.67-16.35-10.6s-15.21,2.15-21.56,8.48l-21.44,21.4"/><path class="cls-1" d="M1478.13,1146.66l30.28,0c9,0,16.46-3.09,21.27-9.2s4.1-13.77,4.11-19l0-41,.05-41c0-5.27.76-12.91-4.06-19.06s-12.28-9.23-21.25-9.24l-30.29,0"/><path class="cls-1" d="M1331.63,1361l21.39,21.44c6.34,6.35,13.83,9.45,21.55,8.54s12.63-6.84,16.37-10.57l29-29,29-29c3.73-3.73,9.67-8.59,10.6-16.35s-2.15-15.21-8.48-21.56l-21.4-21.44"/><path class="cls-1" d="M1076.46,1409l0,30.29c0,9,3.09,16.45,9.2,21.27s13.77,4.09,19,4.1l41,0,41,0c5.27,0,12.91.77,19.06-4.06s9.23-12.28,9.24-21.25l0-30.28"/><path class="cls-1" d="M2292.5,713.07c55,152.94,59.51,344.75-15.47,580.85"/><path class="cls-1" d="M737.41,1167.78c-27.56-62.23-75-137-83.49-208.08C613.65,620.58,969,244.59,1366.36,211.41c105.59-8.81,228.61.7,350.81,32"/><path class="cls-1" d="M737.41,1167.78c2.45,5.31,8.12,23.14,3,33.48-84.8,169.59-252.19,314-254,378.66-2.22,79.34,169.46,121.26,224,142,13.55,5.16.27,30.75-20.33,59.25-15.38,21.28-39,35.76-38.33,68.49,1.11,54.71,57.33,68.93,57.33,73.6,0,7-34.63,31.66-30,80.66,5.33,56.45,37.56,65.34,84.45,76.22,16.77,3.9-65.21,112.75,3.55,230.45,71.67,122.67,240.72,93.91,284.67,81.67,295.55-82.34,639-299,886.57-482.58"/><path class="cls-1" d="M1298,2299.84a390.69,390.69,0,0,1,35.74,108.42c13,75,1,137.14-9,173-3.67,14,84.33,28.22,244.78-29.12,283.63-101.35,546.33-361.33,530.22-384.88-16.55-24.24-43-63.16-62.22-117.34-10.74-30.21-18.65-63-16.89-84.66"/><path class="cls-2" d="M1693.88,1695q-19.89-2.86-39.4-6.88"/><path class="cls-3" d="M1587.79,1670.84c-122.42-38.58-230-111-312.14-206.56"/><path class="cls-2" d="M1253.86,1437.61q-12.25-15.78-23.61-32.29"/><path class="cls-2" d="M2322.86,578.79q12.46,15.62,24,32"/><path class="cls-4" d="M2388.07,676.45A692.85,692.85,0,0,1,2474,1011.86c0,135-38.37,261-104.68,367.4"/><path class="cls-2" d="M2347.86,1411.6q-11.54,16.37-24,32"/><path class="cls-2" d="M1186.59,691.05q9.26-17.77,19.48-34.93"/><path class="cls-5" d="M1251.43,589.25c90-117.27,216.54-204.44,362.37-244"/><path class="cls-2" d="M1653.13,335.84q19.48-4.05,39.38-7"/></g><g id="Shadows" class="cls-6"><ellipse class="cls-7" cx="1479.7" cy="2791.25" rx="640.93" ry="92"/><path class="cls-7" d="M485,1585.92c124,70.22,213.87,75.65,247.33,82.67,20.67,4.33,8,34.74-12,67.67l-25.55-21-156-59.12-44-43.55Z"/><path class="cls-7" d="M765.79,2084.14l-67.11-31-19.21-45.25c15.23,16.68,32.27,28.8,54.75,31.35,28.6,3.24,38.06-3,51.48-6.67,6.2-1.7,7.29,21.13-15.92,53.5"/><path class="cls-7" d="M707.41,1923.25c13.54.32,29.53-4.14,32.05-5.57,5.9-3.36,1.11-12.75-2.65-12.66-23.26.56-67.91-17.49-84.61-29.14Z"/><path class="cls-7" d="M923.7,2401.26c115.55-2.45,506.22-240,817-546l39.66,36.66,19.56-4,22.89-27.11,113.33,51.78L1693.88,2079,1409.7,2244.59l-258,116.67L979,2404.16Z"/><path class="cls-7" d="M1312.44,2344.1c33,35.66,125.63,33.61,193.6,18.12,199.51-45.46,296.59-160.15,471.66-398.63h-27l-11.21-50.45L1718,2063.36l-251,154.56L1298,2299.84Z"/><path class="cls-7" d="M806.89,1077.64c3-2.18,62.81,271.11,339.23,271.11,277.58,0,336.2-273.29,339.22-271.11s-23.28,339.23-339.22,339.23C817.7,1416.87,804,1079.76,806.89,1077.64Z"/><path class="cls-7" d="M763.36,1039.76c.48,42.86,13.84,85.16,31.67,85.16a15.1,15.1,0,0,0,14.5-11.12c.33-1.13,3.17,31.79,3.17,31.79l-48.34-6.33-8.83-79.67Z"/><path class="cls-7" d="M1531.09,1039.76c-.47,42.86-13.83,85.16-31.66,85.16a15.1,15.1,0,0,1-14.5-11.12c-.33-1.13-3.17,31.79-3.17,31.79l48.33-6.33,8.84-79.67Z"/><polyline class="cls-7" points="1076.28 1409.67 1076.41 1411.26 1080.36 1456.59 1095.7 1466.81 1198.59 1464.37 1218.14 1449.03 1215.96 1409.67 1146.05 1417.7"/><polyline class="cls-7" points="864.81 1261.43 863.73 1262.6 832.92 1296.08 835.71 1314.3 906.89 1388.63 931.4 1392.73 959 1364.58 905.93 1318.37"/><polyline class="cls-7" points="1430.17 1261.43 1431.26 1262.6 1462.07 1296.08 1459.28 1314.3 1388.09 1388.63 1363.59 1392.73 1335.99 1364.58 1389.05 1318.37"/><path class="cls-7" d="M1086.56,1077c3.61-1.82,26.12,56.54,60.51,56.57s57.15-58.29,60.51-56.57c4,2.06.45,89.26-61.33,89.26C1086,1166.26,1082.29,1079.16,1086.56,1077Z"/><path class="cls-7" d="M1022.86,1077c7.63,0,1.5,127.07,124.13,127.07,123.91,0,116.8-127.07,123.91-127.07,8.8,0,0,168.92-125.55,168.92C1022.86,1245.92,1011.7,1077,1022.86,1077Z"/><path class="cls-7" d="M1672.2,1579.27c3-2.19,62.8,271.1,339.22,271.1,277.58,0,336.2-273.29,339.23-271.1s-23.28,339.22-339.23,339.22C1683,1918.49,1669.27,1581.38,1672.2,1579.27Z"/><path class="cls-7" d="M1628.67,1541.38c.47,42.86,13.83,85.16,31.67,85.16a15.09,15.09,0,0,0,14.49-11.12c.33-1.13,3.17,31.79,3.17,31.79l-48.33-6.33-8.83-79.67Z"/><path class="cls-7" d="M2396.4,1541.38c-.47,42.86-13.84,85.16-31.67,85.16a15.1,15.1,0,0,1-14.5-11.12c-.32-1.13-3.17,31.79-3.17,31.79l48.34-6.33,8.83-79.67Z"/><polyline class="cls-7" points="1941.58 1911.29 1941.72 1912.88 1945.67 1958.21 1961 1968.43 2063.89 1965.99 2083.45 1950.65 2081.27 1911.29 2011.36 1919.32"/><polyline class="cls-7" points="1730.12 1763.05 1729.04 1764.22 1698.23 1797.7 1701.02 1815.92 1772.2 1890.25 1796.71 1894.35 1824.31 1866.2 1771.24 1819.99"/><polyline class="cls-7" points="2295.48 1763.05 2296.56 1764.22 2327.37 1797.7 2324.58 1815.92 2253.4 1890.25 2228.89 1894.35 2201.29 1866.2 2254.36 1819.99"/><path class="cls-7" d="M1951.87,1578.62c3.61-1.82,26.12,56.54,60.51,56.57s57.14-58.29,60.5-56.57c4,2.06.46,89.26-61.32,89.26C1951.34,1667.88,1947.59,1580.78,1951.87,1578.62Z"/><path class="cls-7" d="M1888.17,1578.62c7.62,0,1.5,127.07,124.13,127.07,123.91,0,116.8-127.07,123.91-127.07,8.79,0,0,168.92-125.55,168.92C1888.17,1747.54,1877,1578.62,1888.17,1578.62Z"/><path class="cls-7" d="M1673.09,444.29c3-2.19,62.81,271.1,339.23,271.1,277.58,0,336.2-273.29,339.23-271.1s-23.28,339.22-339.23,339.22C1683.9,783.51,1670.16,446.4,1673.09,444.29Z"/><path class="cls-7" d="M1629.57,406.4c.47,42.86,13.83,85.16,31.66,85.16a15.1,15.1,0,0,0,14.5-11.12c.33-1.13,3.17,31.79,3.17,31.79l-48.33-6.33-8.84-79.67Z"/><path class="cls-7" d="M2397.29,406.4c-.47,42.86-13.83,85.16-31.66,85.16a15.1,15.1,0,0,1-14.5-11.12c-.33-1.13-3.17,31.79-3.17,31.79l48.33-6.33,8.84-79.67Z"/><polyline class="cls-7" points="1942.48 776.31 1942.62 777.9 1946.57 823.23 1961.9 833.45 2064.79 831.01 2084.34 815.67 2082.17 776.31 2012.25 784.34"/><polyline class="cls-7" points="1731.01 628.07 1729.93 629.24 1699.12 662.72 1701.91 680.94 1773.09 755.27 1797.6 759.37 1825.2 731.22 1772.13 685.01"/><polyline class="cls-7" points="2296.38 628.07 2297.46 629.24 2328.27 662.72 2325.48 680.94 2254.3 755.27 2229.79 759.37 2202.19 731.22 2255.26 685.01"/><path class="cls-7" d="M1952.76,443.64c3.62-1.82,26.12,56.54,60.51,56.57s57.15-58.29,60.51-56.57c4,2.06.45,89.26-61.33,89.26C1952.23,532.9,1948.49,445.8,1952.76,443.64Z"/><path class="cls-7" d="M1889.06,443.64c7.63,0,1.51,127.07,124.14,127.07,123.9,0,116.8-127.07,123.9-127.07,8.8,0,0,168.92-125.55,168.92C1889.06,612.56,1877.9,443.64,1889.06,443.64Z"/></g></svg>