<svg xmlns="http://www.w3.org/2000/svg" viewBox="0 0 3000 3000"><defs><style>.cls-1,.cls-2,.cls-3,.cls-4{fill:none;stroke:#355963;}.cls-1,.cls-3,.cls-4{stroke-linecap:round;}.cls-1,.cls-2,.cls-3{stroke-miterlimit:10;}.cls-1,.cls-2{stroke-width:10px;}.cls-3,.cls-4{stroke-width:30px;}.cls-4{stroke-miterlimit:20;stroke-dasharray:80;}.cls-5{opacity:0.3;}.cls-6{fill:#355a63;}.cls-7{fill:#355963;}</style></defs><g id="Lines"><circle class="cls-1" cx="874.66" cy="635.85" r="389.63"/><circle class="cls-1" cx="874.66" cy="555.08" r="187.6"/><path class="cls-1" d="M752.71,699.12A452.57,452.57,0,0,0,657.9,800.58c-29.24,43-45.31,81.39-55.22,111.74"/><path class="cls-1" d="M996.6,699.12a452.57,452.57,0,0,1,94.81,101.46c29.25,43,45.07,82.77,55,113.12"/><circle class="cls-1" cx="2111.19" cy="1320.41" r="549.64"/><circle class="cls-1" cx="2111.19" cy="1206.46" r="264.65"/><path class="cls-1" d="M1939.17,1409.66a640.43,640.43,0,0,0-212.73,303.27"/><path class="cls-1" d="M2283.21,1409.66A638.67,638.67,0,0,1,2417,1552.78a630.34,630.34,0,0,1,78.59,159.71"/><circle class="cls-1" cx="1352.82" cy="2208.04" r="290.56"/><circle class="cls-1" cx="1352.82" cy="2147.8" r="139.9"/><path class="cls-1" d="M1261.88,2255.22a337,337,0,0,0-112.46,160.72"/><path class="cls-1" d="M1443.75,2255.22a337,337,0,0,1,112.46,160.72"/><path class="cls-1" d="M2349.87,1816.83c-149.6,272.48-418.52,470.17-736.42,522.71"/><path class="cls-1" d="M1980.6,436.23a1025.79,1025.79,0,0,1,369.05,387.35"/><path class="cls-1" d="M1127.07,336.86a1032.22,1032.22,0,0,1,316.68-49.45c181.07,0,350.75,45.66,498.18,126.51"/><path class="cls-1" d="M425.36,1145.29A998.26,998.26,0,0,1,534.61,829.54"/><path class="cls-1" d="M1072.47,2284.68c-387.07-149.14-661.72-524.63-661.72-964.27,0-13.56.21-25.85.71-39.25"/><path class="cls-1" d="M705.57,987c-18.75,44.35-41.45,115.51-27.74,196.51,64,378.19,452.65,423.77,457,532,2.13,53-28.11,41-97,74-43.67,20.89-75,55.33-107,59-63.25,7.24-104.58-71.4-135.85-70.5-44.37,1.27-35.93,46.16-78.15,76.5-25.73,18.48-41.34,11.41-63,25-26.83,16.83-36,40.5-36,60.19"/><path class="cls-1" d="M1322.28,294.48c29.79,27.82,98.55,92.33,110.55,208.33,46.62,450.67-460.71,708.69-370.57,896,15.24,31.67,78.57,43.33,111.9,69.33,76.25,59.47,34.34,127,114,186.67,69.43,52,155.55-14.18,283.34-28,48.54-5.25,67.55,1.78,91.56,11.93"/><path class="cls-1" d="M1887.46,1824.48c4.53,16.14,9.48,38.64,9.81,72.55,1,100.83-51.53,144.43-52.44,229.78-.31,29,5.23,73.56,37.82,129"/><path class="cls-1" d="M1154.6,1995.59c-55.5-23-88.84-15.69-109.1-7.78-89.67,35-81.67,97.67-128.34,147-20.13,21.28-41.86,32.62-54.14,40"/><path class="cls-1" d="M1712.5,322.71a326.88,326.88,0,0,1,5.66,64.77c-2.33,134.66-76.33,142.66-65.33,256.66,6.51,67.53,9,146.62,38.67,198.67,28.33,49.67,51.11,58.44,59.55,62.37"/><circle class="cls-1" cx="2066.04" cy="237.29" r="68.3" transform="translate(437.34 1530.41) rotate(-45)"/><line class="cls-2" x1="2051.15" y1="303.41" x2="1936.78" y2="507.94"/><line class="cls-2" x1="2017.5" y1="284.6" x2="1903.13" y2="489.13"/><path class="cls-2" d="M1903.13,489.13c-5,9-.91,20.3,8,25.26s20.71,2.46,25.69-6.45"/><circle class="cls-1" cx="419.28" cy="1213.31" r="68.3" transform="translate(-810.59 845.42) rotate(-54.28)"/><line class="cls-2" x1="447.36" y1="1275" x2="601.1" y2="1451.85"/><line class="cls-2" x1="476.45" y1="1249.71" x2="630.19" y2="1426.56"/><path class="cls-2" d="M630.19,1426.56c6.76,7.77,5,19.69-2.62,26.36s-19.77,6.64-26.47-1.07"/><line class="cls-3" x1="1843.29" y1="481.83" x2="1913.52" y2="687.49"/><line class="cls-3" x1="1981.69" y1="549.03" x2="1776.03" y2="619.27"/><line class="cls-3" x1="684.35" y1="1405.28" x2="673.87" y2="1622.34"/><line class="cls-3" x1="788.25" y1="1518.75" x2="571.19" y2="1508.27"/><path class="cls-4" d="M758.37,1430.81c87-197.47,160.13-248.4,238.79-301.33,227.51-153.13,436.69-87.74,665.33-265.34,103.35-80.28,163.77-173.77,196-232"/></g><g id="Shadows" class="cls-5"><ellipse class="cls-6" cx="1503.14" cy="2695.18" rx="877" ry="92"/><path class="cls-7" d="M1071.67,2281.68c-591.36-206.42-686-897.5-660.89-955.07,0,0,311.05,638.87,690.51,735.88l-40.46,106.76Z"/><path class="cls-7" d="M1624.05,2103.63c166.32-45.09,338.37-123.23,455.45-233.58l107-2.24,156-48.67c-125.6,227.84-354.13,463.41-724.11,519.56l25-91-10.66-128.61-1.15.31"/><path class="cls-6" d="M687.69,591.48c8.69,0,73.8,88.66,187,88.66s176.85-88.66,187-88.66c5,0-51,151.2-187,151.2C744.38,742.68,677.7,591.48,687.69,591.48Z"/><path class="cls-6" d="M602.68,915.22C493.55,800,479.27,635.85,485,635.85c5.35,0,59.86,111.08,148.72,204.27"/><path class="cls-6" d="M1116.15,839.5c88.52-93.07,142.79-203.65,148.13-203.65,5.17,0-2.52,167.8-114.55,283.16"/><path class="cls-6" d="M663,790.48C700.22,902.3,772.18,976.32,874.66,976.29s173.72-74,210.93-185.81l62.2,119L1065,975.92l-97.88,36.64-126.91,12.92L725.5,995.42,600.11,917.25Z"/><path class="cls-6" d="M1848.14,1254.33c12.22,0,103.8,127.72,263,127.72s248.75-127.72,263-127.72c7,0-62.61,217.8-263,217.8C1921.72,1472.13,1834.08,1254.33,1848.14,1254.33Z"/><path class="cls-6" d="M1728.55,1720.66c-165-179.68-173.58-402.41-165.48-402.41,7.53,0,84.2,160,209.2,294.24"/><path class="cls-6" d="M2450.82,1611.59c124.51-134,200.86-293.34,208.37-293.34,7.27,0,1.64,219.89-163.86,394.14"/><path class="cls-6" d="M1809.83,1543.48c52.36,161.06,157.16,265.18,301.3,265.15S2358.15,1702,2410.5,1541l88.65,168.48-123.32,94.68-145.61,56.16-184.72,9.75-187-55.57-135.67-101.55Z"/><path class="cls-6" d="M1215.63,2180.63c6.43,0,54.64,67.23,138.42,67.23s130.93-67.23,138.42-67.23c3.69,0-37.77,114.64-138.42,114.64C1257.6,2295.27,1208.23,2180.63,1215.63,2180.63Z"/><path class="cls-6" d="M1145.72,2413c-80.8-87.34-84.4-198.75-80.13-198.75,4,0,38.8,78.19,104.59,148.85"/><path class="cls-6" d="M1532.84,2368.67c65.54-70.55,105.72-154.39,109.67-154.39s-3.36,117.29-86.3,204.75"/><path class="cls-6" d="M1190.61,2328.14c27.56,84.78,92.41,142.7,168.27,142.68s128.62-56.13,156.17-140.87l46,84.43-65.1,49.76-68,28-94,9.79-104.16-28-77.16-58.27Z"/><path class="cls-6" d="M351,1215.48c3.89-4,29.24,31.69,69.15,31.33,39.23-.36,63.47-35.26,67.38-31.33,4.73,4.75-21.3,65.61-67.38,66.12C373.48,1282.13,346.32,1220.28,351,1215.48Z"/><path class="cls-6" d="M1997.76,237.6c3.89-4,29.24,31.7,69.15,31.33,39.23-.35,63.47-35.26,67.38-31.33,4.73,4.76-21.3,65.61-67.38,66.13C2020.24,304.25,1993.07,242.41,1997.76,237.6Z"/><path class="cls-6" d="M486.33,1313.87c26.11,20.94,59.61,62.27,120.83,112.27,4.22,3.45,16.45,5.67,11.73-12.59l17.94,21.26-9.26,18.11-24.31,1Z"/><path class="cls-6" d="M2021.75,348.79c-20.6,26.38-43.7,74.31-91.79,137-3.32,4.32-14.71,9.29-14.31-9.56l-12.57,24.81,13.17,15.5,23.89-4.61Z"/></g></svg>