<?xml version="1.0" encoding="UTF-8" standalone="no"?>
<!-- Generator: Adobe Illustrator 26.5.3, SVG Export Plug-In . SVG Version: 6.00 Build 0)  -->

<svg
   version="1.1"
   x="0px"
   y="0px"
   viewBox="0 0 1392.7169 364.73999"
   xml:space="preserve"
   id="svg138"
   sodipodi:docname="logoWithNameOnSide.svg"
   inkscape:version="1.2.2 (732a01da63, 2022-12-09)"
   width="1392.7169"
   height="364.73999"
   xmlns:inkscape="http://www.inkscape.org/namespaces/inkscape"
   xmlns:sodipodi="http://sodipodi.sourceforge.net/DTD/sodipodi-0.dtd"
   xmlns="http://www.w3.org/2000/svg"
   xmlns:svg="http://www.w3.org/2000/svg"><defs
   id="defs142">
			
			
		
		
		
		
		
		
		
		
		
		
		
		
		
		
		
	</defs><sodipodi:namedview
   id="namedview140"
   pagecolor="#ffffff"
   bordercolor="#000000"
   borderopacity="0.25"
   inkscape:showpageshadow="2"
   inkscape:pageopacity="0.0"
   inkscape:pagecheckerboard="0"
   inkscape:deskcolor="#d1d1d1"
   showgrid="false"
   inkscape:zoom="0.29344932"
   inkscape:cx="318.62402"
   inkscape:cy="458.3415"
   inkscape:window-width="1920"
   inkscape:window-height="991"
   inkscape:window-x="-9"
   inkscape:window-y="-9"
   inkscape:window-maximized="1"
   inkscape:current-layer="svg138" />
<style
   type="text/css"
   id="style2">.st0 { display:none; }
.st1 { display:inline;fill:#FFFFFF;stroke:#231F20;stroke-miterlimit:10; }
.st2 { display:inline; }
.st3 { fill:#FFFFFF; }
.st4 { fill:none; }
.st5 { font-family:'MyriadPro-Regular'; }
.st6 { font-size:15.0176px; }
</style>
 
	<g
   id="g481"
   inkscape:label="logoplustext"
   transform="translate(-39.01886,-40.08502)"><g
     id="g107"
     style="fill:#ffffff;fill-opacity:1"
     transform="translate(-318.15114,-161.39498)">
				<path
   d="m 696.39,432.69 c -2.12,1.02 -3.02,3.58 -1.99,5.7 1.02,2.12 3.58,3.02 5.7,1.99 2.12,-1.02 3.02,-3.58 1.99,-5.7 -1.03,-2.12 -3.58,-3.01 -5.7,-1.99 z"
   id="path97"
   style="fill:none;fill-opacity:1" />
				<path
   d="m 660.22,415.51 c 12.17,-6.74 27.19,-9.93 39.95,-8.49 3.22,-12.11 0.16,-43.78 -7.15,-53.6 1.31,16.38 -3.56,24.91 -7.51,32.77 -4.06,8.08 -31.09,32.54 -25.29,29.32 z"
   id="path99"
   style="fill:#ffffff;fill-opacity:1" />
				<path
   d="m 723.9,429.3 c -2.4,-1.33 -4.58,-3.26 -8.31,-5.79 -32.1,-21.78 -64.16,6.99 -75.82,17.59 -8.57,7.79 -9.76,9.23 -13.09,10.54 -7.36,2.89 -12.65,6.61 -32.06,-16.12 -2.25,-2.78 -4.57,-5.64 -6.97,-8.52 -11.88,12.52 -26.16,22.73 -42.1,29.92 1.94,4.56 3.73,8.78 5.19,12.3 6.3,14.61 11.11,22.97 19.33,28.56 16.4,11.16 38.42,0.79 38.42,0.79 0,0 -21.21,19.7 -42.7,9.36 -8.92,9.88 -18.71,17.69 -38.18,27.94 -15.89,8.36 -55.7,23.09 -82.74,30.35 18.76,-2.05 50.38,-9.76 72.67,-9.48 15.52,0.19 26.45,-1.65 38.18,-7.29 12.31,-5.92 21.47,-14.6 21.47,-14.6 0,0 -2.54,11.86 -19.08,22.83 17.5,6.81 27.07,-4.33 33.71,-2.28 53.22,16.47 77.25,-28.35 96.45,-61.92 11.24,-19.65 22.8,-32.95 33.84,-41.88 13.32,-10.38 27.5,-23.58 87.43,-35.66 -32.59,-0.9 -76.2,19.1 -85.64,13.36 z m -23.37,12 c -2.63,1.27 -5.78,0.16 -7.05,-2.47 -1.26,-2.63 -0.16,-5.78 2.47,-7.05 2.63,-1.27 5.78,-0.16 7.05,2.47 1.26,2.63 0.16,5.78 -2.47,7.05 z"
   id="path101"
   style="fill:#ffffff;fill-opacity:1" />
				<path
   d="m 489.7,354.12 c 42.04,10.96 73.86,43.86 97.95,72.86 22.73,-23.95 36.7,-56.29 36.7,-91.91 0,-73.78 -59.81,-133.59 -133.59,-133.59 -73.78,0 -133.59,59.81 -133.59,133.59 0,73.78 59.81,133.59 133.59,133.59 19.53,0 38.07,-4.23 54.79,-11.76 -5.73,-13.43 -12.82,-29.76 -17.06,-39.46 -7.13,-16.34 -24.26,-45.79 -38.79,-63.32 z"
   id="path103"
   style="fill:#ffffff;fill-opacity:1" />
				<path
   d="m 587.65,426.99 c -24.09,-29.01 -55.91,-61.9 -97.95,-72.86 14.53,17.53 31.66,46.98 38.79,63.32 4.24,9.71 11.33,26.03 17.06,39.46 15.95,-7.19 30.22,-17.4 42.1,-29.92 z"
   id="path105"
   style="fill:none;fill-opacity:0" />
			</g><g
     id="g131"
     style="fill:#ffffff;fill-opacity:1"
     transform="matrix(1.1730427,0,0,1.1881689,394.39059,-607.97423)">
				<path
   d="m 882.67,782.04 h -71.48 c -0.92,0 -1.66,-0.74 -1.66,-1.66 V 661.42 c 0,-0.92 0.74,-1.66 1.66,-1.66 h 19.72 c 0.92,0 1.66,0.74 1.66,1.66 v 100.5 c 0,0.92 0.74,1.66 1.66,1.66 h 48.43 c 0.92,0 1.66,0.74 1.66,1.66 v 15.13 c 0.01,0.93 -0.73,1.67 -1.65,1.67 z"
   id="path109"
   style="fill:#ffffff;fill-opacity:1" />
				<path
   d="m 625.36,784.88 c -16.92,0 -29.03,-3.59 -36.32,-10.77 -7.29,-7.18 -10.95,-18.53 -10.95,-34.06 V 660.6 c 0,-0.92 0.74,-1.66 1.66,-1.66 h 19.97 c 0.92,0 1.66,0.74 1.66,1.66 v 78.58 c 0,9.04 1.82,14.57 5.47,18.5 3.65,3.94 9.82,5.91 18.51,5.91 8.57,0 14.68,-1.97 18.33,-5.91 3.65,-3.94 5.47,-9.47 5.47,-18.5 V 660.6 c 0,-0.92 0.74,-1.66 1.66,-1.66 h 19.97 c 0.92,0 1.66,0.74 1.66,1.66 v 79.45 c 0,15.53 -3.65,26.88 -10.95,34.06 -7.29,7.18 -19.34,10.77 -36.14,10.77 z"
   id="path111"
   style="fill:#ffffff;fill-opacity:1" />
				<path
   d="m 526.76,797.92 -43.23,-56.87 c -0.77,-1.01 -0.05,-2.46 1.22,-2.46 h 24 c 0.49,0 0.94,0.23 1.23,0.62 l 41.93,56.87 c 0.75,1.01 0.02,2.44 -1.23,2.44 h -22.7 c -0.48,0.01 -0.93,-0.22 -1.22,-0.6 z"
   id="path113"
   style="fill:#ffffff;fill-opacity:1" />
				<path
   d="m 400.82,658.93 h -19.73 c -0.92,0 -1.67,0.75 -1.67,1.67 v 119.77 c 0,0.92 0.75,1.67 1.67,1.67 h 19.73 c 0.92,0 1.67,-0.75 1.67,-1.67 V 660.6 c 0,-0.92 -0.75,-1.67 -1.67,-1.67 z"
   id="path115"
   style="fill:#ffffff;fill-opacity:1" />
				<path
   d="m 540.46,620.31 c -10.48,-14 -26.63,-21 -48.46,-21 -22,0 -38.23,7 -48.69,21 -10.45,14 -15.68,36.38 -15.68,67.14 v 9.23 c 0,30.76 5.23,53.14 15.68,67.14 10.45,14 26.68,21 48.69,21 3.85,0 7.45,-0.25 10.85,-0.7 6.05,-0.98 12.13,-2.55 18.2,-4.63 23.38,-10.3 35.08,-37.91 35.08,-82.82 v -9.23 c 0.01,-30.75 -5.22,-53.13 -15.67,-67.13 z m -9,76.37 c 0,32.61 -6.23,53.14 -18.7,61.59 -6.18,2.83 -12.18,5.08 -17.53,5.33 h -4.15 c -13.7,0 -23.58,-5.38 -29.66,-16.15 -6.08,-10.78 -9.1,-27.68 -9.1,-50.76 v -9.23 c 0,-23.08 3.03,-39.98 9.1,-50.76 6.08,-10.75 15.95,-16.15 29.66,-16.15 h 1.63 c 13.68,0 23.55,5.4 29.63,16.15 6.08,10.78 9.13,27.68 9.13,50.76 v 9.22 z"
   id="path117"
   style="fill:#ffffff;fill-opacity:1" />
				<g
   id="g121"
   style="fill:#ffffff;fill-opacity:1">
					<path
   d="m 355.44,738.67 h -3.2 v 0 h -15.61 c -0.9,0 -1.61,0.73 -1.65,1.63 -0.29,6.81 -2.43,12.45 -6.43,16.94 -4.31,4.85 -10.92,7.27 -19.84,7.27 -10,0 -17.46,-3.53 -22.38,-10.61 -4.92,-7.07 -7.38,-16.99 -7.38,-29.77 v -6.46 c 0,-12.77 2.46,-22.69 7.38,-29.77 4.92,-7.07 12.38,-10.61 22.38,-10.61 8.92,0 15.53,2.54 19.84,7.61 4.03,4.75 6.17,11.05 6.43,18.89 0.03,0.9 0.74,1.64 1.65,1.64 h 18.85 c 0.93,0 1.68,-0.75 1.68,-1.68 v -3.17 c 0,-12.15 -4.15,-22.45 -12.46,-30.91 -8.3,-8.46 -20.46,-12.69 -36.45,-12.69 -17.54,0 -30.69,5.57 -39.45,16.72 -8.77,11.16 -13.15,25.81 -13.15,43.95 v 6.46 c 0,18.15 4.38,32.8 13.15,43.95 8.77,11.15 21.92,16.72 39.45,16.72 15.99,0 28.15,-4.07 36.45,-12.22 8.09,-7.95 12.21,-17.58 12.42,-28.89 -0.01,-1.11 -0.02,-2.22 -0.04,-3.38 -0.01,-0.88 -0.73,-1.62 -1.64,-1.62 z"
   id="path119"
   style="fill:#ffffff;fill-opacity:1" />
				</g>
				<g
   id="g125"
   style="fill:#ffffff;fill-opacity:1">
					<path
   d="m 224.64,696.1 c -9.08,-7.92 -23.45,-13.19 -43.14,-15.8 -14.61,-2 -24.73,-5.43 -30.34,-10.27 -5.62,-4.85 -8.42,-11.73 -8.42,-20.65 v -1.85 c 0,-8.15 3.07,-14.68 9.23,-19.61 6.15,-4.92 14.15,-7.38 24,-7.38 h 1.62 c 12.3,0 21.19,3.46 26.65,10.38 5.26,6.67 7.98,17.19 8.18,31.56 0.01,0.91 0.74,1.66 1.65,1.66 h 20.69 c 0.92,0 1.66,-0.74 1.66,-1.66 v -3.87 c 0,-19.85 -4.77,-34.68 -14.3,-44.53 -9.54,-9.84 -24.46,-14.76 -44.76,-14.76 -18.3,0 -32.76,4.5 -43.37,13.49 -10.61,9 -15.92,21.19 -15.92,36.57 v 2.54 c 0,13.69 4.42,24.54 13.27,32.53 8.84,8 22.87,13.31 42.11,15.92 14.61,2 24.95,5.46 31.03,10.38 6.08,4.92 9.12,12 9.12,21.23 v 1.84 c 0,9.08 -3.19,16.31 -9.58,21.69 -6.38,5.39 -14.96,8.08 -25.72,8.08 h -1.85 c -11.23,0 -20.07,-3.42 -26.53,-10.27 -5.54,-5.87 -8.69,-14.33 -9.47,-25.35 -0.09,-1.32 -0.17,-2.65 -0.2,-4.04 -0.02,-0.91 -0.74,-1.65 -1.65,-1.65 h -3.2 -14.1 v 0 h -3.2 c -0.91,0 -1.63,0.74 -1.65,1.65 -0.02,1.15 -0.09,2.25 -0.16,3.34 0.46,18.35 5.59,32.44 15.48,42.19 10.38,10.23 25.57,15.34 45.57,15.34 19.07,0 33.99,-4.62 44.76,-13.84 10.76,-9.23 16.15,-22 16.15,-38.3 v -2.54 c 0,-14.76 -4.54,-26.1 -13.61,-34.02 z"
   id="path123"
   style="fill:#ffffff;fill-opacity:1" />
				</g>
				<g
   id="g129"
   style="fill:#ffffff;fill-opacity:1">
					<path
   d="m 788.58,678.4 c 0.42,0 0.75,-0.34 0.76,-0.75 l 0.17,-15.64 c 0,-0.58 -0.01,-1.17 -0.02,-1.79 -0.01,-0.42 -0.34,-0.76 -0.76,-0.76 h -1.48 v 0 h -58.44 c -10.75,0 -19.15,3.34 -25.22,9.41 -6.07,6.07 -9.11,14.34 -9.11,24.8 0,11.1 3.1,19.55 9.84,26.06 -6.38,4.45 -9.95,16.75 -9.95,25 0,15.73 3.14,22.14 9.21,28.21 6.07,6.07 14.47,9.1 25.22,9.1 h 59.91 c 0.42,0 0.75,-0.34 0.76,-0.76 0.01,-0.62 0.02,-1.21 0.02,-1.79 l -0.15,-13.28 c 0,-0.61 -0.01,-1.22 -0.02,-1.86 -0.01,-0.41 -0.33,-0.74 -0.74,-0.76 h -55.81 c -4.07,0 -15.01,-3.67 -15.01,-19.23 0,-13.08 10.8,-16.51 15.01,-16.51 h 29.91 c 3.21,0 8.62,-2.84 8.62,-9.44 0,-7.66 -5.41,-9.77 -8.62,-9.77 h -30.8 c -3.21,0 -14.13,-3.63 -14.13,-14.52 0,-8.46 5.56,-15.72 14.02,-15.72 z"
   id="path127"
   style="fill:#ffffff;fill-opacity:1" />
				</g>
			</g></g>
 
 
</svg>
