<svg width="24" height="22" viewBox="0 0 24 22" fill="none" xmlns="http://www.w3.org/2000/svg">
<path fill-rule="evenodd" clip-rule="evenodd" d="M12 3.66634C8.68629 3.66634 6 6.12877 6 9.16634C6 11.1132 7.49449 12.5437 8.61273 13.3297C9.38769 13.8744 10 14.7432 10 15.7662V16.4997C10 17.0059 9.55228 17.4163 9 17.4163C8.44772 17.4163 8 17.0059 8 16.4997V15.7662C8 15.4351 7.79298 15.0637 7.39578 14.7846C6.14463 13.9052 4 11.9998 4 9.16634C4 5.11625 7.58172 1.83301 12 1.83301C16.4183 1.83301 20 5.11625 20 9.16634C20 11.9998 17.8554 13.9052 16.6042 14.7846C16.207 15.0637 16 15.4351 16 15.7662V16.4997C16 17.0059 15.5523 17.4163 15 17.4163C14.4477 17.4163 14 17.0059 14 16.4997V15.7662C14 14.7432 14.6123 13.8744 15.3873 13.3297C16.5055 12.5437 18 11.1132 18 9.16634C18 6.12877 15.3137 3.66634 12 3.66634Z" fill="#1A6768"/>
<path fill-rule="evenodd" clip-rule="evenodd" d="M8 16.4997C8 15.9934 8.44772 15.583 9 15.583H15C15.5523 15.583 16 15.9934 16 16.4997C16 17.0059 15.5523 17.4163 15 17.4163H9C8.44772 17.4163 8 17.0059 8 16.4997Z" fill="#1A6768"/>
<path fill-rule="evenodd" clip-rule="evenodd" d="M8 19.2497C8 18.7434 8.44772 18.333 9 18.333H15C15.5523 18.333 16 18.7434 16 19.2497C16 19.7559 15.5523 20.1663 15 20.1663H9C8.44772 20.1663 8 19.7559 8 19.2497Z" fill="#1A6768"/>
<path fill-rule="evenodd" clip-rule="evenodd" d="M9 9.16634C9 8.66008 9.44772 8.24967 10 8.24967H14C14.5523 8.24967 15 8.66008 15 9.16634C15 9.6726 14.5523 10.083 14 10.083H10C9.44772 10.083 9 9.6726 9 9.16634Z" fill="#1A6768"/>
<path fill-rule="evenodd" clip-rule="evenodd" d="M12 8.24967C12.5523 8.24967 13 8.66008 13 9.16634V16.4997C13 17.0059 12.5523 17.4163 12 17.4163C11.4477 17.4163 11 17.0059 11 16.4997V9.16634C11 8.66008 11.4477 8.24967 12 8.24967Z" fill="#1A6768"/>
</svg>
