<svg width="24" height="22" viewBox="0 0 24 22" fill="none" xmlns="http://www.w3.org/2000/svg">
<path fill-rule="evenodd" clip-rule="evenodd" d="M16.2737 5.50585C16.5521 5.9431 16.391 6.50442 15.914 6.75959L9.09404 10.4079C8.61703 10.6631 8.00469 10.5155 7.72632 10.0782C7.44795 9.64098 7.60898 9.07966 8.08598 8.82449L14.906 5.17616C15.383 4.92099 15.9953 5.06859 16.2737 5.50585Z" fill="#50808E"/>
<path fill-rule="evenodd" clip-rule="evenodd" d="M7.726 11.923C8.00406 11.4856 8.61631 11.3376 9.09348 11.5925L15.9235 15.2409C16.4007 15.4958 16.5621 16.057 16.284 16.4944C16.006 16.9318 15.3937 17.0798 14.9165 16.8249L8.08653 13.1765C7.60935 12.9217 7.44794 12.3604 7.726 11.923Z" fill="#50808E"/>
<path fill-rule="evenodd" clip-rule="evenodd" d="M18 2.75033C16.8954 2.75033 16 3.57114 16 4.58366C16 5.59618 16.8954 6.41699 18 6.41699C19.1046 6.41699 20 5.59618 20 4.58366C20 3.57114 19.1046 2.75033 18 2.75033ZM14 4.58366C14 2.55861 15.7909 0.916992 18 0.916992C20.2091 0.916992 22 2.55861 22 4.58366C22 6.6087 20.2091 8.25033 18 8.25033C15.7909 8.25033 14 6.6087 14 4.58366Z" fill="#50808E"/>
<path fill-rule="evenodd" clip-rule="evenodd" d="M6 9.16699C4.89543 9.16699 4 9.9878 4 11.0003C4 12.0128 4.89543 12.8337 6 12.8337C7.10457 12.8337 8 12.0128 8 11.0003C8 9.9878 7.10457 9.16699 6 9.16699ZM2 11.0003C2 8.97528 3.79086 7.33366 6 7.33366C8.20914 7.33366 10 8.97528 10 11.0003C10 13.0254 8.20914 14.667 6 14.667C3.79086 14.667 2 13.0254 2 11.0003Z" fill="#50808E"/>
<path fill-rule="evenodd" clip-rule="evenodd" d="M18 15.5837C16.8954 15.5837 16 16.4045 16 17.417C16 18.4295 16.8954 19.2503 18 19.2503C19.1046 19.2503 20 18.4295 20 17.417C20 16.4045 19.1046 15.5837 18 15.5837ZM14 17.417C14 15.3919 15.7909 13.7503 18 13.7503C20.2091 13.7503 22 15.3919 22 17.417C22 19.442 20.2091 21.0837 18 21.0837C15.7909 21.0837 14 19.442 14 17.417Z" fill="#50808E"/>
</svg>
