<svg
  viewBox="0 0 32 32"
  fill="none"
  xmlns="http://www.w3.org/2000/svg"
  className="h-7 w-7"
>
  <path
    fill-rule="evenodd"
    clip-rule="evenodd"
    d="M14.8565 5.82866C15.8119 4.18211 18.1897 4.18212 19.1451 5.82866L22.0711 10.8711C22.3408 11.3359 22.8069 11.653 23.3382 11.7333L28.1969 12.4671C30.3148 12.787 31.0577 15.4611 29.4083 16.8276L25.8682 19.7605C25.3713 20.1722 25.1377 20.8216 25.2584 21.4554L26.25 26.6631C26.6385 28.703 24.497 30.2879 22.6596 29.3205L17.8259 26.7753C17.3094 26.5034 16.6922 26.5034 16.1758 26.7753L11.3421 29.3205C9.50464 30.2879 7.36317 28.703 7.75162 26.6631L8.74326 21.4554C8.86396 20.8216 8.63033 20.1722 8.13344 19.7605L4.59333 16.8276C2.94393 15.4611 3.68683 12.787 5.80474 12.4671L10.6634 11.7333C11.1947 11.653 11.6609 11.3359 11.9306 10.8711L14.8565 5.82866ZM17.3072 6.89517C17.1707 6.65994 16.831 6.65995 16.6945 6.89516L13.7686 11.9376C13.1753 12.9601 12.1497 13.6579 10.9808 13.8345L6.1221 14.5683C5.81954 14.614 5.71341 14.996 5.94904 15.1912L9.48915 18.1242C10.5823 19.0298 11.0963 20.4584 10.8308 21.8529L9.83911 27.0606C9.78362 27.352 10.0895 27.5784 10.352 27.4402L15.1857 24.895C16.3219 24.2968 17.6798 24.2968 18.8159 24.895L23.6496 27.4402C23.9121 27.5784 24.218 27.352 24.1625 27.0606L23.1709 21.8529C22.9054 20.4584 23.4194 19.0298 24.5125 18.1242L28.0526 15.1912C28.2882 14.996 28.1821 14.614 27.8796 14.5683L23.0209 13.8345C21.8519 13.6579 20.8264 12.9601 20.2331 11.9376L17.3072 6.89517Z"
    fill="#84B59F"
  />
</svg>
