<svg
  viewBox="0 0 34 34"
  fill="none"
  xmlns="http://www.w3.org/2000/svg"
  className="h-7 w-7"
>
  <mask
    id="path-1-outside-1_4216_4637"
    maskUnits="userSpaceOnUse"
    x="6.5"
    y="3.66699"
    width="21"
    height="28"
    fill="black"
  >
    <rect fill="white" x="6.5" y="3.66699" width="21" height="28" />
    <path
      fill-rule="evenodd"
      clip-rule="evenodd"
      d="M21.1435 21.9919C21.2483 21.7491 21.3007 21.6276 21.3878 21.5204C21.4749 21.4131 21.6141 21.3149 21.8926 21.1186C24.0747 19.58 25.5 17.0399 25.5 14.167C25.5 9.47257 21.6944 5.66699 17 5.66699C12.3056 5.66699 8.5 9.47257 8.5 14.167C8.5 17.0399 9.92531 19.58 12.1074 21.1186C12.3859 21.3149 12.5251 21.4131 12.6122 21.5204C12.6993 21.6276 12.7517 21.7491 12.8565 21.9919C13.5647 23.6326 13.9936 25.3818 14.1241 27.1669C14.1658 27.737 14.1866 28.0221 14.3055 28.2238C14.3263 28.2589 14.3445 28.2861 14.3691 28.3187C14.5103 28.5055 14.7439 28.6223 15.2111 28.8559C16.3373 29.419 17.6627 29.419 18.7889 28.8559C19.2561 28.6223 19.4897 28.5055 19.6309 28.3187C19.6555 28.2861 19.6737 28.2589 19.6945 28.2238C19.8134 28.0221 19.8342 27.737 19.8759 27.1669C20.0064 25.3818 20.4353 23.6326 21.1435 21.9919Z"
    />
  </mask>
  <path
    d="M19.6309 28.3187L21.2264 29.5246L19.6309 28.3187ZM19.8759 27.1669L17.8812 27.0211L19.8759 27.1669ZM19.6945 28.2238L21.4171 29.2398L19.6945 28.2238ZM14.1241 27.1669L12.1294 27.3127L14.1241 27.1669ZM14.3055 28.2238L12.5829 29.2398L14.3055 28.2238ZM14.3691 28.3187L15.9646 27.1128L14.3691 28.3187ZM12.1074 21.1186L10.9549 22.7531L12.1074 21.1186ZM12.8565 21.9919L14.6928 21.1994L12.8565 21.9919ZM12.6122 21.5204L11.0596 22.7811L12.6122 21.5204ZM21.8926 21.1186L20.7401 19.484L21.8926 21.1186ZM21.3878 21.5204L19.8352 20.2596L21.3878 21.5204ZM23.5 14.167C23.5 16.3623 22.4136 18.304 20.7401 19.484L23.0451 22.7531C25.7358 20.8559 27.5 17.7176 27.5 14.167H23.5ZM17 7.66699C20.5899 7.66699 23.5 10.5771 23.5 14.167H27.5C27.5 8.368 22.799 3.66699 17 3.66699V7.66699ZM10.5 14.167C10.5 10.5771 13.4101 7.66699 17 7.66699V3.66699C11.201 3.66699 6.5 8.368 6.5 14.167H10.5ZM13.2599 19.484C11.5864 18.304 10.5 16.3623 10.5 14.167H6.5C6.5 17.7176 8.2642 20.8559 10.9549 22.7531L13.2599 19.484ZM16.1188 27.0211C15.972 25.0129 15.4894 23.0451 14.6928 21.1994L11.0203 22.7845C11.6399 24.2201 12.0152 25.7507 12.1294 27.3127L16.1188 27.0211ZM17.8944 27.067C17.3314 27.3486 16.6686 27.3486 16.1056 27.067L14.3167 30.6448C16.0059 31.4893 17.9941 31.4893 19.6833 30.6448L17.8944 27.067ZM19.3072 21.1994C18.5106 23.0451 18.028 25.0129 17.8812 27.0211L21.8706 27.3127C21.9848 25.7507 22.3601 24.2201 22.9797 22.7845L19.3072 21.1994ZM19.6833 30.6448C19.8874 30.5427 20.1496 30.4133 20.3712 30.2786C20.6178 30.1287 20.9447 29.8974 21.2264 29.5246L18.0354 27.1128C18.1029 27.0234 18.1715 26.9568 18.2254 26.9119C18.2745 26.871 18.3047 26.8538 18.2931 26.8608C18.2804 26.8685 18.2473 26.8876 18.1747 26.9254C18.102 26.9632 18.0154 27.0066 17.8944 27.067L19.6833 30.6448ZM17.8812 27.0211C17.8705 27.1679 17.8625 27.2767 17.8544 27.3691C17.8462 27.4617 17.8403 27.5106 17.8365 27.5354C17.8328 27.56 17.8354 27.5321 17.8526 27.4754C17.8715 27.4128 17.9074 27.3169 17.9718 27.2077L21.4171 29.2398C21.6647 28.8201 21.7501 28.4083 21.7918 28.1316C21.8312 27.8702 21.852 27.5665 21.8706 27.3127L17.8812 27.0211ZM21.2264 29.5246C21.297 29.4312 21.3577 29.3406 21.4171 29.2398L17.9718 27.2077C17.9776 27.1979 17.9881 27.1806 18.0023 27.1594C18.0166 27.1381 18.0285 27.1218 18.0354 27.1128L21.2264 29.5246ZM12.1294 27.3127C12.148 27.5665 12.1688 27.8702 12.2082 28.1316C12.2499 28.4083 12.3353 28.8201 12.5829 29.2398L16.0282 27.2077C16.0926 27.3169 16.1285 27.4128 16.1474 27.4754C16.1646 27.5321 16.1672 27.56 16.1635 27.5354C16.1597 27.5106 16.1538 27.4617 16.1456 27.3691C16.1375 27.2767 16.1295 27.1679 16.1188 27.0211L12.1294 27.3127ZM16.1056 27.067C15.9846 27.0066 15.898 26.9632 15.8253 26.9254C15.7527 26.8876 15.7196 26.8685 15.7069 26.8608C15.6953 26.8538 15.7255 26.871 15.7746 26.9119C15.8285 26.9568 15.8971 27.0234 15.9646 27.1128L12.7736 29.5246C13.0553 29.8974 13.3822 30.1287 13.6288 30.2786C13.8504 30.4133 14.1126 30.5427 14.3167 30.6448L16.1056 27.067ZM12.5829 29.2398C12.6423 29.3406 12.703 29.4312 12.7736 29.5246L15.9646 27.1128C15.9715 27.1218 15.9834 27.1381 15.9977 27.1594C16.0119 27.1806 16.0224 27.1979 16.0282 27.2077L12.5829 29.2398ZM10.9549 22.7531C11.0266 22.8037 11.0796 22.8411 11.1245 22.8733C11.1694 22.9056 11.193 22.9233 11.2051 22.9327C11.2171 22.942 11.2046 22.933 11.1796 22.91C11.1527 22.8851 11.109 22.8419 11.0596 22.7811L14.1648 20.2596C13.8585 19.8824 13.4212 19.5978 13.2599 19.484L10.9549 22.7531ZM14.6928 21.1994C14.6266 21.0459 14.4643 20.6285 14.1648 20.2596L11.0596 22.7811C11.043 22.7607 11.0271 22.7397 11.0121 22.7186C10.9972 22.6976 10.9844 22.678 10.9735 22.6605C10.9521 22.6261 10.9405 22.6029 10.9392 22.6003C10.9385 22.5989 10.9397 22.6014 10.9433 22.609C10.9469 22.6167 10.952 22.628 10.9592 22.6442C10.9664 22.6604 10.9749 22.6796 10.9852 22.7035C10.9957 22.7275 11.0069 22.7536 11.0203 22.7845L14.6928 21.1994ZM20.7401 19.484C20.5788 19.5978 20.1415 19.8824 19.8352 20.2596L22.9404 22.7811C22.891 22.8419 22.8473 22.8851 22.8204 22.91C22.7954 22.933 22.7829 22.942 22.7949 22.9327C22.807 22.9233 22.8306 22.9056 22.8755 22.8733C22.9204 22.8411 22.9734 22.8037 23.0451 22.7531L20.7401 19.484ZM22.9797 22.7845C22.9931 22.7536 23.0043 22.7275 23.0148 22.7035C23.0251 22.6796 23.0336 22.6604 23.0408 22.6442C23.048 22.628 23.0531 22.6167 23.0567 22.609C23.0603 22.6014 23.0615 22.5989 23.0608 22.6003C23.0595 22.6029 23.0479 22.6261 23.0265 22.6605C23.0156 22.678 23.0028 22.6976 22.9879 22.7186C22.9729 22.7397 22.957 22.7607 22.9404 22.7811L19.8352 20.2596C19.5357 20.6285 19.3734 21.0459 19.3072 21.1994L22.9797 22.7845Z"
    fill="#69A297"
    mask="url(#path-1-outside-1_4216_4637)"
  />
  <path
    d="M20.5423 23.375V23.375C18.2688 24.2844 15.7325 24.2844 13.459 23.375V23.375"
    stroke="#69A297"
  />
</svg>
