<svg
  viewBox="0 0 21 27"
  fill="none"
  xmlns="http://www.w3.org/2000/svg"
  className="h-7 w-7"
>
  <mask id="path-1-inside-1_4216_4680" fill="white">
    <path
      fill-rule="evenodd"
      clip-rule="evenodd"
      d="M14.1353 3.89493C14.1353 2.24325 12.7964 0.904297 11.1447 0.904297C9.493 0.904297 8.15404 2.24325 8.15404 3.89493C8.15404 4.25559 7.92722 4.57372 7.5996 4.7245C3.88054 6.43615 1.20213 11.2409 1.20213 16.9005C1.20213 17.4674 1.22901 18.0257 1.28111 18.5732C1.30137 18.7861 1.2885 19.0011 1.23726 19.2088L0.605549 21.7681C0.32551 22.9027 1.18422 23.9991 2.35286 23.9991H5.60721C6.40174 23.9991 7.07141 24.5456 7.51247 25.2065C8.23797 26.2935 9.41161 26.9997 10.736 26.9997C12.0604 26.9997 13.234 26.2935 13.9595 25.2065C14.4006 24.5456 15.0703 23.9991 15.8648 23.9991H19.1992C20.387 23.9991 21.249 22.8689 20.9349 21.7234L20.2764 19.3223C20.2137 19.0936 20.198 18.8548 20.2227 18.6189C20.2816 18.0568 20.3121 17.4832 20.3121 16.9005C20.3121 11.9679 18.127 7.68473 15.0504 5.53255C14.5082 5.15324 14.1353 4.55665 14.1353 3.89493Z"
    />
  </mask>
  <path
    d="M20.2764 19.3223L21.7258 18.9248L20.2764 19.3223ZM7.51247 25.2065L8.76255 24.3721L7.51247 25.2065ZM0.605549 21.7681L2.06469 22.1283L0.605549 21.7681ZM1.28111 18.5732L-0.215059 18.7156L1.28111 18.5732ZM1.23726 19.2088L2.69639 19.5689L1.23726 19.2088ZM11.1447 -0.598628C13.6264 -0.598628 15.6382 1.4132 15.6382 3.89493H12.6324C12.6324 3.07329 11.9663 2.40722 11.1447 2.40722V-0.598628ZM6.65112 3.89493C6.65112 1.41321 8.66296 -0.598628 11.1447 -0.598628V2.40722C10.323 2.40722 9.65697 3.07329 9.65697 3.89493H6.65112ZM-0.300793 16.9005C-0.300793 10.8531 2.55928 5.38978 6.97125 3.35923L8.22795 6.08977C5.20179 7.48252 2.70506 11.6286 2.70506 16.9005H-0.300793ZM-0.215059 18.7156C-0.271669 18.1207 -0.300793 17.5149 -0.300793 16.9005H2.70506C2.70506 17.4199 2.72968 17.9307 2.77727 18.4308L-0.215059 18.7156ZM-0.853586 21.408L-0.221882 18.8486L2.69639 19.5689L2.06469 22.1283L-0.853586 21.408ZM5.60721 25.5021H2.35286V22.4962H5.60721V25.5021ZM10.736 28.5027C8.85228 28.5027 7.23343 27.4957 6.26238 26.0408L8.76255 24.3721C9.24251 25.0913 9.97095 25.4968 10.736 25.4968V28.5027ZM15.2096 26.0408C14.2386 27.4957 12.6197 28.5027 10.736 28.5027V25.4968C11.5011 25.4968 12.2295 25.0913 12.7095 24.3721L15.2096 26.0408ZM19.1992 25.5021H15.8648V22.4962H19.1992V25.5021ZM21.7258 18.9248L22.3843 21.3259L19.4855 22.1209L18.827 19.7198L21.7258 18.9248ZM21.815 16.9005C21.815 17.5356 21.7818 18.1615 21.7175 18.7754L18.728 18.4624C18.7814 17.9521 18.8092 17.4307 18.8092 16.9005H21.815ZM15.9119 4.30104C19.4549 6.77954 21.815 11.5617 21.815 16.9005H18.8092C18.8092 12.3742 16.799 8.58991 14.1889 6.76406L15.9119 4.30104ZM14.1889 6.76406C13.3272 6.16119 12.6324 5.13989 12.6324 3.89493H15.6382C15.6382 3.97342 15.6893 4.14529 15.9119 4.30104L14.1889 6.76406ZM18.827 19.7198C18.7105 19.295 18.6856 18.8671 18.728 18.4624L21.7175 18.7754C21.7105 18.8425 21.7169 18.8922 21.7258 18.9248L18.827 19.7198ZM19.1992 22.4962C19.3951 22.4962 19.5373 22.3098 19.4855 22.1209L22.3843 21.3259C22.9608 23.4279 21.3789 25.5021 19.1992 25.5021V22.4962ZM12.7095 24.3721C13.2814 23.5151 14.35 22.4962 15.8648 22.4962V25.5021C15.8257 25.5021 15.7491 25.513 15.6257 25.5972C15.4954 25.6859 15.3467 25.8354 15.2096 26.0408L12.7095 24.3721ZM5.60721 22.4962C7.12198 22.4962 8.19057 23.5151 8.76255 24.3721L6.26238 26.0408C6.12529 25.8354 5.97662 25.6859 5.84635 25.5972C5.72286 25.513 5.6463 25.5021 5.60721 25.5021V22.4962ZM2.06469 22.1283C2.0185 22.3154 2.16012 22.4962 2.35286 22.4962V25.5021C0.208313 25.5021 -1.36748 23.49 -0.853586 21.408L2.06469 22.1283ZM2.77727 18.4308C2.81219 18.7977 2.7915 19.1836 2.69639 19.5689L-0.221882 18.8486C-0.214497 18.8187 -0.209454 18.7745 -0.215059 18.7156L2.77727 18.4308ZM9.65697 3.89493C9.65697 4.90744 9.02689 5.72206 8.22795 6.08977L6.97125 3.35923C6.82754 3.42537 6.65112 3.60374 6.65112 3.89493H9.65697Z"
    fill="#69A297"
    mask="url(#path-1-inside-1_4216_4680)"
  />
  <path
    d="M16.0059 23.2484L5.56251 23.248"
    stroke="#69A297"
    stroke-width="1.50293"
  />
</svg>
